<?xml version="1.0" encoding="UTF-8"?>
<svg width="2047px" height="865px" viewBox="0 0 2047 865" version="1.1" xmlns="http://www.w3.org/2000/svg" xmlns:xlink="http://www.w3.org/1999/xlink">
    <!-- Generator: Sketch 43.1 (39012) - http://www.bohemiancoding.com/sketch -->
    <title>Group 9</title>
    <desc>Created with Sketch.</desc>
    <defs>
        <linearGradient x1="50%" y1="0%" x2="50%" y2="310.892016%" id="linearGradient-1">
            <stop stop-color="#19B993" offset="0%"></stop>
            <stop stop-color="#26C975" offset="100%"></stop>
        </linearGradient>
        <linearGradient x1="50%" y1="0%" x2="50%" y2="100%" id="linearGradient-2">
            <stop stop-color="#19B896" offset="0%"></stop>
            <stop stop-color="#26C972" offset="100%"></stop>
        </linearGradient>
        <linearGradient x1="50%" y1="0%" x2="50%" y2="120.193357%" id="linearGradient-3">
            <stop stop-color="#13B1A5" offset="0%"></stop>
            <stop stop-color="#25C874" offset="100%"></stop>
        </linearGradient>
        <linearGradient x1="50%" y1="0%" x2="50%" y2="413.834456%" id="linearGradient-4">
            <stop stop-color="#059FCA" offset="0%"></stop>
            <stop stop-color="#0AA5BE" offset="100%"></stop>
        </linearGradient>
        <linearGradient x1="50%" y1="142.117297%" x2="50%" y2="-493.06434%" id="linearGradient-5">
            <stop stop-color="#1DBD8D" offset="0%"></stop>
            <stop stop-color="#27CA71" offset="100%"></stop>
        </linearGradient>
        <linearGradient x1="50%" y1="0%" x2="50%" y2="100%" id="linearGradient-6">
            <stop stop-color="#05A0CB" offset="0%"></stop>
            <stop stop-color="#1EBE89" offset="100%"></stop>
        </linearGradient>
        <linearGradient x1="50%" y1="0%" x2="-40.5161582%" y2="127.264631%" id="linearGradient-7">
            <stop stop-color="#049ECC" offset="0%"></stop>
            <stop stop-color="#10ADAF" offset="100%"></stop>
        </linearGradient>
        <linearGradient x1="50%" y1="0%" x2="752.453077%" y2="181.594287%" id="linearGradient-8">
            <stop stop-color="#059FCB" offset="0%"></stop>
            <stop stop-color="#1CBC8D" offset="100%"></stop>
        </linearGradient>
    </defs>
    <g id="Page-1" stroke="none" stroke-width="1" fill="none" fill-rule="evenodd">
        <g id="Group-9" transform="translate(0.000000, 10.000000)">
            <g id="Group-10" transform="translate(804.000000, 0.000000)">
                <path d="M167,376 C167,376 167.756961,356.788154 178,345 C188.243039,333.211846 211.375523,327 220.5,327 C228.819918,327 248.584129,333.458285 259,345 C269.415871,356.541715 270,376 270,376" id="Line" stroke="url(#linearGradient-1)" stroke-width="20" stroke-linecap="square"></path>
                <path d="M63.75,288 C63.75,288 10,313 10,326 C10,339 43.9893134,411.924263 74,436 C85.2725115,445.043246 92.7882692,435.887595 100,432 C107.211731,428.112405 120,418 120,418" id="Line" stroke="url(#linearGradient-2)" stroke-width="20" stroke-linecap="square"></path>
                <path d="M371.75,288 C371.75,288 318,313 318,326 C318,339 351.989313,411.924263 382,436 C393.272511,445.043246 400.788269,435.887595 408,432 C415.211731,428.112405 428,418 428,418" id="Line" stroke="url(#linearGradient-2)" stroke-width="20" stroke-linecap="square" transform="translate(373.000000, 363.931298) scale(-1, 1) translate(-373.000000, -363.931298) "></path>
                <path d="M98.5,364 C98.5,364 176.809783,229 217.5,229 C258.190217,229 336.5,364 336.5,364" id="Line" stroke="url(#linearGradient-3)" stroke-width="20" stroke-linecap="square"></path>
                <path d="M74,68 C74,68 169.720348,50 218.75,50 C267.779652,50 363.5,73 363.5,73" id="Line" stroke="url(#linearGradient-4)" stroke-width="20" stroke-linecap="square"></path>
                <path d="M101,472 C101,472 169.720348,379 218.75,379 C267.779652,379 334,468 334,468" id="Line" stroke="url(#linearGradient-5)" stroke-width="20" stroke-linecap="square" transform="translate(217.500000, 425.500000) scale(1, -1) translate(-217.500000, -425.500000) "></path>
                <path d="M80,62 C80,62 101,28 142,14 C183,-9.09494702e-13 198.576599,0 218,0 C234.483538,0 272.885647,3.79618712 295,14 C317.114353,24.2038129 366,68 366,68" id="Line" stroke="#039CD3" stroke-width="20" stroke-linecap="square"></path>
                <path d="M44.5,101.5 L95,366" id="Line" stroke="url(#linearGradient-6)" stroke-width="20" stroke-linecap="square"></path>
                <path d="M340,101.5 L394.5,370" id="Line" stroke="url(#linearGradient-6)" stroke-width="20" stroke-linecap="square" transform="translate(367.250000, 235.750000) scale(-1, 1) translate(-367.250000, -235.750000) "></path>
                <rect id="Rectangle-19" stroke="url(#linearGradient-7)" stroke-width="20" transform="translate(42.500000, 69.500000) rotate(-45.000000) translate(-42.500000, -69.500000) " x="22.2469788" y="49.6489448" width="40.5060425" height="39.7021103" rx="10"></rect>
                <rect id="Rectangle-19" stroke="url(#linearGradient-7)" stroke-width="20" transform="translate(395.500000, 68.500000) rotate(-45.000000) translate(-395.500000, -68.500000) " x="375.246979" y="48.6489448" width="40.5060425" height="39.7021103" rx="10"></rect>
                <rect id="Rectangle-20" fill="url(#linearGradient-8)" transform="translate(173.378852, 192.378852) rotate(45.000000) translate(-173.378852, -192.378852) " x="163.378852" y="156.58824" width="20" height="71.5812232" rx="10"></rect>
                <rect id="Rectangle-20-Copy-2" fill="url(#linearGradient-8)" transform="translate(220.142136, 145.142136) rotate(45.000000) translate(-220.142136, -145.142136) " x="210.142136" y="135.142136" width="20" height="20" rx="10"></rect>
                <rect id="Rectangle-20-Copy-3" fill="url(#linearGradient-8)" transform="translate(256.213203, 109.213203) rotate(45.000000) translate(-256.213203, -109.213203) " x="246.213203" y="89.2132034" width="20" height="40" rx="10"></rect>
                <rect id="Rectangle-20-Copy" fill="url(#linearGradient-8)" transform="translate(285.734166, 137.023538) rotate(45.000000) translate(-285.734166, -137.023538) " x="275.734166" y="76.6888064" width="20" height="120.669464" rx="10"></rect>
            </g>
            <path d="M1578.2704,461.8864 C1573.0288,462.6928 1567.7872,463.096 1562.9488,464.7088 C1558.1104,465.9184 1553.272,467.9344 1548.8368,469.9504 C1540.7728,473.5792 1533.9184,478.8208 1527.8704,484.4656 C1521.4192,490.1104 1516.1776,497.368 1512.1456,504.6256 C1505.6944,516.7216 1502.0656,530.4304 1502.0656,544.5424 L1502.0656,666.3088 C1502.0656,674.3728 1502.872,682.0336 1504.4848,690.0976 C1505.2912,693.3232 1506.5008,696.952 1507.7104,700.1776 C1509.7264,704.6128 1511.7424,709.4512 1514.1616,713.8864 C1518.5968,720.7408 1524.2416,727.5952 1530.6928,732.8368 C1534.3216,736.0624 1538.3536,739.288 1542.7888,741.7072 C1547.224,744.5296 1551.6592,746.1424 1556.4976,748.1584 C1564.5616,751.384 1573.432,752.9968 1582.3024,752.9968 C1587.544,753.4 1592.7856,752.5936 1598.0272,751.7872 C1601.656,751.384 1605.2848,750.5776 1608.5104,749.7712 C1616.5744,746.9488 1624.6384,743.32 1631.4928,738.4816 C1636.7344,734.4496 1641.5728,730.4176 1646.008,725.5792 C1650.04,720.7408 1654.072,715.4992 1657.2976,709.8544 C1663.3456,697.7584 1666.9744,684.4528 1666.9744,670.744 C1666.9744,660.2608 1658.104,651.7936 1647.6208,651.7936 C1637.1376,651.7936 1628.6704,660.2608 1628.6704,670.744 C1628.6704,672.76 1628.2672,674.776 1628.2672,676.792 C1627.4608,680.4208 1626.6544,684.4528 1625.0416,688.0816 C1623.4288,691.3072 1621.4128,694.5328 1619.3968,697.7584 C1616.9776,700.5808 1614.1552,703.4032 1611.3328,705.8224 C1608.5104,707.8384 1605.2848,709.8544 1601.656,711.4672 C1598.0272,712.6768 1594.3984,713.8864 1590.3664,714.2896 C1586.7376,714.6928 1582.7056,714.6928 1578.6736,714.2896 C1574.6416,713.8864 1571.0128,712.6768 1567.384,711.4672 C1564.1584,709.8544 1560.9328,707.8384 1557.7072,705.8224 C1554.8848,703.4032 1552.0624,700.5808 1549.6432,697.7584 C1547.6272,694.5328 1545.6112,691.3072 1543.9984,688.0816 C1542.7888,684.4528 1541.5792,680.4208 1540.7728,676.792 C1540.3696,672.76 1540.7728,668.3248 1540.7728,664.2928 L1540.7728,538.4944 C1541.5792,534.4624 1542.7888,530.8336 1543.9984,527.2048 C1545.6112,523.576 1547.6272,520.3504 1549.6432,517.1248 C1552.0624,514.3024 1554.8848,511.48 1557.7072,509.0608 C1560.9328,507.0448 1564.1584,505.0288 1567.384,503.416 C1571.0128,502.2064 1574.6416,500.9968 1578.6736,500.5936 C1582.7056,500.1904 1586.7376,500.1904 1590.3664,500.5936 C1594.3984,500.9968 1598.0272,502.2064 1601.656,503.416 C1605.2848,505.0288 1608.5104,507.0448 1611.3328,509.0608 C1614.1552,511.48 1616.9776,514.3024 1619.3968,517.1248 C1621.816,520.3504 1623.4288,523.576 1625.0416,527.2048 C1626.6544,530.8336 1627.4608,534.4624 1628.2672,538.0912 C1628.2672,540.1072 1628.6704,541.72 1628.6704,543.736 C1628.6704,554.2192 1637.1376,562.6864 1647.6208,562.6864 C1658.104,562.6864 1666.9744,554.2192 1666.9744,543.736 C1666.9744,534.8656 1665.3616,525.592 1662.5392,517.528 C1660.9264,512.6896 1658.9104,507.8512 1656.088,503.416 C1653.6688,499.384 1650.8464,495.352 1647.6208,491.32 C1642.3792,484.8688 1635.5248,479.224 1628.6704,474.3856 C1621.4128,469.9504 1613.3488,466.3216 1604.8816,464.3056 C1596.4144,462.2896 1587.1408,461.08 1578.2704,461.8864 Z M1853.9472,621.5536 L1853.9472,736.0624 C1853.9472,745.7392 1862.0112,753.4 1871.2848,753.4 C1880.5584,753.4 1888.6224,745.7392 1888.6224,736.0624 L1888.6224,578.008 C1888.6224,571.96 1885.3968,565.912 1880.1552,563.0896 C1873.3008,559.0576 1864.4304,560.2672 1859.1888,565.912 C1853.9472,571.1536 1849.1088,576.3952 1843.8672,581.6368 C1832.1744,594.136 1820.0784,607.0384 1807.9824,619.9408 C1793.4672,634.8592 1779.3552,650.1808 1764.84,665.5024 C1756.3728,674.776 1747.9056,683.6464 1739.4384,692.5168 L1739.4384,578.4112 C1739.4384,568.7344 1731.7776,561.0736 1722.1008,561.0736 C1712.8272,561.0736 1705.1664,568.7344 1705.1664,578.4112 L1705.1664,736.0624 C1705.1664,742.1104 1708.392,747.7552 1713.6336,750.9808 C1720.0848,754.6096 1729.3584,753.8032 1734.6,748.1584 C1739.4384,742.9168 1744.68,737.6752 1749.5184,732.4336 C1761.6144,719.5312 1773.3072,707.032 1785.4032,694.1296 L1828.9488,648.1648 C1837.0128,639.2944 1845.48,630.424 1853.9472,621.5536 Z M2030.84,734.0464 C2037.6944,726.7888 2042.5328,718.3216 2044.952,708.6448 C2047.7744,698.968 2047.3712,688.4848 2045.3552,678.808 C2042.936,669.1312 2038.0976,660.664 2031.6464,653.0032 L2027.6144,648.9712 C2030.0336,645.7456 2032.4528,642.52 2034.4688,638.488 C2038.904,629.6176 2041.3232,619.5376 2040.5168,609.4576 C2039.7104,604.6192 2039.3072,599.7808 2037.2912,594.9424 C2036.0816,592.12 2034.872,589.2976 2033.2592,586.8784 C2032.0496,584.056 2030.0336,581.6368 2028.0176,579.2176 C2025.1952,575.1856 2021.5664,572.3632 2017.5344,569.5408 C2013.9056,566.7184 2009.4704,564.7024 2005.0352,563.0896 C2000.6,561.0736 1995.7616,560.6704 1990.9232,559.864 C1986.0848,559.4608 1980.8432,559.864 1976.0048,560.6704 C1966.328,562.2832 1957.4576,567.5248 1950.2,573.976 C1942.9424,580.4272 1937.2976,589.2976 1934.8784,598.5712 C1932.056,607.8448 1937.7008,617.5216 1946.9744,619.9408 C1955.8448,622.36 1965.5216,617.1184 1967.9408,607.8448 C1968.344,607.4416 1968.344,606.6352 1968.7472,606.232 C1969.5536,604.6192 1970.36,603.0064 1971.1664,601.7968 L1974.7952,598.168 C1976.0048,597.3616 1977.6176,596.5552 1979.2304,595.7488 C1980.8432,594.9424 1982.456,594.5392 1984.0688,594.136 L1989.3104,594.136 C1990.9232,594.5392 1992.536,594.9424 1994.1488,595.7488 C1995.7616,596.5552 1996.9712,597.3616 1998.584,598.168 L2002.2128,601.7968 C2003.0192,603.0064 2003.8256,604.6192 2004.632,606.232 L2005.8416,611.0704 C2006.2448,612.6832 2006.2448,614.6992 2005.8416,616.312 L2004.632,621.1504 C2003.8256,622.7632 2003.0192,623.9728 2002.2128,625.5856 L1998.584,629.2144 C1996.9712,630.0208 1995.7616,630.8272 1994.1488,631.6336 L1989.3104,632.8432 C1988.504,632.8432 1987.2944,633.2464 1986.488,633.2464 C1977.2144,633.2464 1969.1504,640.9072 1969.1504,650.1808 C1969.1504,657.0352 1973.5856,663.0832 1979.2304,665.9056 C1981.6496,667.1152 1984.0688,667.9216 1986.8912,667.9216 L1990.52,667.9216 C1992.536,668.3248 1994.9552,669.1312 1996.9712,669.9376 C1998.9872,670.744 2000.6,671.9536 2002.616,673.1632 C2004.2288,674.3728 2005.8416,675.9856 2007.0512,677.5984 C2008.2608,679.6144 2009.4704,681.6304 2010.68,683.2432 C2011.0832,685.6624 2011.8896,687.6784 2012.2928,690.0976 L2012.2928,696.952 C2011.8896,698.968 2011.0832,700.984 2010.68,703.4032 C2009.4704,705.4192 2008.2608,707.032 2007.0512,709.048 C2005.8416,710.6608 2004.2288,712.2736 2002.616,713.4832 C2000.6,714.6928 1998.9872,715.9024 1996.9712,717.112 C1994.9552,717.5152 1992.536,718.3216 1990.52,718.7248 L1983.6656,718.7248 C1981.2464,718.3216 1979.2304,717.5152 1976.8112,717.112 C1975.1984,715.9024 1973.1824,714.6928 1971.1664,713.4832 C1969.5536,712.2736 1967.9408,710.6608 1966.7312,709.048 C1965.5216,707.032 1964.312,705.4192 1963.5056,703.4032 C1962.6992,700.984 1961.8928,698.968 1961.4896,696.952 L1961.4896,693.3232 C1961.4896,684.0496 1953.4256,675.9856 1944.152,675.9856 C1934.8784,675.9856 1926.8144,684.0496 1926.8144,693.3232 C1926.8144,703.4032 1929.6368,713.08 1934.072,721.9504 C1938.5072,730.8208 1945.7648,737.6752 1953.4256,743.32 C1957.4576,746.1424 1961.8928,748.1584 1966.7312,749.7712 C1971.1664,751.7872 1976.0048,752.5936 1981.2464,752.9968 C1984.8752,753.4 1988.504,753.4 1992.1328,752.9968 C1997.3744,752.5936 2002.2128,751.7872 2007.0512,750.1744 C2015.9216,746.5456 2024.3888,741.304 2030.84,734.0464 Z" id="Сиз" fill="#2AB26C"></path>
            <path d="M161.729588,471.5632 L146.004788,496.9648 C135.521588,513.8992 124.635188,531.2368 114.151988,548.5744 C105.684788,562.6864 97.2175879,576.3952 88.7503879,590.104 L38.7535879,590.104 L38.7535879,481.6432 C38.7535879,471.16 29.8831879,462.6928 19.3999879,462.6928 C8.91678785,462.6928 0.449587852,471.16 0.449587852,481.6432 L0.449587852,733.6432 C0.449587852,744.1264 8.91678785,752.9968 19.3999879,752.9968 C29.8831879,752.9968 38.7535879,744.1264 38.7535879,733.6432 L38.7535879,628.8112 L89.9599879,628.8112 C93.1855879,633.6496 96.0079879,638.488 99.2335879,643.3264 C110.119988,660.664 121.006388,678.0016 131.489588,695.3392 C140.359988,709.4512 149.230388,723.16 157.697588,737.272 C158.907188,739.288 160.519988,741.304 161.729588,743.32 C166.971188,752.1904 178.663988,755.8192 187.937588,750.1744 C196.807988,744.9328 200.436788,732.8368 194.791988,723.9664 L179.067188,698.5648 C168.180788,681.2272 157.294388,663.8896 146.811188,646.9552 L122.619188,608.248 C125.844788,603.0064 129.070388,598.168 132.295988,592.9264 C142.779188,575.5888 153.262388,558.2512 164.148788,540.9136 C173.019188,526.8016 181.486388,512.2864 190.356788,498.1744 C191.969588,495.7552 193.179188,493.336 194.791988,490.9168 C200.436788,482.0464 196.807988,469.9504 187.937588,464.7088 C178.663988,459.4672 166.971188,462.6928 161.729588,471.5632 Z M285.399988,742.1104 C270.884788,733.6432 258.385588,721.5472 249.918388,707.4352 C241.047988,692.92 236.209588,675.5824 236.209588,658.2448 C235.806388,641.3104 240.241588,623.9728 249.111988,609.0544 C257.175988,594.5392 269.271988,582.04 283.787188,573.5728 C313.623988,556.2352 352.331188,555.832 382.167988,573.1696 C388.619188,577.2016 394.667188,581.6368 399.908788,586.8784 L399.908788,578.4112 C399.908788,569.1376 407.972788,561.0736 417.246388,561.0736 C426.923188,561.0736 434.583988,569.1376 434.583988,578.4112 L434.583988,680.4208 C434.987188,682.0336 435.390388,683.6464 436.196788,685.2592 C440.228788,700.5808 444.260788,715.9024 448.695988,731.6272 C451.115188,740.4976 445.470388,750.1744 436.599988,752.5936 C427.326388,755.416 417.649588,749.7712 415.230388,740.4976 C413.214388,733.24 411.198388,725.9824 409.182388,718.3216 C401.924788,727.192 393.457588,734.8528 383.780788,740.9008 C353.943988,758.6416 315.236788,759.448 285.399988,742.1104 Z M270.884788,648.9712 C270.481588,654.616 270.481588,660.2608 270.884788,665.9056 C272.094388,671.5504 273.303988,676.792 275.319988,682.0336 C277.739188,686.872 280.561588,691.3072 283.383988,695.7424 C287.012788,700.1776 290.641588,703.8064 295.076788,707.4352 C299.511988,710.2576 303.947188,713.08 308.785588,715.4992 C314.027188,717.5152 319.268788,718.7248 324.913588,719.9344 C330.558388,720.3376 336.203188,720.3376 341.847988,719.9344 C347.089588,718.7248 352.734388,717.5152 357.572788,715.4992 C362.814388,713.08 367.249588,710.2576 371.684788,707.4352 C375.716788,703.8064 379.748788,700.1776 382.974388,695.7424 C386.199988,691.3072 389.022388,686.872 391.038388,682.0336 C393.054388,676.792 394.667188,671.5504 395.473588,665.9056 C395.876788,663.0832 395.876788,660.2608 395.876788,657.4384 C395.876788,654.616 395.876788,651.7936 395.473588,648.9712 C394.667188,643.7296 393.054388,638.0848 391.038388,633.2464 C389.022388,628.0048 386.199988,623.5696 382.974388,619.1344 C379.748788,615.1024 375.716788,611.0704 371.684788,607.8448 C367.249588,604.6192 362.814388,601.7968 357.572788,599.7808 C352.734388,597.7648 347.089588,596.152 341.847988,595.3456 C336.203188,594.5392 330.558388,594.5392 324.913588,595.3456 C319.268788,596.152 314.027188,597.7648 308.785588,599.7808 C303.947188,601.7968 299.511988,604.6192 295.076788,607.8448 C290.641588,611.0704 287.012788,615.1024 283.383988,619.1344 C280.561588,623.5696 277.739188,628.0048 275.319988,633.2464 C273.303988,638.0848 272.094388,643.7296 270.884788,648.9712 Z M591.719988,734.0464 C598.574388,726.7888 603.412788,718.3216 605.831988,708.6448 C608.654388,698.968 608.251188,688.4848 606.235188,678.808 C603.815988,669.1312 598.977588,660.664 592.526388,653.0032 L588.494388,648.9712 C590.913588,645.7456 593.332788,642.52 595.348788,638.488 C599.783988,629.6176 602.203188,619.5376 601.396788,609.4576 C600.590388,604.6192 600.187188,599.7808 598.171188,594.9424 C596.961588,592.12 595.751988,589.2976 594.139188,586.8784 C592.929588,584.056 590.913588,581.6368 588.897588,579.2176 C586.075188,575.1856 582.446388,572.3632 578.414388,569.5408 C574.785588,566.7184 570.350388,564.7024 565.915188,563.0896 C561.479988,561.0736 556.641588,560.6704 551.803188,559.864 C546.964788,559.4608 541.723188,559.864 536.884788,560.6704 C527.207988,562.2832 518.337588,567.5248 511.079988,573.976 C503.822388,580.4272 498.177588,589.2976 495.758388,598.5712 C492.935988,607.8448 498.580788,617.5216 507.854388,619.9408 C516.724788,622.36 526.401588,617.1184 528.820788,607.8448 C529.223988,607.4416 529.223988,606.6352 529.627188,606.232 C530.433588,604.6192 531.239988,603.0064 532.046388,601.7968 L535.675188,598.168 C536.884788,597.3616 538.497588,596.5552 540.110388,595.7488 C541.723188,594.9424 543.335988,594.5392 544.948788,594.136 L550.190388,594.136 C551.803188,594.5392 553.415988,594.9424 555.028788,595.7488 C556.641588,596.5552 557.851188,597.3616 559.463988,598.168 L563.092788,601.7968 C563.899188,603.0064 564.705588,604.6192 565.511988,606.232 L566.721588,611.0704 C567.124788,612.6832 567.124788,614.6992 566.721588,616.312 L565.511988,621.1504 C564.705588,622.7632 563.899188,623.9728 563.092788,625.5856 L559.463988,629.2144 C557.851188,630.0208 556.641588,630.8272 555.028788,631.6336 L550.190388,632.8432 C549.383988,632.8432 548.174388,633.2464 547.367988,633.2464 C538.094388,633.2464 530.030388,640.9072 530.030388,650.1808 C530.030388,657.0352 534.465588,663.0832 540.110388,665.9056 C542.529588,667.1152 544.948788,667.9216 547.771188,667.9216 L551.399988,667.9216 C553.415988,668.3248 555.835188,669.1312 557.851188,669.9376 C559.867188,670.744 561.479988,671.9536 563.495988,673.1632 C565.108788,674.3728 566.721588,675.9856 567.931188,677.5984 C569.140788,679.6144 570.350388,681.6304 571.559988,683.2432 C571.963188,685.6624 572.769588,687.6784 573.172788,690.0976 L573.172788,696.952 C572.769588,698.968 571.963188,700.984 571.559988,703.4032 C570.350388,705.4192 569.140788,707.032 567.931188,709.048 C566.721588,710.6608 565.108788,712.2736 563.495988,713.4832 C561.479988,714.6928 559.867188,715.9024 557.851188,717.112 C555.835188,717.5152 553.415988,718.3216 551.399988,718.7248 L544.545588,718.7248 C542.126388,718.3216 540.110388,717.5152 537.691188,717.112 C536.078388,715.9024 534.062388,714.6928 532.046388,713.4832 C530.433588,712.2736 528.820788,710.6608 527.611188,709.048 C526.401588,707.032 525.191988,705.4192 524.385588,703.4032 C523.579188,700.984 522.772788,698.968 522.369588,696.952 L522.369588,693.3232 C522.369588,684.0496 514.305588,675.9856 505.031988,675.9856 C495.758388,675.9856 487.694388,684.0496 487.694388,693.3232 C487.694388,703.4032 490.516788,713.08 494.951988,721.9504 C499.387188,730.8208 506.644788,737.6752 514.305588,743.32 C518.337588,746.1424 522.772788,748.1584 527.611188,749.7712 C532.046388,751.7872 536.884788,752.5936 542.126388,752.9968 C545.755188,753.4 549.383988,753.4 553.012788,752.9968 C558.254388,752.5936 563.092788,751.7872 567.931188,750.1744 C576.801588,746.5456 585.268788,741.304 591.719988,734.0464 Z M684.747188,734.8528 L684.747188,499.384 L779.095988,499.384 L779.095988,734.0464 C779.095988,744.5296 787.966388,753.4 798.449588,753.4 C808.932788,753.4 817.803188,744.5296 817.803188,734.0464 L817.803188,480.0304 C817.803188,469.5472 808.932788,461.08 798.449588,461.08 L665.393588,461.08 C654.910388,461.08 646.039988,469.5472 646.039988,480.0304 L646.039988,734.8528 C646.039988,745.336 654.910388,753.8032 665.393588,753.8032 C675.876788,753.8032 684.747188,745.336 684.747188,734.8528 Z M925.345588,557.4448 C934.215988,558.6544 941.876788,561.4768 949.940788,565.1056 C958.004788,568.3312 964.455988,572.7664 971.310388,578.008 C976.955188,582.4432 981.793588,587.2816 986.228788,592.9264 C991.470388,599.3776 995.905588,606.232 999.131188,614.296 C1002.75999,621.9568 1005.58239,630.0208 1006.79199,638.488 C1008.00159,647.3584 1008.80799,656.2288 1007.59839,665.0992 C1006.38879,673.5664 1004.77599,682.0336 1001.55039,690.0976 C998.324788,697.7584 994.695988,705.4192 989.454388,712.2736 C984.615988,719.128 979.374388,725.176 972.519988,730.4176 C966.068788,735.6592 959.214388,740.4976 951.553588,744.1264 C943.892788,747.352 935.828788,750.5776 927.361588,751.7872 C920.910388,752.9968 914.055988,753.4 907.604788,753.4 L890.670388,753.4 L890.670388,836.8624 C890.670388,846.5392 883.009588,854.2 873.332788,854.2 C864.059188,854.2 855.995188,846.5392 855.995188,836.8624 L855.995188,573.1696 C855.995188,563.896 864.059188,556.2352 873.332788,556.2352 L907.604788,556.2352 C913.652788,556.2352 919.700788,556.6384 925.345588,557.4448 Z M960.423988,615.5056 C956.795188,611.4736 952.763188,607.4416 948.731188,603.8128 C944.295988,600.5872 939.457588,597.7648 934.215988,595.7488 C928.974388,593.7328 923.732788,592.12 918.087988,591.3136 C910.427188,590.5072 902.766388,590.5072 895.508788,590.5072 L890.670388,590.5072 L890.670388,719.128 L900.750388,719.128 C906.395188,719.128 912.443188,719.128 918.087988,718.3216 C923.732788,717.5152 928.974388,715.9024 934.215988,713.8864 C939.457588,711.8704 944.295988,709.048 948.731188,705.8224 C952.763188,702.1936 956.795188,698.1616 960.423988,694.1296 C963.649588,689.6944 966.471988,684.856 968.487988,679.6144 C970.503988,674.3728 972.116788,669.1312 972.923188,663.4864 C973.729588,657.8416 973.729588,651.7936 972.923188,646.1488 C972.116788,640.504 970.503988,635.2624 968.487988,630.0208 C966.471988,624.7792 963.649588,619.9408 960.423988,615.5056 Z M1228.03679,607.0384 C1236.90719,621.9568 1241.34239,638.8912 1241.74559,656.2288 C1241.34239,673.1632 1236.90719,690.0976 1228.43999,704.6128 C1220.37599,718.7248 1208.68319,731.224 1194.57119,739.6912 C1164.73439,757.432 1126.43039,758.2384 1096.19039,740.9008 C1081.67519,732.4336 1069.17599,720.3376 1060.70879,706.2256 C1051.83839,691.3072 1046.99999,674.3728 1046.99999,657.0352 C1046.59679,640.1008 1051.03199,622.7632 1059.90239,607.8448 C1067.96639,593.3296 1080.46559,580.8304 1094.57759,572.3632 C1124.41439,554.6224 1163.12159,554.6224 1192.95839,571.96 C1207.47359,580.4272 1219.97279,592.5232 1228.03679,607.0384 Z M1206.66719,664.696 C1206.66719,661.8736 1207.07039,659.0512 1207.07039,656.2288 C1207.07039,653.4064 1206.66719,650.584 1206.66719,647.7616 C1205.45759,642.1168 1204.24799,636.8752 1202.23199,631.6336 C1199.81279,626.7952 1197.39359,622.36 1194.16799,617.9248 C1190.53919,613.4896 1186.91039,609.8608 1182.47519,606.232 C1178.03999,603.4096 1173.60479,600.5872 1168.76639,598.168 C1163.52479,596.152 1158.28319,594.9424 1152.63839,593.7328 C1146.99359,593.3296 1141.34879,593.3296 1135.70399,593.7328 C1130.46239,594.9424 1124.81759,596.152 1119.97919,598.168 C1114.73759,600.5872 1110.30239,603.4096 1105.86719,606.232 C1101.83519,609.8608 1097.80319,613.4896 1094.57759,617.9248 C1091.35199,622.36 1088.52959,626.7952 1086.11039,631.6336 C1084.09439,636.8752 1082.88479,642.1168 1082.07839,647.7616 C1081.27199,653.4064 1081.27199,659.0512 1082.07839,664.696 C1082.88479,669.9376 1084.09439,675.5824 1086.11039,680.824 C1088.52959,685.6624 1091.35199,690.0976 1094.57759,694.5328 C1097.80319,698.5648 1101.83519,702.5968 1105.86719,706.2256 C1110.30239,709.048 1114.73759,711.8704 1119.97919,714.2896 C1124.81759,716.3056 1130.46239,717.5152 1135.70399,718.7248 C1141.34879,719.128 1146.99359,719.128 1152.63839,718.7248 C1158.28319,717.5152 1163.52479,716.3056 1168.76639,714.2896 C1173.60479,711.8704 1178.03999,709.048 1182.47519,706.2256 C1186.91039,702.5968 1190.53919,698.5648 1194.16799,694.5328 C1197.39359,690.0976 1199.81279,685.6624 1202.23199,680.824 C1204.24799,675.5824 1205.45759,669.9376 1206.66719,664.696 Z M1314.61279,736.0624 L1314.61279,626.392 C1325.49919,639.2944 1336.38559,651.7936 1347.27199,664.696 C1350.09439,667.9216 1352.51359,670.744 1355.33599,673.9696 C1359.36799,678.4048 1365.01279,679.2112 1370.65759,679.2112 C1375.49599,679.2112 1379.93119,679.2112 1384.36639,676.792 C1386.78559,675.1792 1387.99519,673.9696 1389.60799,671.9536 C1400.49439,659.0512 1411.38079,646.552 1422.26719,634.0528 C1424.28319,631.6336 1426.29919,628.8112 1428.71839,626.392 L1428.71839,736.0624 C1428.71839,745.7392 1436.37919,753.4 1446.05599,753.4 C1455.32959,753.4 1463.39359,745.7392 1463.39359,736.0624 L1463.39359,579.6208 C1463.39359,573.5728 1459.76479,567.928 1454.52319,564.7024 C1448.47519,561.0736 1438.79839,561.88 1433.55679,567.5248 C1425.49279,576.7984 1417.42879,586.4752 1409.36479,595.7488 C1396.86559,610.6672 1384.36639,625.1824 1371.46399,640.1008 C1366.22239,633.6496 1360.98079,627.6016 1355.73919,621.1504 C1342.83679,606.6352 1330.33759,591.7168 1317.43519,576.7984 C1315.01599,573.5728 1312.19359,570.7504 1309.77439,567.5248 C1305.74239,563.0896 1298.48479,561.4768 1292.83999,563.0896 C1285.17919,565.1056 1279.93759,571.96 1279.93759,579.6208 L1279.93759,736.0624 C1279.93759,745.7392 1288.00159,753.4 1297.27519,753.4 C1306.95199,753.4 1314.61279,745.7392 1314.61279,736.0624 Z" id="КазПром" fill="#019AD6"></path>
        </g>
    </g>
</svg>