<?xml version="1.0" encoding="iso-8859-1"?>
<!-- Generator: Adobe Illustrator 19.0.0, SVG Export Plug-In . SVG Version: 6.00 Build 0)  -->
<svg xmlns="http://www.w3.org/2000/svg" xmlns:xlink="http://www.w3.org/1999/xlink" version="1.1" id="Layer_1" x="0px" y="0px" viewBox="0 0 490.3 490.3" style="enable-background:new 0 0 490.3 490.3;" xml:space="preserve" width="512px" height="512px">
<g>
	<path d="M416.1,341.15c-13.6,0-26.3,3.7-37.2,10.1l-45.7-50.1c6.6-11.1,10.4-24.1,10.4-38c0-21.6-9.2-41.1-23.9-54.7l30.6-59.8   c2.9,0.3,5.8,0.5,8.8,0.5c41,0,74.3-33.4,74.3-74.5s-33.3-74.5-74.3-74.5s-74.3,33.4-74.3,74.5c0,23.3,10.8,44.2,27.5,57.8   l-29.4,57.4c-4.4-0.8-9-1.3-13.7-1.3c-39.4,0-71.7,30.9-74.1,69.8l-52.4,10.5c-11.3-26.6-37.7-45.3-68.4-45.3   c-41,0-74.3,33.4-74.3,74.5s33.3,74.5,74.3,74.5c37,0,67.7-27.2,73.4-62.7l56.2-11.3c12.6,23.2,37.2,39.1,65.3,39.1   c12.5,0,24.3-3.1,34.6-8.6l46.8,51.3c-5.7,10.5-8.9,22.5-8.9,35.3c0,41.1,33.3,74.5,74.3,74.5s74.3-33.4,74.3-74.5   C490.4,374.55,457.1,341.15,416.1,341.15z M359.1,41.25c18.4,0,33.3,15,33.3,33.4s-14.9,33.4-33.3,33.4s-33.3-15-33.3-33.4   S340.8,41.25,359.1,41.25z M74.5,331.45c-18.4,0-33.3-15-33.3-33.4s14.9-33.4,33.3-33.4s33.3,15,33.3,33.4   C107.8,316.55,92.9,331.45,74.5,331.45z M236.1,263.15c0-18.4,14.9-33.4,33.3-33.4s33.3,15,33.3,33.4s-14.9,33.4-33.3,33.4   S236.1,281.55,236.1,263.15z M416.1,449.05c-18.4,0-33.3-15-33.3-33.4s14.9-33.4,33.3-33.4s33.3,15,33.3,33.4   S434.5,449.05,416.1,449.05z" fill="#D80027"/>
</g>
<g>
</g>
<g>
</g>
<g>
</g>
<g>
</g>
<g>
</g>
<g>
</g>
<g>
</g>
<g>
</g>
<g>
</g>
<g>
</g>
<g>
</g>
<g>
</g>
<g>
</g>
<g>
</g>
<g>
</g>
</svg>
