<?xml version="1.0" encoding="UTF-8"?>
<svg width="496px" height="496px" viewBox="0 0 496 496" version="1.1" xmlns="http://www.w3.org/2000/svg" xmlns:xlink="http://www.w3.org/1999/xlink">
    <!-- Generator: Sketch 47.1 (45422) - http://www.bohemiancoding.com/sketch -->
    <title>teamwork</title>
    <desc>Created with Sketch.</desc>
    <defs></defs>
    <g id="Page-1" stroke="none" stroke-width="1" fill="none" fill-rule="evenodd">
        <g id="teamwork" fill-rule="nonzero">
            <g id="Group" fill="#333333">
                <rect id="Rectangle-path" x="280" y="192" width="16" height="24"></rect>
                <path d="M168,56 C144.264,56 124.552,73.336 120.72,96 L88,96 L50.08,96 C22.472,96 0,118.472 0,146.08 L0,212 C0,227.44 12.56,240 28,240 C32.312,240 36.352,238.936 40,237.192 L40,356 C40,371.44 52.56,384 68,384 C75.84,384 82.912,380.744 88,375.536 C93.088,380.744 100.16,384 108,384 C112.312,384 116.352,382.936 120,381.192 L120,412 C120,427.44 132.56,440 148,440 C155.84,440 162.912,436.744 168,431.536 C173.088,436.744 180.16,440 188,440 C203.44,440 216,427.44 216,412 L200,412 C200,418.616 194.616,424 188,424 C181.384,424 176,418.616 176,412 L176,304 L160,304 L160,412 C160,418.616 154.616,424 148,424 C141.384,424 136,418.616 136,412 L136,268 L136,264 L136,192 L120,192 L120,264 L120,268 C120,274.616 114.616,280 108,280 C101.384,280 96,274.616 96,268 L96,248 L96,202.08 C96,183.288 111.288,168 130.08,168 L205.92,168 L205.92,152 L168,152 L136,152 L136,139.68 C144.504,147.312 155.696,152 168,152 C194.472,152 216,130.472 216,104 C216,77.528 194.472,56 168,56 Z M108,296 C112.312,296 116.352,294.936 120,293.192 L120,356 C120,362.616 114.616,368 108,368 C101.384,368 96,362.616 96,356 L96,293.192 C99.648,294.936 103.688,296 108,296 Z M80,202.08 L80,248 L80,268 L80,356 C80,362.616 74.616,368 68,368 C61.384,368 56,362.616 56,356 L56,212 L56,208 L56,136 L40,136 L40,208 L40,212 C40,218.616 34.616,224 28,224 C21.384,224 16,218.616 16,212 L16,146.08 C16,127.288 31.288,112 50.08,112 L120.728,112 C122.272,121.136 126.392,129.384 132.328,136 L120,136 L120,153.016 C97.2,157.696 80,177.92 80,202.08 Z M168,136 C150.352,136 136,121.648 136,104 C136,86.352 150.352,72 168,72 C185.648,72 200,86.352 200,104 C200,121.648 185.648,136 168,136 Z" id="Shape"></path>
                <rect id="Rectangle-path" x="200" y="192" width="16" height="24"></rect>
                <path d="M136,48 C136,21.528 114.472,0 88,0 C61.528,0 40,21.528 40,48 C40,74.472 61.528,96 88,96 C114.472,96 136,74.472 136,48 Z M88,80 C70.352,80 56,65.648 56,48 C56,30.352 70.352,16 88,16 C105.648,16 120,30.352 120,48 C120,65.648 105.648,80 88,80 Z" id="Shape"></path>
                <path d="M456,48 C456,21.528 434.472,0 408,0 C381.528,0 360,21.528 360,48 C360,74.472 381.528,96 408,96 C434.472,96 456,74.472 456,48 Z M408,80 C390.352,80 376,65.648 376,48 C376,30.352 390.352,16 408,16 C425.648,16 440,30.352 440,48 C440,65.648 425.648,80 408,80 Z" id="Shape"></path>
                <path d="M445.92,96 L408,96 L375.28,96 C371.456,73.336 351.744,56 328,56 C301.528,56 280,77.528 280,104 C280,130.472 301.528,152 328,152 C340.304,152 351.496,147.312 360,139.68 L360,152 L328,152 L290.08,152 L290.08,168 L365.92,168 C384.712,168 400,183.288 400,202.08 L400,248 L400,268 C400,274.616 394.616,280 388,280 C381.384,280 376,274.616 376,268 L376,264 L376,192 L360,192 L360,264 L360,268 L360,412 C360,418.616 354.616,424 348,424 C341.384,424 336,418.616 336,412 L336,304 L320,304 L320,412 C320,418.616 314.616,424 308,424 C301.384,424 296,418.616 296,412 L280,412 C280,427.44 292.56,440 308,440 C315.84,440 322.912,436.744 328,431.536 C333.088,436.744 340.16,440 348,440 C363.44,440 376,427.44 376,412 L376,381.192 C379.648,382.936 383.688,384 388,384 C395.84,384 402.912,380.744 408,375.536 C413.088,380.744 420.16,384 428,384 C443.44,384 456,371.44 456,356 L456,237.192 C459.648,238.936 463.688,240 468,240 C483.44,240 496,227.44 496,212 L496,146.08 C496,118.472 473.528,96 445.92,96 Z M328,136 C310.352,136 296,121.648 296,104 C296,86.352 310.352,72 328,72 C345.648,72 360,86.352 360,104 C360,121.648 345.648,136 328,136 Z M388,368 C381.384,368 376,362.616 376,356 L376,293.192 C379.648,294.936 383.688,296 388,296 C392.312,296 396.352,294.936 400,293.192 L400,356 C400,362.616 394.616,368 388,368 Z M480,212 C480,218.616 474.616,224 468,224 C461.384,224 456,218.616 456,212 L456,208 L456,136 L440,136 L440,208 L440,212 L440,356 C440,362.616 434.616,368 428,368 C421.384,368 416,362.616 416,356 L416,268 L416,248 L416,202.08 C416,177.92 398.8,157.696 376,153.024 L376,136 L363.68,136 C369.616,129.384 373.736,121.136 375.28,112 L445.928,112 C464.72,112 480.008,127.288 480.008,146.08 L480.008,212 L480,212 Z" id="Shape"></path>
            </g>
            <g id="Group" transform="translate(160.000000, 112.000000)" fill="#F03354">
                <path d="M136,48 C136,21.528 114.472,0 88,0 C61.528,0 40,21.528 40,48 C40,74.472 61.528,96 88,96 C114.472,96 136,74.472 136,48 Z" id="Shape"></path>
                <path d="M125.92,96 L88,96 L50.08,96 C22.472,96 0,118.472 0,146.08 L0,212 C0,227.44 12.56,240 28,240 C32.312,240 36.352,238.936 40,237.192 L40,356 C40,371.44 52.56,384 68,384 C75.84,384 82.912,380.744 88,375.536 C93.088,380.744 100.16,384 108,384 C123.44,384 136,371.44 136,356 L136,237.192 C139.648,238.936 143.688,240 148,240 C163.44,240 176,227.44 176,212 L176,146.08 C176,118.472 153.528,96 125.92,96 Z" id="Shape"></path>
            </g>
        </g>
    </g>
</svg>