<?xml version="1.0" encoding="UTF-8"?>
<svg width="496px" height="408px" viewBox="0 0 496 408" version="1.1" xmlns="http://www.w3.org/2000/svg" xmlns:xlink="http://www.w3.org/1999/xlink">
    <!-- Generator: Sketch 47.1 (45422) - http://www.bohemiancoding.com/sketch -->
    <title>web-design</title>
    <desc>Created with Sketch.</desc>
    <defs></defs>
    <g id="Page-1" stroke="none" stroke-width="1" fill="none" fill-rule="evenodd">
        <g id="web-design" fill-rule="nonzero">
            <g id="Group" transform="translate(64.000000, 96.000000)" fill="#F03354">
                <polygon id="Shape" points="112 96 0 96 0 0 112 0"></polygon>
                <polygon id="Shape" points="240 96 128 96 128 0 240 0"></polygon>
                <polygon id="Shape" points="368 96 256 96 256 0 368 0"></polygon>
            </g>
            <g id="Group" fill="#333333">
                <path d="M464,0 L32,0 C14.352,0 0,14.352 0,32 L0,320 C0,337.648 14.352,352 32,352 L176,352 L176,392 L120,392 L120,408 L176,408 L320,408 L376,408 L376,392 L320,392 L320,352 L464,352 C481.648,352 496,337.648 496,320 L496,32 C496,14.352 481.648,0 464,0 Z M304,392 L192,392 L192,352 L304,352 L304,392 Z M480,320 C480,328.824 472.824,336 464,336 L320,336 L176,336 L32,336 C23.176,336 16,328.824 16,320 L16,32 C16,23.176 23.176,16 32,16 L464,16 C472.824,16 480,23.176 480,32 L480,320 Z" id="Shape"></path>
                <path d="M32,320 L464,320 L464,32 L32,32 L32,320 Z M48,48 L448,48 L448,304 L48,304 L48,48 Z" id="Shape"></path>
                <circle id="Oval" cx="72" cy="72" r="8"></circle>
                <circle id="Oval" cx="96" cy="72" r="8"></circle>
                <circle id="Oval" cx="120" cy="72" r="8"></circle>
                <rect id="Rectangle-path" x="64" y="208" width="240" height="16"></rect>
                <rect id="Rectangle-path" x="64" y="240" width="240" height="16"></rect>
                <rect id="Rectangle-path" x="64" y="272" width="240" height="16"></rect>
                <rect id="Rectangle-path" x="328" y="208" width="104" height="16"></rect>
                <rect id="Rectangle-path" x="328" y="240" width="104" height="16"></rect>
                <rect id="Rectangle-path" x="328" y="272" width="104" height="16"></rect>
            </g>
        </g>
    </g>
</svg>