<?xml version="1.0" standalone="no"?>
<!DOCTYPE svg PUBLIC "-//W3C//DTD SVG 1.1//EN" "http://www.w3.org/Graphics/SVG/1.1/DTD/svg11.dtd" >
<svg xmlns="http://www.w3.org/2000/svg">
<metadata>Generated by IcoMoon</metadata>
<defs>
<font id="icomoon" horiz-adv-x="1024">
<font-face units-per-em="1024" ascent="960" descent="-64" />
<missing-glyph horiz-adv-x="1024" />
<glyph unicode="&#x20;" horiz-adv-x="512" d="" />
<glyph unicode="&#xe900;" glyph-name="vk-social-logotype" d="M1018.572 212.486c-1.24 2.672-2.396 4.889-3.47 6.665-17.766 31.998-51.717 71.273-101.833 117.836l-1.059 1.066-0.53 0.523-0.536 0.536h-0.538c-22.745 21.682-37.148 36.261-43.18 43.725-11.036 14.218-13.509 28.61-7.477 43.193 4.261 11.018 20.269 34.285 47.985 69.835 14.579 18.84 26.125 33.94 34.651 45.316 61.495 81.754 88.156 133.997 79.977 156.747l-3.176 5.316c-2.134 3.201-7.643 6.129-16.519 8.799-8.896 2.665-20.267 3.105-34.132 1.33l-153.545-1.061c-2.487 0.881-6.039 0.799-10.667-0.269-4.622-1.068-6.934-1.604-6.934-1.604l-2.672-1.335-2.121-1.604c-1.778-1.061-3.733-2.926-5.867-5.593-2.123-2.657-3.899-5.776-5.318-9.329-16.717-43.008-35.723-82.994-57.054-119.958-13.152-22.041-25.23-41.142-36.261-57.316-11.016-16.168-20.257-28.080-27.716-35.716-7.47-7.643-14.211-13.766-20.265-18.392-6.045-4.627-10.659-6.583-13.854-5.867-3.203 0.715-6.218 1.425-9.074 2.134-4.973 3.201-8.973 7.554-11.989 13.062-3.029 5.509-5.068 12.442-6.134 20.795-1.061 8.358-1.688 15.548-1.867 21.593-0.166 6.037-0.090 14.577 0.271 25.594 0.37 11.023 0.536 18.482 0.536 22.392 0 13.509 0.263 28.17 0.792 43.986 0.538 15.817 0.973 28.349 1.337 37.581 0.362 9.242 0.53 19.019 0.53 29.327s-0.627 18.392-1.867 24.259c-1.225 5.86-3.105 11.548-5.584 17.062-2.493 5.509-6.142 9.77-10.93 12.795-4.797 3.021-10.762 5.419-17.86 7.201-18.84 4.263-42.831 6.569-71.982 6.928-66.108 0.71-108.585-3.559-127.423-12.801-7.464-3.905-14.218-9.24-20.257-15.989-6.4-7.823-7.292-12.091-2.672-12.794 21.329-3.195 36.429-10.838 45.316-22.922l3.203-6.403c2.491-4.62 4.978-12.799 7.468-24.526 2.486-11.727 4.090-24.7 4.795-38.911 1.774-25.951 1.774-48.166 0-66.645-1.78-18.487-3.46-32.879-5.064-43.187s-4.002-18.661-7.199-25.057c-3.203-6.398-5.333-10.308-6.401-11.727-1.066-1.419-1.955-2.314-2.661-2.665-4.62-1.77-9.425-2.672-14.398-2.672-4.98 0-11.019 2.491-18.127 7.47-7.105 4.978-14.48 11.817-22.123 20.526-7.643 8.711-16.263 20.885-25.863 36.522-9.593 15.638-19.546 34.119-29.854 55.445l-8.528 15.466c-5.331 9.949-12.614 24.437-21.856 43.449-9.247 19.019-17.421 37.417-24.526 55.189-2.84 7.464-7.107 13.146-12.794 17.057l-2.669 1.604c-1.774 1.419-4.622 2.926-8.528 4.532-3.912 1.604-7.994 2.754-12.263 3.462l-146.084-1.061c-14.928 0-25.057-3.382-30.39-10.136l-2.134-3.195c-1.066-1.78-1.604-4.622-1.604-8.534 0-3.91 1.066-8.71 3.201-14.392 21.326-50.121 44.517-98.458 69.573-145.020s46.83-84.068 65.308-112.486c18.482-28.439 37.32-55.279 56.515-80.507 19.195-25.238 31.901-41.411 38.117-48.517 6.224-7.119 11.113-12.441 14.667-15.994l13.331-12.794c8.53-8.532 21.057-18.75 37.585-30.655 16.532-11.912 34.834-23.639 54.916-35.2 20.086-11.542 43.452-20.961 70.113-28.246 26.657-7.292 52.603-10.218 77.84-8.807h61.314c12.435 1.074 21.856 4.984 28.259 11.733l2.121 2.672c1.427 2.121 2.762 5.417 3.994 9.852 1.247 4.443 1.867 9.337 1.867 14.661-0.364 15.281 0.799 29.053 3.458 41.314 2.657 12.258 5.686 21.499 9.074 27.723 3.386 6.218 7.206 11.466 11.458 15.72 4.261 4.263 7.298 6.846 9.079 7.735 1.77 0.894 3.184 1.501 4.25 1.866 8.53 2.842 18.569 0.090 30.132-8.271 11.554-8.353 22.39-18.666 32.526-30.924 10.131-12.269 22.302-26.033 36.517-41.314 14.224-15.286 26.661-26.65 37.32-34.125l10.659-6.398c7.119-4.269 16.36-8.179 27.736-11.733 11.356-3.552 21.305-4.441 29.848-2.665l136.482 2.129c13.499 0 24.003 2.235 31.454 6.67 7.466 4.443 11.901 9.337 13.331 14.661 1.427 5.33 1.503 11.376 0.271 18.136-1.264 6.743-2.51 11.458-3.75 14.123z" />
<glyph unicode="&#xe901;" glyph-name="vk-social-logotype2" d="M969.532 960h-915.064c-30.088 0-54.468-24.391-54.468-54.468v-915.064c0-30.077 24.38-54.468 54.468-54.468h915.064c30.088 0 54.468 24.391 54.468 54.468v915.064c0 30.077-24.38 54.468-54.468 54.468zM815.594 383.259c27.909-27.234 57.42-52.878 82.486-82.977 11.090-13.29 21.548-27.016 29.511-42.474 11.34-22.049 1.1-46.265-18.661-47.562l-122.619 0.033c-31.657-2.604-56.865 10.142-78.129 31.788-16.94 17.266-32.692 35.698-49.021 53.531-6.656 7.331-13.715 14.227-22.060 19.674-16.711 10.85-31.232 7.538-40.829-9.902-9.761-17.757-12.016-37.452-12.909-57.246-1.362-28.923-10.077-36.472-39.086-37.812-61.985-2.919-120.821 6.493-175.474 37.725-48.248 27.561-85.558 66.495-118.065 110.527-63.357 85.874-111.877 180.137-155.452 277.101-9.815 21.842-2.636 33.531 21.428 33.977 40.045 0.795 80.079 0.686 120.069 0.044 16.297-0.251 27.071-9.575 33.313-24.935 21.624-53.215 48.161-103.849 81.386-150.8 8.857-12.495 17.898-24.968 30.753-33.803 14.205-9.761 25.034-6.547 31.733 9.303 4.281 10.109 6.133 20.85 7.048 31.657 3.181 36.995 3.562 73.989-1.928 110.843-3.431 23.051-16.417 37.942-39.402 42.3-11.7 2.222-9.989 6.558-4.303 13.236 9.87 11.569 19.173 18.715 37.648 18.715l138.578 0.022c21.853-4.27 26.711-14.075 29.685-36.069l0.131-153.959c-0.229-8.519 4.259-33.748 19.554-39.326 12.234-4.042 20.349 5.774 27.67 13.552 33.204 35.241 56.865 76.865 78.075 119.928 9.336 18.988 17.43 38.661 25.273 58.346 5.806 14.565 14.892 21.733 31.319 21.471l133.403-0.142c3.922 0 7.941-0.044 11.83-0.686 22.463-3.867 28.618-13.541 21.678-35.481-10.937-34.457-32.234-63.172-53.063-91.953-22.256-30.774-46.015-60.536-68.107-91.463-20.24-28.367-18.606-42.616 6.536-67.181z" />
<glyph unicode="&#xe902;" glyph-name="home3" d="M1024 352l-192 192v288h-128v-160l-192 192-512-512v-32h128v-320h320v192h128v-192h320v320h128z" />
<glyph unicode="&#xe903;" horiz-adv-x="1059" d="M150.078 697.395h710.193v-644.128h-710.193v644.128z" />
<glyph unicode="&#xe904;" horiz-adv-x="1059" d="M959.37 763.459h-858.839c-45.536 0-82.581-37.045-82.581-82.581v-611.097c0-45.536 37.045-82.581 82.581-82.581h858.839c45.536 0 82.581 37.045 82.581 82.581v611.097c0 45.536-37.045 82.581-82.581 82.581zM1008.917 69.782c0-27.318-22.231-49.549-49.549-49.549h-858.839c-27.318 0-49.549 22.231-49.549 49.549v611.097c0 27.318 22.231 49.549 49.549 49.549h858.839c27.318 0 49.549-22.231 49.549-49.549v-611.097z" />
<glyph unicode="&#xe905;" glyph-name="pencil" d="M864 960c88.364 0 160-71.634 160-160 0-36.020-11.91-69.258-32-96l-64-64-224 224 64 64c26.742 20.090 59.978 32 96 32zM64 224l-64-288 288 64 592 592-224 224-592-592zM715.578 596.422l-448-448-55.156 55.156 448 448 55.156-55.156z" />
<glyph unicode="&#xe906;" glyph-name="pencil2" d="M384 320l128 64 448 448-64 64-448-448-64-128zM289.3 92.902c-31.632 66.728-65.666 100.762-132.396 132.394l99.096 272.792 128 77.912 384 384h-192l-384-384-192-640 640 192 384 384v192l-384-384-77.912-128z" />
<glyph unicode="&#xe907;" horiz-adv-x="1059" d="M84.013 482.684h51.2v-132.13h-51.2v132.13z" />
<glyph unicode="&#xe908;" horiz-adv-x="1059" d="M84.013 284.489h51.2v-51.2h-51.2v51.2z" />
<glyph unicode="&#xe909;" horiz-adv-x="1059" d="M934.596 424.878c-31.877 0-57.806-25.929-57.806-57.806s25.929-57.806 57.806-57.806c31.877 0 57.806 25.929 57.806 57.806s-25.929 57.806-57.806 57.806zM934.596 342.298c-13.659 0-24.775 11.116-24.775 24.775s11.116 24.775 24.775 24.775c13.659 0 24.775-11.116 24.775-24.775s-11.116-24.775-24.775-24.775z" />
<glyph unicode="&#xe90a;" horiz-adv-x="1059" d="M430.853 499.2c0 36.436-29.629 66.065-66.065 66.065s-66.065-29.629-66.065-66.065c0-36.436 29.629-66.065 66.065-66.065s66.065 29.629 66.065 66.065zM364.788 466.169c-18.218 0-33.031 14.816-33.031 33.031s14.816 33.031 33.031 33.031c18.218 0 33.031-14.816 33.031-33.031s-14.816-33.031-33.031-33.031z" />
<glyph unicode="&#xe90b;" glyph-name="droplet" d="M864.626 486.838c-65.754 183.44-205.11 348.15-352.626 473.162-147.516-125.012-286.87-289.722-352.626-473.162-40.664-113.436-44.682-236.562 12.584-345.4 65.846-125.14 198.632-205.438 340.042-205.438s274.196 80.298 340.040 205.44c57.27 108.838 53.25 231.962 12.586 345.398zM738.764 201.044c-43.802-83.252-132.812-137.044-226.764-137.044-55.12 0-108.524 18.536-152.112 50.652 13.242-1.724 26.632-2.652 40.112-2.652 117.426 0 228.668 67.214 283.402 171.242 44.878 85.292 40.978 173.848 23.882 244.338 14.558-28.15 26.906-56.198 36.848-83.932 22.606-63.062 40.024-156.34-5.368-242.604z" />
<glyph unicode="&#xe90c;" horiz-adv-x="1059" d="M364.788 334.039c81.969 0 148.645 66.677 148.645 148.645s-66.677 148.645-148.645 148.645c-81.969 0-148.645-66.677-148.645-148.645s66.677-148.645 148.645-148.645zM332.236 371.811c2.329 15.956 15.97 28.292 32.553 28.292s30.224-12.337 32.553-28.292c-10.339-3.039-21.24-4.742-32.553-4.742s-22.214 1.702-32.553 4.742zM364.788 598.296c63.736 0 115.614-51.878 115.614-115.614 0-40.499-20.993-76.157-52.603-96.802-8.158 27.234-33.147 47.253-63.008 47.253s-54.851-20.019-63.008-47.253c-31.613 20.645-52.603 56.304-52.603 96.802 0 63.736 51.878 115.614 115.614 115.614z" />
<glyph unicode="&#xe90d;" glyph-name="image" d="M959.884 832c0.040-0.034 0.082-0.076 0.116-0.116v-767.77c-0.034-0.040-0.076-0.082-0.116-0.116h-895.77c-0.040 0.034-0.082 0.076-0.114 0.116v767.772c0.034 0.040 0.076 0.082 0.114 0.114h895.77zM960 896h-896c-35.2 0-64-28.8-64-64v-768c0-35.2 28.8-64 64-64h896c35.2 0 64 28.8 64 64v768c0 35.2-28.8 64-64 64v0zM832 672c0-53.020-42.98-96-96-96s-96 42.98-96 96 42.98 96 96 96 96-42.98 96-96zM896 128h-768v128l224 384 256-320h64l224 192z" />
<glyph unicode="&#xe90e;" glyph-name="images" horiz-adv-x="1152" d="M1088 832h-64v64c0 35.2-28.8 64-64 64h-896c-35.2 0-64-28.8-64-64v-768c0-35.2 28.8-64 64-64h64v-64c0-35.2 28.8-64 64-64h896c35.2 0 64 28.8 64 64v768c0 35.2-28.8 64-64 64zM128 768v-640h-63.886c-0.040 0.034-0.082 0.076-0.114 0.116v767.77c0.034 0.040 0.076 0.082 0.114 0.114h895.77c0.040-0.034 0.082-0.076 0.116-0.116v-63.884h-768c-35.2 0-64-28.8-64-64v0zM1088 0.116c-0.034-0.040-0.076-0.082-0.116-0.116h-895.77c-0.040 0.034-0.082 0.076-0.114 0.116v767.77c0.034 0.040 0.076 0.082 0.114 0.114h895.77c0.040-0.034 0.082-0.076 0.116-0.116v-767.768zM960 608c0-53.020-42.98-96-96-96s-96 42.98-96 96 42.98 96 96 96 96-42.98 96-96zM1024 64h-768v128l224 384 256-320h64l224 192z" />
<glyph unicode="&#xe90f;" glyph-name="camera" d="M304 352c0-114.876 93.124-208 208-208s208 93.124 208 208-93.124 208-208 208-208-93.124-208-208zM960 704h-224c-16 64-32 128-96 128h-256c-64 0-80-64-96-128h-224c-35.2 0-64-28.8-64-64v-576c0-35.2 28.8-64 64-64h896c35.2 0 64 28.8 64 64v576c0 35.2-28.8 64-64 64zM512 68c-156.85 0-284 127.148-284 284 0 156.85 127.15 284 284 284 156.852 0 284-127.15 284-284 0-156.852-127.146-284-284-284zM960 512h-128v64h128v-64z" />
<glyph unicode="&#xe910;" horiz-adv-x="1059" d="M546.465 631.33h247.742v-51.2h-247.742v51.2z" />
<glyph unicode="&#xe911;" horiz-adv-x="1059" d="M546.465 565.265h247.742v-51.2h-247.742v51.2z" />
<glyph unicode="&#xe912;" horiz-adv-x="1059" d="M546.465 499.2h247.742v-51.2h-247.742v51.2z" />
<glyph unicode="&#xe913;" horiz-adv-x="1059" d="M546.465 433.135h247.742v-51.2h-247.742v51.2z" />
<glyph unicode="&#xe914;" horiz-adv-x="1059" d="M546.465 367.070h247.742v-51.2h-247.742v51.2z" />
<glyph unicode="&#xe915;" horiz-adv-x="1059" d="M513.434 119.328h280.775v181.677h-280.775v-181.677zM546.465 267.974h214.71v-115.614h-214.71v115.614z" />
<glyph unicode="&#xe916;" horiz-adv-x="1059" d="M216.143 284.489h264.257v-51.2h-264.257v51.2z" />
<glyph unicode="&#xe917;" horiz-adv-x="1059" d="M216.143 218.424h264.257v-51.2h-264.257v51.2z" />
<glyph unicode="&#xe918;" horiz-adv-x="1059" d="M216.143 152.362h264.257v-51.2h-264.257v51.2z" />
<glyph unicode="&#xe919;" horiz-adv-x="1059" d="M975.886 796.491c36.436 0 66.065 29.629 66.065 66.065s-29.629 66.065-66.065 66.065c-30.702 0-56.335-21.124-63.719-49.549h-10.602v-33.031h10.602c7.383-28.423 33.017-49.549 63.719-49.549zM975.886 895.587c18.218 0 33.031-14.816 33.031-33.031s-14.816-33.031-33.031-33.031c-18.218 0-33.031 14.816-33.031 33.031s14.816 33.031 33.031 33.031z" />
<glyph unicode="&#xe91a;" horiz-adv-x="1059" d="M84.013 879.071c30.702 0 56.335 21.124 63.719 49.549h10.602v33.031h-10.602c-7.383 28.423-33.017 49.549-63.719 49.549-36.436 0-66.065-29.629-66.065-66.065s29.629-66.065 66.065-66.065zM84.013 978.167c18.218 0 33.031-14.816 33.031-33.031s-14.816-33.031-33.031-33.031c-18.218 0-33.031 14.816-33.031 33.031s14.816 33.031 33.031 33.031z" />
<glyph unicode="&#xe91b;" glyph-name="connection" horiz-adv-x="1280" d="M640 384c105.87 0 201.87-43.066 271.402-112.598l-90.468-90.468c-46.354 46.356-110.356 75.066-180.934 75.066s-134.578-28.71-180.934-75.066l-90.468 90.468c69.532 69.532 165.532 112.598 271.402 112.598zM187.452 452.548c120.88 120.88 281.598 187.452 452.548 187.452s331.668-66.572 452.55-187.452l-90.51-90.508c-96.706 96.704-225.28 149.96-362.040 149.96-136.762 0-265.334-53.256-362.038-149.962l-90.51 90.51zM988.784 825.562c106.702-45.132 202.516-109.728 284.782-191.996v0l-90.508-90.508c-145.056 145.056-337.92 224.942-543.058 224.942-205.14 0-398-79.886-543.058-224.942l-90.51 90.51c82.268 82.266 178.082 146.862 284.784 191.994 110.504 46.738 227.852 70.438 348.784 70.438s238.278-23.7 348.784-70.438zM576 64c0 35.346 28.654 64 64 64s64-28.654 64-64c0-35.346-28.654-64-64-64s-64 28.654-64 64z" />
<glyph unicode="&#xe91c;" horiz-adv-x="1059" d="M191.368 961.652h51.2v-51.2h-51.2v51.2z" />
<glyph unicode="&#xe91d;" horiz-adv-x="1059" d="M265.692 920.361h33.031v41.29h-41.29v-33.031h8.259z" />
<glyph unicode="&#xe91e;" horiz-adv-x="1059" d="M265.692 887.33h51.2v-51.2h-51.2v51.2z" />
<glyph unicode="&#xe91f;" horiz-adv-x="1059" d="M480.403 846.040h8.259v33.031h-41.29v-41.29h33.031z" />
<glyph unicode="&#xe920;" glyph-name="books" horiz-adv-x="1152" d="M224 832h-192c-17.6 0-32-14.4-32-32v-704c0-17.6 14.4-32 32-32h192c17.6 0 32 14.4 32 32v704c0 17.6-14.4 32-32 32zM192 640h-128v64h128v-64zM544 832h-192c-17.6 0-32-14.4-32-32v-704c0-17.6 14.4-32 32-32h192c17.6 0 32 14.4 32 32v704c0 17.6-14.4 32-32 32zM512 640h-128v64h128v-64zM765.088 782.52l-171.464-86.394c-15.716-7.918-22.096-27.258-14.178-42.976l287.978-571.548c7.918-15.718 27.258-22.098 42.976-14.178l171.464 86.392c15.716 7.92 22.096 27.26 14.178 42.974l-287.978 571.55c-7.92 15.718-27.26 22.1-42.976 14.18z" />
<glyph unicode="&#xe921;" horiz-adv-x="1059" d="M809.8 879.071h51.2v-51.2h-51.2v51.2z" />
<glyph unicode="&#xe922;" horiz-adv-x="1059" d="M534.575 879.071h51.2v-51.2h-51.2v51.2z" />
<glyph unicode="&#xe923;" horiz-adv-x="1059" d="M718.070 879.071h51.2v-51.2h-51.2v51.2z" />
<glyph unicode="&#xe924;" horiz-adv-x="1059" d="M626.288 879.071h51.2v-51.2h-51.2v51.2z" />
<glyph unicode="&#xe925;" horiz-adv-x="1080" d="M243.666 680.604c0 48.024-39.071 87.098-87.098 87.098s-87.098-39.071-87.098-87.098c0-48.024 39.071-87.098 87.098-87.098s87.098 39.071 87.098 87.098zM156.567 628.345c-28.812 0-52.259 23.447-52.259 52.259s23.447 52.259 52.259 52.259c28.812 0 52.259-23.447 52.259-52.259s-23.447-52.259-52.259-52.259z" />
<glyph unicode="&#xe926;" horiz-adv-x="1080" d="M278.505 332.211c0-9.615-7.805-17.42-17.42-17.42s-17.42 7.805-17.42 17.42v174.197h-34.839v-487.748c0-9.615-7.805-17.42-17.42-17.42s-17.42 7.805-17.42 17.42v243.875h-34.839v-243.875c0-9.615-7.805-17.42-17.42-17.42s-17.42 7.805-17.42 17.42v487.748h-34.839v-174.197c0-9.615-7.805-17.42-17.42-17.42s-17.42 7.805-17.42 17.42v164.649c0 34.074 27.733 61.804 61.804 61.804h120.264v34.839h-120.264c-53.303 0-96.643-43.34-96.643-96.643v-164.649c0-28.812 23.447-52.259 52.259-52.259 6.131 0 11.95 1.253 17.42 3.205v-264.5c0-28.812 23.447-52.259 52.259-52.259 13.432 0 25.573 5.244 34.839 13.588 9.267-8.362 21.408-13.588 34.839-13.588 28.812 0 52.259 23.447 52.259 52.259v264.5c5.47-1.952 11.288-3.205 17.42-3.205 28.812 0 52.259 23.447 52.259 52.259v98.526h-34.839v-98.526z" />
<glyph unicode="&#xe927;" horiz-adv-x="1080" d="M1010.128 680.604c0 48.024-39.071 87.098-87.098 87.098s-87.098-39.071-87.098-87.098c0-48.024 39.071-87.098 87.098-87.098s87.098 39.071 87.098 87.098zM923.029 628.345c-28.812 0-52.259 23.447-52.259 52.259s23.447 52.259 52.259 52.259c28.812 0 52.259-23.447 52.259-52.259s-23.447-52.259-52.259-52.259z" />
<glyph unicode="&#xe928;" horiz-adv-x="1080" d="M1027.547 279.952c28.812 0 52.259 23.447 52.259 52.259v164.649c0 53.303-43.34 96.643-96.643 96.643h-120.264c-53.303 0-96.643-43.34-96.643-96.643v-49.124l-17.959 17.959-24.63-24.63 61.16-61.16-48.845-48.845-61.16 61.16-24.63-24.63 11.549-11.549v-23.829c0-9.615-7.805-17.42-17.42-17.42s-17.42 7.805-17.42 17.42v17.42h-34.839v-330.974c0-9.615-7.805-17.42-17.42-17.42s-17.42 7.805-17.42 17.42v243.875h-34.839v-243.875c0-9.615-7.805-17.42-17.42-17.42s-17.42 7.805-17.42 17.42v330.974h-34.839v-17.42c0-9.615-7.805-17.42-17.42-17.42s-17.42 7.805-17.42 17.42v17.42h-34.839v-17.42c0-28.812 23.447-52.259 52.259-52.259 6.131 0 11.95 1.253 17.42 3.205v-264.5c0-28.812 23.447-52.259 52.259-52.259 13.432 0 25.573 5.244 34.839 13.588 9.267-8.362 21.408-13.588 34.839-13.588 28.812 0 52.259 23.447 52.259 52.259v264.5c5.47-1.952 11.288-3.205 17.42-3.205 25.399 0 46.563 18.22 51.25 42.258l15.781-15.781-36.652-36.652 24.63-24.63 24.404 24.404 112.198-112.198v-138.696c0-28.812 23.447-52.259 52.259-52.259 13.432 0 25.573 5.244 34.839 13.588 9.267-8.362 21.408-13.588 34.839-13.588 28.812 0 52.259 23.447 52.259 52.259v19.198c16.236 3.222 31.721 11.079 44.28 23.638 16.376 16.341 25.399 38.114 25.399 61.282s-9.023 44.924-25.399 61.299l-44.28 44.263v54.82c5.47-1.952 11.288-3.205 17.42-3.205zM888.19 1.241c-9.615 0-17.42 7.805-17.42 17.42v103.874l34.839-34.839v-69.035c0-9.615-7.805-17.42-17.42-17.42zM957.869 1.241c-9.615 0-17.42 7.805-17.42 17.42v35.779c10.54-8.136 22.368-13.745 34.839-16.341v-19.441c0-9.615-7.805-17.42-17.42-17.42zM1044.967 122.778c0-13.849-5.401-26.86-15.189-36.652-20.207-20.207-53.112-20.207-73.319 0l-208.093 208.058 73.336 73.336 208.076-208.093c9.789-9.789 15.189-22.82 15.189-36.652zM870.77 367.715v138.696h-34.839v-75.375l-26.495-26.495-8.344 8.362v83.963c0 34.074 27.733 61.804 61.804 61.804h120.264c34.074 0 61.804-27.733 61.804-61.804v-164.649c0-9.615-7.805-17.42-17.42-17.42s-17.42 7.805-17.42 17.42v174.197h-34.839v-243.228l-104.518 104.535z" />
<glyph unicode="&#xe929;" horiz-adv-x="1080" d="M711.557 820.814c-114.829 114.829-301.636 114.829-416.468 0s-114.829-301.654 0-416.485c57.416-57.416 132.808-86.106 208.233-86.106 75.41 0 150.82 28.691 208.233 86.106 114.811 114.811 114.811 301.654 0 416.485zM638.010 477.874c-74.4-74.383-194.995-74.383-269.393 0s-74.4 194.995 0 269.393c74.383 74.4 194.995 74.4 269.393 0s74.4-195.013 0-269.393z" />
<glyph unicode="&#xe92a;" horiz-adv-x="1080" d="M650.345 465.559c81.054 81.054 81.054 212.954 0 294.008-81.071 81.071-212.954 81.071-294.026 0-81.054-81.054-81.054-212.954 0-294.008 40.536-40.536 93.769-60.795 147.003-60.795s106.487 20.259 147.020 60.795zM380.949 734.937c33.743 33.743 78.058 50.603 122.373 50.603s88.647-16.88 122.373-50.603c67.466-67.483 67.466-177.262 0-244.745-67.466-67.466-177.297-67.466-244.763 0-67.448 67.483-67.448 177.262 0.017 244.745z" />
<glyph unicode="&#xe92b;" horiz-adv-x="1080" d="M522.38 471.568v17.42c38.427 0 69.679 31.252 69.679 69.679s-31.252 69.679-69.679 69.679h-34.839c-19.215 0-34.839 15.624-34.839 34.839s15.624 34.839 34.839 34.839h34.839c19.215 0 34.839-15.624 34.839-34.839v-17.42h34.839v17.42c0 38.427-31.252 69.679-69.679 69.679v17.42h-34.839v-17.42c-38.427 0-69.679-31.252-69.679-69.679s31.252-69.679 69.679-69.679h34.839c19.215 0 34.839-15.624 34.839-34.839s-15.624-34.839-34.839-34.839h-34.839c-19.215 0-34.839 15.624-34.839 34.839v17.42h-34.839v-17.42c0-38.427 31.252-69.679 69.679-69.679v-17.42h34.839z" />
<glyph unicode="&#xe92c;" horiz-adv-x="1061" d="M595.964 563.612h51.201v-51.201h-51.201v51.201z" />
<glyph unicode="&#xe92d;" horiz-adv-x="1061" d="M364.74 844.388c-49.003 0-89.698-35.79-97.611-82.58h-145.838c-56.997 0-103.39-46.393-103.39-103.39v-136.094c0-31.875 25.931-57.806 57.806-57.806 8.901 0 17.242 2.198 24.774 5.796v-245.28c0-31.875 25.931-57.806 57.806-57.806 16.187 0 30.786 6.723 41.292 17.475 10.506-10.752 25.105-17.475 41.292-17.475 8.901 0 17.242 2.198 24.774 5.796v-63.605c0-31.875 25.931-57.806 57.806-57.806 16.187 0 30.786 6.723 41.292 17.475 10.506-10.752 25.105-17.475 41.292-17.475 31.875 0 57.806 25.931 57.806 57.806h-33.032c0-13.658-11.116-24.774-24.774-24.774s-24.774 11.116-24.774 24.774v222.967h-33.032v-222.967c0-13.658-11.116-24.774-24.774-24.774s-24.774 11.116-24.774 24.774v454.194h-33.032v-156.904c0-13.658-11.116-24.774-24.774-24.774s-24.774 11.116-24.774 24.774v136.094c0 38.797 31.562 70.358 70.358 70.358h156.573v33.032h-144.351v25.435c17.556-15.756 40.662-25.435 66.063-25.435 54.653 0 99.098 44.444 99.098 99.098s-44.444 99.098-99.098 99.098zM240.868 348.902c8.901 0 17.242 2.198 24.774 5.796v-129.668c0-13.658-11.116-24.774-24.774-24.774s-24.774 11.116-24.774 24.774v129.668c7.532-3.601 15.873-5.796 24.774-5.796zM183.062 542.802v-317.769c0-13.658-11.116-24.774-24.774-24.774s-24.774 11.116-24.774 24.774v454.194h-33.032v-156.904c0-13.658-11.116-24.774-24.774-24.774s-24.774 11.116-24.774 24.774v136.094c0 38.797 31.562 70.358 70.358 70.358h145.855c3.186-18.861 11.693-35.89 23.948-49.549h-25.452v-35.129c-47.071-9.663-82.58-51.414-82.58-101.293zM364.74 679.227c-36.434 0-66.063 29.63-66.063 66.063s29.63 66.063 66.063 66.063c36.434 0 66.063-29.63 66.063-66.063s-29.63-66.063-66.063-66.063z" />
<glyph unicode="&#xe92e;" glyph-name="stack" d="M1024 640l-512 256-512-256 512-256 512 256zM512 811.030l342.058-171.030-342.058-171.030-342.058 171.030 342.058 171.030zM921.444 499.278l102.556-51.278-512-256-512 256 102.556 51.278 409.444-204.722zM921.444 307.278l102.556-51.278-512-256-512 256 102.556 51.278 409.444-204.722z" />
<glyph unicode="&#xe92f;" horiz-adv-x="1061" d="M430.803 563.612h51.201v-51.201h-51.201v51.201z" />
<glyph unicode="&#xe930;" horiz-adv-x="1061" d="M298.674 860.902c0 54.653-44.444 99.098-99.098 99.098s-99.098-44.444-99.098-99.098c0-54.653 44.444-99.098 99.098-99.098s99.098 44.444 99.098 99.098zM199.576 794.839c-36.434 0-66.063 29.63-66.063 66.063s29.63 66.063 66.063 66.063c36.434 0 66.063-29.63 66.063-66.063s-29.63-66.063-66.063-66.063z" />
<glyph unicode="&#xe931;" horiz-adv-x="1061" d="M959.32 860.902c0 54.653-44.444 99.098-99.098 99.098s-99.098-44.444-99.098-99.098c0-54.653 44.444-99.098 99.098-99.098s99.098 44.444 99.098 99.098zM860.223 794.839c-36.434 0-66.063 29.63-66.063 66.063s29.63 66.063 66.063 66.063c36.434 0 66.063-29.63 66.063-66.063s-29.63-66.063-66.063-66.063z" />
<glyph unicode="&#xe932;" horiz-adv-x="1061" d="M938.511 761.807h-145.838c-7.896 46.791-48.591 82.58-97.611 82.58-54.653 0-99.098-44.444-99.098-99.098s44.444-99.098 99.098-99.098c25.402 0 48.507 9.68 66.063 25.435v-25.435h-144.351v-33.032h156.573c38.797 0 70.358-31.562 70.358-70.358v-136.094c0-13.658-11.116-24.774-24.774-24.774s-24.774 11.116-24.774 24.774v156.904h-33.032v-454.194c0-13.658-11.116-24.774-24.774-24.774s-24.774 11.116-24.774 24.774v222.967h-33.032v-222.967c0-13.658-11.116-24.774-24.774-24.774s-24.774 11.116-24.774 24.774h-33.032c0-31.875 25.931-57.806 57.806-57.806 16.187 0 30.786 6.723 41.292 17.475 10.506-10.752 25.105-17.475 41.292-17.475 31.875 0 57.806 25.931 57.806 57.806v63.605c7.532-3.601 15.873-5.796 24.774-5.796 16.187 0 30.786 6.723 41.292 17.475 10.506-10.752 25.105-17.475 41.292-17.475 31.875 0 57.806 25.931 57.806 57.806v245.28c7.532-3.601 15.873-5.796 24.774-5.796 31.875 0 57.806 25.931 57.806 57.806v136.094c0 56.997-46.393 103.39-103.39 103.39zM695.062 679.227c-36.434 0-66.063 29.63-66.063 66.063s29.63 66.063 66.063 66.063c36.434 0 66.063-29.63 66.063-66.063s-29.63-66.063-66.063-66.063zM818.934 200.259c-13.658 0-24.774 11.116-24.774 24.774v129.668c7.532-3.601 15.873-5.796 24.774-5.796s17.242 2.198 24.774 5.796v-129.668c0-13.658-11.116-24.774-24.774-24.774zM1008.869 522.323c0-13.658-11.116-24.774-24.774-24.774s-24.774 11.116-24.774 24.774v156.904h-33.032v-454.194c0-13.658-11.116-24.774-24.774-24.774s-24.774 11.116-24.774 24.774v317.769c0 49.879-35.51 91.633-82.58 101.276v35.146h-25.435c12.256 13.658 20.762 30.688 23.948 49.549h145.855c38.797 0 70.358-31.562 70.358-70.358v-136.094h-0.017z" />
<glyph unicode="&#xe933;" horiz-adv-x="1061" d="M628.996 629.678c0 54.653-44.444 99.098-99.098 99.098s-99.098-44.444-99.098-99.098c0-54.653 44.444-99.098 99.098-99.098s99.098 44.444 99.098 99.098z" />
<glyph unicode="&#xe934;" horiz-adv-x="1061" d="M608.186 530.58h-156.573c-56.997 0-103.39-46.393-103.39-103.39v-136.094c0-31.875 25.931-57.806 57.806-57.806 8.901 0 17.242 2.198 24.774 5.796v-245.28c0-31.875 25.931-57.806 57.806-57.806 16.187 0 30.786 6.723 41.292 17.475 10.506-10.752 25.105-17.475 41.292-17.475 31.875 0 57.806 25.931 57.806 57.806v245.28c7.532-3.601 15.873-5.796 24.774-5.796 31.875 0 57.806 25.931 57.806 57.806v136.094c0 56.997-46.393 103.39-103.39 103.39z" />
<glyph unicode="&#xe935;" glyph-name="price-tag" d="M976 960h-384c-26.4 0-63.274-15.274-81.942-33.942l-476.116-476.116c-18.668-18.668-18.668-49.214 0-67.882l412.118-412.118c18.668-18.668 49.214-18.668 67.882 0l476.118 476.118c18.666 18.666 33.94 55.54 33.94 81.94v384c0 26.4-21.6 48-48 48zM736 576c-53.020 0-96 42.98-96 96s42.98 96 96 96 96-42.98 96-96-42.98-96-96-96z" />
<glyph unicode="&#xe936;" horiz-adv-x="1117" d="M396.437 434.53h-252.227v216.193h252.227z" />
<glyph unicode="&#xe937;" horiz-adv-x="1117" d="M684.694 434.53h-252.227v216.193h252.227z" />
<glyph unicode="&#xe938;" horiz-adv-x="1117" d="M972.955 434.53h-252.227v216.193h252.227z" />
<glyph unicode="&#xe939;" horiz-adv-x="1117" d="M1045.019 866.916h-972.874c-39.745 0-72.064-32.32-72.064-72.064v-648.583c0-39.745 32.32-72.064 72.064-72.064h324.291v-90.080h-126.113v-36.034h576.518v36.034h-126.113v90.080h324.291c39.745 0 72.064 32.32 72.064 72.064v648.583c0 39.745-32.32 72.064-72.064 72.064zM684.694-15.875h-252.227v90.080h252.227v-90.080zM1081.050 146.269c0-19.872-16.161-36.034-36.034-36.034h-972.874c-19.872 0-36.034 16.161-36.034 36.034v648.583c0 19.872 16.161 36.034 36.034 36.034h972.874c19.872 0 36.034-16.161 36.034-36.034v-648.583z" />
<glyph unicode="&#xe93a;" glyph-name="cart" d="M384 32c0-53.019-42.981-96-96-96s-96 42.981-96 96c0 53.019 42.981 96 96 96s96-42.981 96-96zM1024 32c0-53.019-42.981-96-96-96s-96 42.981-96 96c0 53.019 42.981 96 96 96s96-42.981 96-96zM1024 448v384h-768c0 35.346-28.654 64-64 64h-192v-64h128l48.074-412.054c-29.294-23.458-48.074-59.5-48.074-99.946 0-70.696 57.308-128 128-128h768v64h-768c-35.346 0-64 28.654-64 64 0 0.218 0.014 0.436 0.016 0.656l831.984 127.344z" />
<glyph unicode="&#xe93b;" glyph-name="coin-dollar" d="M480 896c-265.096 0-480-214.904-480-480 0-265.098 214.904-480 480-480 265.098 0 480 214.902 480 480 0 265.096-214.902 480-480 480zM480 32c-212.078 0-384 171.922-384 384s171.922 384 384 384c212.078 0 384-171.922 384-384s-171.922-384-384-384zM512 448v128h128v64h-128v64h-64v-64h-128v-256h128v-128h-128v-64h128v-64h64v64h128.002l-0.002 256h-128zM448 448h-64v128h64v-128zM576.002 256h-64.002v128h64.002v-128z" />
<glyph unicode="&#xe93c;" horiz-adv-x="1117" d="M72.146 146.269h972.874v648.583h-972.874v-648.583zM108.176 758.821h900.809v-576.518h-900.809v576.518z" />
<glyph unicode="&#xe93d;" horiz-adv-x="1117" d="M218.080 704.772c0-30.85-25.008-55.855-55.855-55.855s-55.855 25.008-55.855 55.855c0 30.85 25.008 55.855 55.855 55.855s55.855-25.008 55.855-55.855z" />
<glyph unicode="&#xe93e;" horiz-adv-x="1117" d="M272.129 704.772c0-30.85-25.008-55.855-55.855-55.855s-55.855 25.008-55.855 55.855c0 30.85 25.008 55.855 55.855 55.855s55.855-25.008 55.855-55.855z" />
<glyph unicode="&#xe93f;" horiz-adv-x="1117" d="M326.178 704.772c0-30.85-25.008-55.855-55.855-55.855s-55.855 25.008-55.855 55.855c0 30.85 25.008 55.855 55.855 55.855s55.855-25.008 55.855-55.855z" />
<glyph unicode="&#xe940;" horiz-adv-x="1117" d="M144.21 398.496h540.484v-55.855h-540.484v55.855z" />
<glyph unicode="&#xe941;" horiz-adv-x="1117" d="M144.21 326.432h540.484v-55.855h-540.484v55.855z" />
<glyph unicode="&#xe942;" horiz-adv-x="1117" d="M144.21 254.367h540.484v-55.855h-540.484v55.855z" />
<glyph unicode="&#xe943;" horiz-adv-x="1117" d="M738.743 398.496h234.212v-55.855h-234.212v55.855z" />
<glyph unicode="&#xe944;" horiz-adv-x="1117" d="M738.743 326.432h234.212v-55.855h-234.212v55.855z" />
<glyph unicode="&#xe945;" horiz-adv-x="1117" d="M738.743 254.367h234.212v-55.855h-234.212v55.855z" />
<glyph unicode="&#xe946;" glyph-name="arrow-right" d="M0.001 504.889h807.822l-204.8 204.8 79.644 79.644 341.333-341.333-341.333-341.333-79.644 79.644 204.8 204.8h-807.822z" />
<glyph unicode="&#xe947;" glyph-name="location" d="M512 960c-176.732 0-320-143.268-320-320 0-320 320-704 320-704s320 384 320 704c0 176.732-143.27 320-320 320zM512 448c-106.040 0-192 85.96-192 192s85.96 192 192 192 192-85.96 192-192-85.96-192-192-192z" />
<glyph unicode="&#xe948;" glyph-name="instagram-old" d="M131.434 959.999h761.131c72.283 0 131.424-53.516 131.424-131.424v-761.152c0-77.908-59.141-131.424-131.424-131.424h-761.131c-72.304 0-131.434 53.516-131.434 131.424v761.152c0 77.908 59.13 131.424 131.434 131.424v0zM745.939 846.229c-25.359 0-46.082-20.733-46.082-46.103v-110.343c0-25.359 20.723-46.103 46.082-46.103h115.737c25.359 0 46.103 20.744 46.103 46.103v110.343c0 25.37-20.744 46.103-46.103 46.103h-115.737zM908.263 526.954h-90.125c8.527-27.841 13.142-57.332 13.142-87.844 0-170.325-142.526-308.393-318.308-308.393-175.771 0-318.276 138.068-318.276 308.393 0 30.532 4.605 60.013 13.142 87.844h-94.047v-432.552c0-22.384 18.315-40.71 40.71-40.71h713.072c22.395 0 40.71 18.315 40.71 40.71v432.552h-0.021zM512.962 649.493c-113.571 0-205.652-89.21-205.652-199.27s92.081-199.27 205.652-199.27c113.582 0 205.673 89.21 205.673 199.27s-92.081 199.27-205.673 199.27z" />
<glyph unicode="&#xe949;" glyph-name="compass" d="M544.010-64.004c-2.296 0-4.622 0.25-6.94 0.764-14.648 3.25-25.070 16.238-25.070 31.24v480h-480c-15.002 0-27.992 10.422-31.24 25.070-3.25 14.646 4.114 29.584 17.708 35.928l960 448c12.196 5.688 26.644 3.144 36.16-6.372 9.516-9.514 12.060-23.966 6.372-36.16l-448-960c-5.342-11.44-16.772-18.47-28.99-18.47zM176.242 512h367.758c17.674 0 32-14.328 32-32v-367.758l349.79 749.546-749.548-349.788z" />
<glyph unicode="&#xe94a;" glyph-name="speaker" d="M665.389 951.064c-21.725 12.287-47.457 11.886-68.781-0.979-1.024-0.601-2.003-1.313-2.894-2.070l-301.637-255.159h-236.684c-12.309 0-22.259-9.95-22.259-22.259v-422.93c0-5.921 2.337-11.575 6.522-15.737s9.816-6.522 15.737-6.522l236.172 0.111 301.459-276.907c1.113-1.024 2.315-1.914 3.584-2.671 10.951-6.611 23.083-9.927 35.215-9.927 11.508 0.022 22.993 2.983 33.567 8.948 22.237 12.554 35.526 35.504 35.526 61.347v883.41c0 25.844-13.289 48.77-35.526 61.347zM656.397 6.306c0-9.594-4.83-18.030-12.888-22.593-3.45-1.937-12.198-5.676-22.259-0.579l-298.743 274.436v101.414c0 12.309-9.95 22.259-22.259 22.259s-22.259-9.95-22.259-22.259v-88.949l-200.334-0.089v378.41h200.334v-89.038c0-12.309 9.95-22.259 22.259-22.259s22.259 9.95 22.259 22.259v100.969l298.387 252.421c10.261 5.387 19.143 1.558 22.615-0.401 8.058-4.563 12.888-12.999 12.888-22.593v-883.41zM773.86 747.656c-11.842 3.361-24.152-3.383-27.558-15.225-3.406-11.797 3.383-24.152 15.225-27.558 108.826-31.453 184.842-132.51 184.842-245.744s-76.016-214.292-184.842-245.744c-11.819-3.406-18.631-15.759-15.225-27.558 2.827-9.749 11.708-16.093 21.391-16.093 2.048 0 4.118 0.289 6.166 0.868 127.769 36.951 217.007 155.593 217.007 288.526s-89.238 251.575-217.007 288.526z" />
<glyph unicode="&#xe94b;" glyph-name="smartphone" d="M713.324 960h-402.669c-40.787 0-73.858-33.071-73.858-73.858v-876.284c0-40.798 33.060-73.858 73.858-73.858h402.669c40.809 0 73.88 33.060 73.88 73.858v876.284c-0.011 40.787-33.071 73.858-73.88 73.858zM462.58 916.334h98.818c3.55 0 6.441-2.891 6.441-6.452 0-3.55-2.891-6.441-6.441-6.441h-98.818c-3.561 0-6.441 2.891-6.441 6.441 0 3.561 2.891 6.452 6.441 6.452zM364.081 931.831c5.693 0 10.309-4.616 10.309-10.309s-4.605-10.309-10.309-10.309-10.309 4.616-10.309 10.309c0 5.693 4.616 10.309 10.309 10.309zM317.37 938.007c9.111 0 16.486-7.386 16.486-16.486s-7.375-16.486-16.486-16.486-16.486 7.386-16.486 16.486c0 9.1 7.375 16.486 16.486 16.486zM537.779-26.51h-51.558c-16.354 0-29.598 13.244-29.598 29.576 0 16.343 13.244 29.587 29.598 29.587h51.558c16.354 0 29.598-13.244 29.598-29.587 0-16.332-13.244-29.576-29.598-29.576zM755.913 56.030h-487.837v783.95h487.837v-783.95z" />
<glyph unicode="&#xe94c;" glyph-name="docs" d="M882.478 684.688l-269.384 269.384c-3.796 3.796-8.942 5.928-14.312 5.928h-379.586c-46.098 0-83.6-37.502-83.6-83.6v-856.8c0-46.098 37.502-83.6 83.6-83.6h585.608c46.098 0 83.6 37.502 83.6 83.6v650.778c0 5.366-2.132 10.516-5.926 14.31zM619.022 890.902l200.286-200.282h-157.164c-23.778 0-43.12 19.344-43.12 43.124v157.158zM847.928 19.6c0-23.778-19.344-43.124-43.124-43.124h-585.608c-23.778 0-43.124 19.346-43.124 43.124v856.8c0 23.778 19.346 43.124 43.124 43.124h359.348v-185.784c0-46.098 37.5-83.6 83.598-83.6h185.786v-630.54zM673.898 445.976h-323.796c-11.176 0-20.238-9.062-20.238-20.238s9.062-20.238 20.238-20.238h323.796c11.18 0 20.238 9.062 20.238 20.238s-9.058 20.238-20.238 20.238zM673.898 355.584h-323.796c-11.176 0-20.238-9.062-20.238-20.238s9.062-20.238 20.238-20.238h323.796c11.18 0 20.238 9.062 20.238 20.238s-9.058 20.238-20.238 20.238zM673.898 265.192h-323.796c-11.176 0-20.238-9.062-20.238-20.238s9.062-20.238 20.238-20.238h323.796c11.18 0 20.238 9.062 20.238 20.238s-9.058 20.238-20.238 20.238zM568.664 174.798h-218.562c-11.176 0-20.238-9.062-20.238-20.238s9.062-20.238 20.238-20.238h218.562c11.18 0 20.238 9.062 20.238 20.238s-9.058 20.238-20.238 20.238z" />
<glyph unicode="&#xe94d;" glyph-name="question" d="M956.656 592.361h-355.051c-15.8 55.022-46.824 105.186-90.266 144.084-65.844 58.962-150.892 86.032-239.498 76.238-142.1-15.718-255.746-130.424-270.223-272.745-7.906-77.692 13.34-154.502 59.818-216.28 44.542-59.2 108.458-100.126 180.406-115.632l75.69-75.688c6.354-6.356 14.79-9.722 23.396-9.72 4.276 0 8.592 0.832 12.716 2.54 12.428 5.148 20.454 17.164 20.454 30.614v52.99c12.446 2.782 24.57 6.31 36.344 10.514v-2.1c0-37.132 30.21-67.342 67.342-67.342h113.078l60.238-60.238c5.388-5.388 12.538-8.242 19.832-8.242 3.624 0 7.282 0.706 10.778 2.152 10.534 4.364 17.34 14.55 17.34 25.952v40.376h257.609c37.132 0 67.342 30.21 67.342 67.342v307.847c-0.002 37.128-30.212 67.338-67.344 67.338zM355.249 237.673c-7.65-1.364-13.218-8.014-13.218-15.784v-66.12c0-0.382 0-0.714-0.66-0.988-0.66-0.27-0.892-0.038-1.166 0.23l-79.078 79.078c-2.242 2.242-5.1 3.772-8.212 4.388-66.168 13.15-125.070 50.248-165.856 104.458-41.61 55.308-60.626 124.118-53.542 193.756 6.242 61.37 34.028 119.746 78.238 164.38 44.218 44.64 102.32 72.958 163.61 79.736 10.664 1.18 21.256 1.764 31.77 1.764 67.786 0 131.768-24.308 182.81-70.014 58.164-52.084 91.522-126.7 91.522-204.718 0.002-133.164-95.136-246.784-226.218-270.165zM991.929 217.173c0-19.45-15.824-35.274-35.274-35.274h-273.641c-8.854 0-16.034-7.178-16.034-16.034v-46.806l-58.142 58.142c-3.006 3.008-7.084 4.696-11.336 4.696h-119.718c-19.45 0-35.274 15.824-35.274 35.274v15.636c102.64 50.448 171.026 155.712 171.026 275.029 0 17.704-1.562 35.244-4.56 52.456h347.681c19.45 0 35.274-15.824 35.274-35.274v-307.845zM899.582 467.947c-6.26 6.262-16.412 6.262-22.674 0l-159.69-159.69-74.138 74.138c-6.262 6.262-16.414 6.262-22.674 0-6.262-6.262-6.262-16.414 0-22.674l85.474-85.474c3.13-3.13 7.234-4.696 11.336-4.696s8.208 1.564 11.338 4.696l171.026 171.026c6.264 6.262 6.264 16.414 0.002 22.674zM306.769 387.073c-0.006 0-0.014 0-0.022 0-8.854 0-16.044-7.19-16.044-16.044 0-0.002 0-0.006 0-0.010s0-0.006 0-0.010c0-8.854 7.19-16.044 16.044-16.044 0.006 0 0.016 0 0.022 0 8.854 0 16.044 7.19 16.044 16.044 0 0.002 0 0.006 0 0.010s0 0.006 0 0.010c0 8.854-7.19 16.044-16.044 16.044zM378.187 630.575c-19.424 19.424-44.794 30.12-71.438 30.118-55.988-0.004-101.538-45.56-101.538-101.546 0-8.854 7.178-16.034 16.034-16.034 8.854 0 16.034 7.178 16.034 16.034 0 38.308 31.166 69.478 69.474 69.48 18.078 0 35.394-7.358 48.76-20.724s20.726-30.684 20.726-48.762c-0.002-30.454-20.352-57.822-49.484-66.558-21.552-6.462-36.028-25.772-36.028-48.048v-5.108c0-8.854 7.178-16.034 16.034-16.034 8.854 0 16.034 7.178 16.034 16.034v5.108c0 8.004 5.294 14.97 13.174 17.332 42.59 12.772 72.338 52.77 72.34 97.272-0.002 26.642-10.698 52.014-30.122 71.436z" />
<glyph unicode="&#xe94e;" glyph-name="clock" d="M658.744 210.744l-210.744 210.746v282.51h128v-229.49l173.256-173.254zM512 960c-282.77 0-512-229.23-512-512s229.23-512 512-512 512 229.23 512 512-229.23 512-512 512zM512 64c-212.078 0-384 171.922-384 384s171.922 384 384 384c212.078 0 384-171.922 384-384s-171.922-384-384-384z" />
<glyph unicode="&#xe94f;" glyph-name="clock2" d="M512 960c-282.77 0-512-229.23-512-512s229.23-512 512-512 512 229.23 512 512-229.23 512-512 512zM658.744 210.744l-210.744 210.746v282.51h128v-229.49l173.256-173.254-90.512-90.512z" />
<glyph unicode="&#xe950;" glyph-name="calendar-month" d="M929.589 867.040h-139.438v69.719c0 12.846-10.395 23.24-23.24 23.24s-23.24-10.395-23.24-23.24v-69.719h-418.315v69.719c0 12.846-10.395 23.24-23.238 23.24s-23.24-10.395-23.24-23.24v-69.719h-185.917c-51.246 0-92.96-41.69-92.96-92.957v-743.67c0-51.268 41.714-92.96 92.96-92.96h673.953c6.037 0 11.983 2.36 16.432 6.809l232.398 232.398c4.432 4.449 5.9 10.386 5.907 16.432h0.902v580.991c-0.004 51.268-41.716 92.957-92.962 92.957zM790.151 16.794v106.577c0 25.622 20.835 46.479 46.479 46.479h106.577l-153.055-153.055zM976.068 216.33h-139.438c-51.246 0-92.96-41.69-92.96-92.96v-139.438h-650.711c-25.646 0-46.479 20.857-46.479 46.479v557.753h929.587v-371.834zM976.068 634.645h-929.589v139.438c0 25.622 20.835 46.479 46.481 46.479h185.917v-46.479c-25.646 0-46.479-20.857-46.479-46.479s20.833-46.481 46.479-46.481c25.646 0 46.479 20.857 46.479 46.479v92.96h418.315v-46.479c-25.646 0-46.479-20.857-46.479-46.479s20.835-46.481 46.479-46.481c25.644 0 46.479 20.857 46.479 46.479v92.96h139.438c25.648 0 46.481-20.857 46.481-46.479v-139.438zM418.315 169.849c-25.646 0-46.479 20.857-46.479 46.479 0 12.846-10.395 23.24-23.24 23.24s-23.24-10.395-23.24-23.24c0-51.268 41.714-92.957 92.96-92.957s92.96 41.69 92.96 92.96c0 27.733-12.21 52.675-31.546 69.719 19.336 17.044 31.546 41.986 31.546 69.719 0 51.268-41.714 92.96-92.96 92.96s-92.96-41.69-92.96-92.96c0-12.846 10.395-23.24 23.24-23.24s23.24 10.395 23.24 23.24c0 25.622 20.835 46.479 46.479 46.479 25.646 0 46.479-20.857 46.479-46.479s-20.835-46.479-46.479-46.479c-12.846 0-23.24-10.395-23.24-23.24s10.395-23.24 23.24-23.24c25.646 0 46.479-20.857 46.479-46.479s-20.833-46.481-46.479-46.481zM581.037 402.201c0 0 7.732 0.007 23.195 0.022v-255.614c0-12.846 10.395-23.24 23.24-23.24s23.24 10.395 23.24 23.24v278.877c0 6.172-2.451 12.074-6.809 16.432s-10.257 6.809-16.432 6.809c0 0-15.478-0.015-46.435-0.046-12.846-0.022-23.24-10.416-23.24-23.262 0.002-12.822 10.397-23.216 23.24-23.216z" />
<glyph unicode="&#xe951;" glyph-name="calendar" d="M929.589 867.040h-139.438v69.719c0 12.846-10.395 23.24-23.24 23.24s-23.24-10.395-23.24-23.24v-69.719h-418.315v69.719c0 12.846-10.395 23.24-23.238 23.24s-23.24-10.395-23.24-23.24v-69.719h-185.917c-51.246 0-92.96-41.69-92.96-92.957v-743.67c0-51.268 41.714-92.96 92.96-92.96h673.953c6.037 0 11.983 2.36 16.432 6.809l232.398 232.398c4.432 4.449 5.9 10.386 5.907 16.432h0.902v580.991c-0.004 51.268-41.716 92.957-92.962 92.957zM790.151 16.794v106.577c0 25.622 20.835 46.479 46.479 46.479h106.577l-153.055-153.055zM976.068 216.33h-139.438c-51.246 0-92.96-41.69-92.96-92.96v-139.438h-650.711c-25.646 0-46.479 20.857-46.479 46.479v557.753h929.587v-371.834zM976.068 634.645h-929.589v139.438c0 25.622 20.835 46.479 46.481 46.479h185.917v-46.479c-25.646 0-46.479-20.857-46.479-46.479s20.833-46.481 46.479-46.481c25.646 0 46.479 20.857 46.479 46.479v92.96h418.315v-46.479c-25.646 0-46.479-20.857-46.479-46.479s20.835-46.481 46.479-46.481c25.644 0 46.479 20.857 46.479 46.479v92.96h139.438c25.648 0 46.481-20.857 46.481-46.479v-139.438zM413.966 424.996c0 15.319 8.581 22.979 25.745 22.979h146.383c11.773 0 19.504-3.794 23.191-11.383s2.908-16.986-2.34-28.191l-107.234-239.362c-8.369-18.865-19.787-25.532-34.255-20-6.383 2.411-10.39 6.915-12.021 13.511s-0.532 14.291 3.298 23.085l98.511 216.17h-115.532c-8.369 0-14.752 2.021-19.149 6.064s-6.596 9.752-6.596 17.128z" />
<glyph unicode="&#xe952;" glyph-name="clock3" horiz-adv-x="1365" d="M853.292 959.876c-282.239 0-511.876-229.638-511.876-511.876s229.638-511.876 511.876-511.876c282.239 0 511.876 229.638 511.876 511.876s-229.638 511.876-511.876 511.876zM853.292-7.002c-250.883 0-455.002 204.119-455.002 455.002s204.119 455.002 455.002 455.002c250.883 0 455.002-204.119 455.002-455.002s-204.119-455.002-455.002-455.002zM57.039 448c0 107.614 38.519 212.17 108.446 294.401 10.166 11.941 8.721 29.91-3.25 40.073-11.885 10.137-29.91 8.777-40.073-3.25-78.674-92.477-121.998-210.114-121.998-331.224s43.323-238.747 121.998-331.227c5.639-6.638 13.637-10.025 21.662-10.025 6.526 0 13.080 2.22 18.412 6.777 11.97 10.166 13.413 28.132 3.25 40.073-69.927 82.231-108.446 186.787-108.446 294.401zM227.665 448c0 107.614 38.519 212.17 108.446 294.401 10.166 11.941 8.721 29.91-3.25 40.073-11.914 10.137-29.937 8.777-40.073-3.25-78.674-92.477-121.998-210.114-121.998-331.224s43.323-238.747 121.998-331.227c5.639-6.638 13.637-10.025 21.662-10.025 6.526 0 13.080 2.22 18.412 6.777 11.97 10.166 13.413 28.132 3.25 40.073-69.927 82.231-108.446 186.787-108.446 294.401zM907.362 434.142c1.176 4.551 2.804 8.945 2.804 13.858 0 20.774-11.754 38.202-28.438 48.129v264.683c0 15.719-12.72 28.438-28.438 28.438s-28.438-12.72-28.438-28.438v-264.683c-16.684-9.929-28.438-27.358-28.438-48.129 0-31.352 25.522-56.874 56.874-56.874 4.911 0 9.307 1.629 13.858 2.804l136.66-136.66c5.554-5.554 12.832-8.331 20.107-8.331s14.551 2.778 20.107 8.331c11.109 11.109 11.109 29.105 0 40.211l-136.658 136.66z" />
<glyph unicode="&#xe953;" glyph-name="smartphone2" horiz-adv-x="614" d="M438.394 895.574c0-18.851-15.282-34.133-34.133-34.133s-34.133 15.282-34.133 34.133c0 18.851 15.282 34.133 34.133 34.133s34.133-15.282 34.133-34.133zM86.382 677.847c0-18.851-15.282-34.133-34.133-34.133s-34.133 15.282-34.133 34.133c0 18.851 15.282 34.133 34.133 34.133s34.133-15.282 34.133-34.133zM86.382 751.151c0-18.851-15.282-34.133-34.133-34.133s-34.133 15.282-34.133 34.133c0 18.851 15.282 34.133 34.133 34.133s34.133-15.282 34.133-34.133zM340.092 911.344h-58.564c-8.71 0-15.77-7.060-15.77-15.77s7.060-15.77 15.77-15.77h58.564c8.71 0 15.77 7.060 15.77 15.77s-7.060 15.77-15.77 15.77zM403.406 606.423c-7.876 3.712-17.274 0.334-20.988-7.544l-110.854-235.343c-3.714-7.88-0.334-17.276 7.544-20.988 2.172-1.022 4.46-1.508 6.71-1.508 5.916 0 11.588 3.346 14.278 9.054l110.858 235.343c3.71 7.88 0.33 17.274-7.548 20.986zM546.101 960.002h-480.204c-36.214 0-65.676-29.464-65.676-65.678v-892.643c0-36.216 29.462-65.678 65.676-65.678h480.202c36.216 0 65.678 29.464 65.678 65.678v892.643c0.002 36.214-29.462 65.678-65.676 65.678zM103.663 894.324c0 18.826 15.314 34.138 34.134 34.138h408.3c18.826 0 34.138-15.316 34.138-34.138v-37.886h-476.572v37.886zM81.715-32.462h-15.818c-18.824 0-34.136 15.316-34.136 34.138v892.647c0 18.826 15.314 34.138 34.136 34.138h15.818c-6.080-9.954-9.59-21.644-9.59-34.138v-892.643c-0.002-12.498 3.508-24.188 9.59-34.142zM103.663 824.897h476.574v-684.347h-476.574v684.347zM580.239 1.676c0-18.826-15.314-34.138-34.138-34.138h-408.3c-18.822 0-34.134 15.316-34.134 34.138v107.332h476.574v-107.332h-0.002zM341.952-24.038c33.43 0 60.63 27.2 60.63 60.632s-27.2 60.632-60.63 60.632c-33.432 0-60.634-27.2-60.634-60.632-0.002-33.432 27.198-60.632 60.634-60.632zM341.952 65.687c16.042 0 29.090-13.052 29.090-29.092s-13.050-29.092-29.090-29.092c-16.044 0-29.094 13.052-29.094 29.092s13.050 29.092 29.094 29.092zM537.907 493.326l-103.294 55.314c-7.686 4.112-17.238 1.22-21.346-6.458-4.112-7.682-1.222-17.238 6.456-21.35l77.332-41.412-77.332-41.412c-7.676-4.11-10.568-13.67-6.456-21.346 2.842-5.31 8.286-8.328 13.916-8.328 2.51 0 5.062 0.602 7.43 1.872l103.294 55.314c5.126 2.746 8.324 8.088 8.324 13.902s-3.198 11.156-8.324 13.904zM262.198 438.006l-77.332 41.412 77.332 41.412c7.676 4.112 10.568 13.67 6.458 21.346-4.112 7.678-13.67 10.57-21.346 6.458l-103.294-55.314c-5.126-2.746-8.326-8.088-8.326-13.902 0.002-5.81 3.2-11.152 8.326-13.898l103.294-55.314c2.37-1.27 4.918-1.872 7.43-1.872 5.626 0 11.072 3.022 13.916 8.328 4.11 7.674 1.218 17.234-6.458 21.344z" />
<glyph unicode="&#xe954;" glyph-name="monitor" horiz-adv-x="1195" d="M1101.648 960.003h-1033.091c-19.254 0-37.598-10.586-51.651-29.808-11.824-16.17-18.883-36.61-18.883-54.681v-662.972c0-38.891 31.64-70.532 70.535-70.532h56.63c0.016 0 0.032-0.002 0.046-0.002h276.257l-57.655-182.308c-0.209-0.66-0.378-1.334-0.512-2.023-0.032-0.159-0.046-0.316-0.073-0.473-0.082-0.491-0.151-0.981-0.191-1.484-0.023-0.252-0.027-0.505-0.039-0.76-0.009-0.255-0.039-0.507-0.039-0.766 0-0.163 0.018-0.319 0.025-0.477 0.007-0.264 0.023-0.528 0.039-0.789 0.030-0.431 0.075-0.856 0.133-1.277 0.032-0.225 0.064-0.451 0.103-0.676 0.087-0.489 0.198-0.963 0.323-1.436 0.043-0.161 0.078-0.323 0.123-0.482 0.383-1.302 0.906-2.543 1.555-3.706 0.071-0.128 0.154-0.25 0.227-0.376 0.262-0.444 0.539-0.878 0.837-1.298 0.053-0.075 0.094-0.159 0.149-0.23 0.075-0.103 0.168-0.195 0.246-0.296 0.278-0.358 0.564-0.708 0.867-1.045 0.154-0.17 0.3-0.342 0.459-0.505 0.337-0.351 0.692-0.685 1.059-1.009 0.126-0.112 0.246-0.234 0.376-0.342 0.505-0.422 1.032-0.819 1.582-1.186 0.075-0.050 0.156-0.091 0.23-0.139 0.48-0.31 0.972-0.599 1.482-0.865 0.159-0.082 0.321-0.154 0.477-0.23 0.442-0.214 0.89-0.41 1.348-0.589 0.184-0.071 0.367-0.135 0.553-0.202 0.451-0.159 0.913-0.296 1.379-0.417 0.193-0.050 0.38-0.103 0.576-0.149 0.487-0.11 0.977-0.195 1.475-0.264 0.177-0.025 0.351-0.059 0.532-0.080 0.669-0.075 1.348-0.121 2.037-0.121h267.098c0.018 0 0.039-0.005 0.057-0.005s0.041 0.005 0.059 0.005h90.116c10.047 0 18.193 8.146 18.193 18.193s-8.146 18.193-18.193 18.193h-64.95l56.456 169.62h391.636c38.891 0 70.532 31.64 70.532 70.535v676.925c0.002 38.891-31.635 70.53-70.53 70.53zM34.407 212.543v662.972c0 19.449 14.43 42.043 28.572 47.069-5.274-9.88-8.278-21.149-8.278-33.11v-676.931c0-12.198 3.114-23.68 8.586-33.7-16.328 2.547-28.879 16.668-28.879 33.7zM615.208-27.609h-229.202l53.644 169.62h232.018l-56.46-169.62zM1135.798 212.543c0-18.832-15.316-34.152-34.15-34.152h-404.384c-0.023 0-0.043 0-0.062 0h-270.744c-0.041 0-0.080 0-0.121 0l-301.128 0.002c-18.819 0.011-34.124 15.326-34.124 34.15v24.561h1044.713v-24.561zM1135.8 273.487h-1044.715v615.988c0 18.83 15.32 34.147 34.15 34.147h976.417c18.83 0 34.15-15.316 34.15-34.147v-615.988zM640.409 206.736c0-18.913-15.333-34.246-34.246-34.246s-34.246 15.333-34.246 34.246c0 18.913 15.333 34.246 34.246 34.246s34.246-15.333 34.246-34.246zM969.725 601.296v73.756c0 10.047-8.146 18.193-18.193 18.193h-311.922c-10.047 0-18.193-8.146-18.193-18.193v-73.756c0-10.047 8.146-18.193 18.193-18.193h311.924c10.044 0 18.19 8.146 18.19 18.193zM933.342 619.486h-275.541v37.373h275.541v-37.373zM544.278 701.875h-250.128c-10.047 0-18.193-8.146-18.193-18.193v-171.197c0-10.047 8.146-18.193 18.193-18.193h250.126c10.047 0 18.193 8.146 18.193 18.193v171.197c0 10.051-8.141 18.193-18.19 18.193zM526.085 530.682h-213.743v134.812h213.743v-134.812zM229.084 436.722h494.189l3.064-13.528c3.644-16.076 17.674-28.039 34.080-29.086 0.812-0.053 1.623-0.080 2.431-0.080 15.652 0 29.778 9.88 35.177 24.657l6.503 18.034h10.276l38.862-38.862c3.55-3.55 8.208-5.33 12.863-5.33s9.311 1.775 12.863 5.33c7.104 7.104 7.104 18.623 0 25.726l-13.136 13.136h131.536c10.047 0 18.193 8.146 18.193 18.193v287.283c0 10.047-8.146 18.193-18.193 18.193h-768.705c-10.047 0-18.193-8.146-18.193-18.193v-287.281c0-10.047 8.144-18.193 18.19-18.193zM793.692 494.507c-0.080-0.030-0.156-0.071-0.234-0.098-0.431-0.163-0.853-0.344-1.275-0.541-0.163-0.075-0.33-0.144-0.491-0.227-0.433-0.218-0.856-0.461-1.273-0.715-0.133-0.082-0.271-0.156-0.406-0.241-0.426-0.278-0.842-0.58-1.25-0.894-0.107-0.082-0.22-0.154-0.326-0.239-0.484-0.39-0.954-0.81-1.404-1.259-0.025-0.025-0.048-0.048-0.073-0.073-0.449-0.451-0.869-0.922-1.259-1.404-0.080-0.098-0.151-0.209-0.227-0.31-0.321-0.412-0.626-0.833-0.908-1.263-0.080-0.123-0.151-0.257-0.227-0.385-0.259-0.424-0.507-0.853-0.727-1.295-0.078-0.154-0.142-0.312-0.218-0.468-0.2-0.426-0.385-0.858-0.551-1.298-0.030-0.078-0.069-0.149-0.094-0.225l-18.919-52.461c-0.172-0.473-0.61-0.685-1.048-0.685h-0.009c-0.464 0.030-0.846 0.355-0.952 0.814l-24.162 106.679c-0.007 0.034-0.011 0.069-0.016 0.101l-0.073 0.464c0 0.005-0.018 0.241-0.025 0.31l0.066 0.278c0.014 0.037 0.027 0.071 0.041 0.107 0.037 0.050 0.066 0.096 0.066 0.096 0.037 0.050 0.073 0.105 0.11 0.156 0.053 0.039 0.112 0.080 0.177 0.123l0.075 0.050c0.073 0.027 0.149 0.050 0.225 0.080l0.144 0.034 0.769-0.094c0.034-0.005 0.069-0.011 0.101-0.018l106.702-24.16c0.449-0.101 0.782-0.493 0.81-0.961 0.030-0.461-0.241-0.881-0.674-1.045l-52.466-18.931zM737.662 539.115c0.024 0.065 0.051 0.13 0.072 0.196l0.010 0.024c-0.017-0.058-0.034-0.113-0.041-0.15l-0.041-0.068zM737.719 539.317l0.038 0.106c-0.010-0.038-0.020-0.068-0.034-0.102l-0.003-0.003zM247.277 724.003h732.327v-250.896h-138.016l16.977 6.123c0.027 0.009 0.053 0.018 0.080 0.030 15.48 5.665 25.554 21.103 24.502 37.539-1.045 16.454-13.008 30.487-29.088 34.127l-107.401 24.318c-0.383 0.082-0.764 0.154-1.149 0.214-0.266 0.048-0.512 0.085-0.704 0.112-1.723 0.294-3.476 0.464-5.208 0.509-0.48 0.025-0.963 0.039-1.475 0.032-2.062-0.025-4.144-0.223-6.182-0.589-0.493-0.087-0.977-0.195-1.452-0.305-1.66-0.369-3.298-0.849-4.905-1.44-0.489-0.168-0.97-0.346-1.436-0.541-1.873-0.782-3.678-1.725-5.66-2.972-0.424-0.271-0.84-0.555-1.225-0.824-1.969-1.362-3.658-2.759-5.171-4.268-1.5-1.5-2.895-3.188-4.341-5.274-0.28-0.403-0.551-0.803-0.801-1.197-1.154-1.823-2.137-3.699-2.915-5.561-0.211-0.505-0.396-1.013-0.58-1.55-0.571-1.555-1.041-3.167-1.399-4.782-0.126-0.532-0.243-1.065-0.31-1.47-0.367-2.037-0.564-4.117-0.589-6.114-0.007-0.516 0.002-1.034 0.030-1.589 0.048-1.684 0.214-3.389 0.489-5.034 0.046-0.305 0.094-0.612 0.142-0.881 0.071-0.435 0.156-0.899 0.243-1.277l12.985-57.32h-467.768v250.882zM1084.204 890.219h-941.522c-10.047 0-18.193-8.146-18.193-18.193v-546.941c0-10.047 8.146-18.193 18.193-18.193h941.525c10.047 0 18.193 8.146 18.193 18.193v546.941c-0.002 10.047-8.148 18.193-18.195 18.193zM1066.014 343.276h-905.142v510.558h905.142v-510.558z" />
<glyph unicode="&#xe955;" glyph-name="triangle-up" d="M194.603 270.57l317.397 294.117 317.397-294.117 96.606 89.514-414 383.631-414-383.631z" />
<glyph unicode="&#xe956;" glyph-name="triangle-down" d="M194.603 625.43l317.397-294.117 317.397 294.117 96.606-89.514-414-383.631-414 383.631z" />
<glyph unicode="&#xe957;" glyph-name="keyboard-arrow-down" d="M387.795 517.432l124.205-115.088 124.205 115.088 37.799-35.030-162-150.118-162 150.118z" />
<glyph unicode="&#xe958;" glyph-name="keyboard-arrow-up" d="M387.795 378.568l124.205 115.088 124.205-115.088 37.799 35.030-162 150.118-162-150.118z" />
<glyph unicode="&#xe959;" glyph-name="lupe" d="M12.539 8.725l246.178 246.178c-61.022 74.397-97.802 169.691-97.802 273.554 0 238.237 193.306 431.543 431.543 431.543 238.446 0 431.543-193.306 431.543-431.543s-193.097-431.543-431.543-431.543c-103.863 0-198.949 36.571-273.345 97.593l-246.178-245.969c-16.718-16.718-43.677-16.718-60.395 0-16.718 16.509-16.718 43.677 0 60.186zM592.457 182.805c190.798 0 345.861 155.063 345.861 345.652s-155.063 345.861-345.861 345.861c-190.589 0-345.861-155.272-345.861-345.861s155.272-345.652 345.861-345.652z" />
<glyph unicode="&#xe95a;" glyph-name="vector-pen" horiz-adv-x="1229" d="M1080.987 435.512c-39.175 0-71.033 31.877-71.033 71.071s31.858 71.091 71.033 71.091c39.156 0 71.014-31.896 71.014-71.091s-31.858-71.071-71.014-71.071zM621.796 741.19c-39.175 0-71.052 31.877-71.052 71.071s31.877 71.091 71.052 71.091c39.156 0 71.014-31.896 71.014-71.091s-31.858-71.071-71.014-71.071zM675.969 19.203h-114.164l-146.714 253.484 165.245 278.833v-233.858c0-21.201 17.207-38.406 38.406-38.406 21.22 0 38.406 17.207 38.406 38.406v244.093l171.121-288.722-152.301-253.829zM147.627 435.512c-39.156 0-71.014 31.877-71.014 71.071s31.858 71.091 71.014 71.091c39.175 0 71.033-31.896 71.033-71.091s-31.858-71.071-71.033-71.071zM1080.987 654.488c-31.954 0-61.47-10.293-85.685-27.595l-226.080 177.458c0.134 2.631 0.403 5.243 0.403 7.912 0 0.672-0.096 1.325-0.096 1.998h353.994c21.201 0 38.406 17.207 38.406 38.406 0 21.22-17.207 38.406-38.406 38.406h-373.908c-0.96 0-1.844-0.211-2.785-0.269-26.194 41.595-72.378 69.363-125.033 69.363-52.963 0-99.377-28.094-125.494-70.073-2.708 0.614-5.512 0.979-8.411 0.979h-373.889c-21.201 0-38.406-17.187-38.406-38.406 0-21.201 17.207-38.406 38.406-38.406h359.352c-2.324-1.133-4.551-2.535-6.683-4.186l-233.359-183.181c-24.216 17.303-53.73 27.595-85.685 27.595-81.518 0-147.827-66.348-147.827-147.904 0-81.537 66.31-147.885 147.827-147.885s147.846 66.348 147.846 147.885c0 21.777-4.84 42.401-13.327 61.028l213.637 167.664c16.169-26.347 40.193-47.336 68.959-59.415l-227.195-383.357c-7.086-11.945-7.163-26.808-0.211-38.83l135.691-234.473h-22.525c-21.22 0-38.406-17.187-38.406-38.406 0-21.201 17.187-38.406 38.406-38.406h336.5c21.22 0 38.406 17.207 38.406 38.406 0 21.22-17.187 38.406-38.406 38.406h-21.45l140.358 233.954c7.239 12.098 7.278 27.211 0.096 39.348l-227.176 383.357c25.886 10.87 47.97 28.939 63.909 51.638l203.728-159.887c-8.488-18.627-13.327-39.252-13.327-61.028 0-81.537 66.329-147.885 147.846-147.885s147.827 66.348 147.827 147.885c0 81.556-66.31 147.904-147.827 147.904z" />
<glyph unicode="&#xe95b;" glyph-name="computer" d="M69.92 272.816v55.999h880.001v-55.999h-880.001zM416.64 112.817v96h182.24v-96h-182.24zM785.759 20.816c0-15.44-12.64-28-28-28h-495.679c-15.52 0-28 12.56-28 28s12.48 28 28 28h495.679c15.36 0 28-12.56 28-28zM69.92 392.816v495.999h880.001v-495.999h-880.001zM981.919 952.816h-944c-17.76 0-32-14.336-32-32v-680c0-17.68 14.24-32 32-32h314.72v-96h-90.56c-50.72 0-92-41.264-92-92s41.28-92 92-92h495.679c50.72 0 92 41.264 92 92s-41.28 92-92 92h-94.88v96h319.040c17.6 0 32 14.32 32 32v680c0 17.664-14.4 32-32 32zM316.16 532.768c6.080-5.28 13.44-7.872 20.96-7.872 8.96 0 17.76 3.712 24.16 10.976 11.52 13.328 10.24 33.536-3.2 45.136l-54.4 47.456 54.4 47.44c13.44 11.6 14.72 31.808 3.2 45.136-11.68 13.328-31.84 14.72-45.12 3.12l-82.24-71.568c-7.040-6.064-11.040-14.88-11.040-24.128s4-18.048 11.040-24.128l82.24-71.568zM665.6 535.872c6.24-7.264 15.2-10.976 24.16-10.976 7.36 0 14.88 2.592 20.96 7.872l82.24 71.568c6.88 6.080 10.88 14.88 10.88 24.128s-4 18.064-10.88 24.128l-82.24 71.568c-13.28 11.616-33.6 10.224-45.12-3.12-11.68-13.328-10.24-33.536 3.040-45.136l54.56-47.44-54.56-47.456c-13.28-11.6-14.72-31.808-3.040-45.136zM486.88 467.28c2.080-0.384 4.16-0.56 6.080-0.56 15.040 0 28.48 10.688 31.36 26.032l47.84 251.647c3.2 17.36-8.16 34.112-25.44 37.407-17.6 3.392-34.24-8.128-37.44-25.472l-47.84-251.647c-3.2-17.36 8.16-34.112 25.44-37.407z" />
<glyph unicode="&#xe95c;" glyph-name="circles" horiz-adv-x="1042" d="M520.948 526.15c114.622 0 208.404 93.782 208.404 208.404s-93.782 208.404-208.404 208.404c-114.622 0-208.404-93.782-208.404-208.404s93.782-208.404 208.404-208.404v0zM520.948 838.755c57.31 0 104.202-46.889 104.202-104.202s-46.889-104.202-104.202-104.202c-57.31 0-104.202 46.889-104.202 104.202s46.889 104.202 104.202 104.202v0zM208.345 369.85c-114.622 0-208.404-93.782-208.404-208.404s93.782-208.404 208.404-208.404c114.622 0 208.404 93.782 208.404 208.404s-93.782 208.404-208.404 208.404v0zM208.345 57.245c-57.31 0-104.202 46.889-104.202 104.202s46.889 104.202 104.202 104.202c57.31 0 104.202-46.889 104.202-104.202s-46.889-104.202-104.202-104.202v0zM520.948 468.84c-52.101 0-98.99-46.889-98.99-98.99s46.889-98.99 98.99-98.99c52.101 0 98.99 46.889 98.99 98.99s-46.889 98.99-98.99 98.99v0zM833.553 369.85c-114.622 0-208.404-93.782-208.404-208.404s93.782-208.404 208.404-208.404c114.622 0 208.404 93.782 208.404 208.404s-93.782 208.404-208.404 208.404v0zM833.553 57.245c-57.31 0-104.202 46.889-104.202 104.202s46.889 104.202 104.202 104.202c57.31 0 104.202-46.889 104.202-104.202s-46.889-104.202-104.202-104.202v0z" />
<glyph unicode="&#xe95d;" glyph-name="globe" d="M512 960c-281.598 0-512-230.399-512-512s230.399-512 512-512c281.598 0 512 230.399 512 512s-230.399 512-512 512v0zM865.28 652.8h-148.48c-15.361 66.561-40.96 122.879-71.679 184.321 92.159-35.841 174.081-97.28 220.159-184.321v0zM512 857.598c40.96-61.439 76.801-128 97.28-204.8h-194.561c20.48 71.679 56.321 143.358 97.28 204.8v0zM117.76 345.601c-10.24 30.72-15.361 66.561-15.361 102.399s5.121 71.679 15.361 102.399h174.081c-5.121-35.841-5.121-66.561-5.121-102.399s5.121-66.561 5.121-102.399h-174.081zM158.72 243.2h148.48c15.361-66.561 40.96-122.879 71.679-184.321-92.159 35.841-174.081 97.28-220.159 184.321v0zM307.2 652.8h-148.48c51.199 87.040 128 148.48 220.159 184.321-30.72-61.439-56.321-117.76-71.679-184.321v0zM512 38.402c-40.96 61.439-76.801 128-97.28 204.8h194.561c-20.48-71.679-56.321-143.358-97.28-204.8v0zM629.76 345.601h-235.52c-5.121 35.841-10.24 66.561-10.24 102.399s5.121 66.561 10.24 102.399h240.639c5.121-35.841 10.24-66.561 10.24-102.399s-10.24-66.561-15.361-102.399v0zM645.118 58.882c30.72 56.321 56.321 117.76 71.679 184.321h148.48c-46.081-87.040-128-148.48-220.159-184.321v0zM737.28 345.601c5.121 35.841 5.121 66.561 5.121 102.399s-5.121 66.561-5.121 102.399h174.081c10.24-30.72 15.361-66.561 15.361-102.399s-5.121-71.679-15.361-102.399h-174.081z" />
<glyph unicode="&#xe95e;" glyph-name="cloud" horiz-adv-x="1115" d="M862.238 85.441c-24.875-7.907-51.452 6.005-59.31 31.030s6.005 51.701 30.932 59.608c121.871 38.388 183.684 137.234 183.684 293.691 0 179.679-145.593 325.822-324.62 325.822-155.604 0-289.587-111.361-318.664-264.711l-9.659-51-49.749 14.214c-15.965 4.554-32.081 6.906-47.948 6.906-96.594 0-175.173-78.828-175.173-175.825 0-96.945 78.579-175.825 175.173-175.825l9.659 0.701c26.427 1.002 48.397-18.719 49.749-44.894 1.401-26.227-18.619-48.548-44.743-49.949l-3.153-0.249c-3.805-0.249-7.606-0.55-11.512-0.55-148.747 0-269.767 121.47-269.767 270.769s121.020 270.717 269.767 270.717c8.608 0 17.216-0.4 25.824-1.251 53.704 174.021 215.162 295.892 400.196 295.892 231.179 0 419.214-188.787 419.214-420.766 0-199.799-86.385-332.678-249.899-384.33v0zM524.354 428.482c0.151 0.151 0.2 0.4 0.35 0.55 9.309 9.309 21.42 13.913 33.584 13.863 12.112 0.049 24.275-4.554 33.532-13.863 0.101-0.151 0.101-0.301 0.249-0.452l130.578-131.030c18.467-18.519 18.467-48.649 0-67.165-9.26-9.26-21.371-13.913-33.483-13.913s-24.175 4.656-33.433 13.913l-50.050 50.299v-298.996c0-26.227-21.171-47.447-47.346-47.447-26.125 0-47.297 21.221-47.297 47.447v299.147l-50.25-50.45c-9.21-9.26-21.322-13.913-33.433-13.913s-24.223 4.656-33.433 13.913c-18.519 18.519-18.519 48.649 0 67.165l130.43 130.928z" />
<glyph unicode="&#xe95f;" glyph-name="person" horiz-adv-x="968" d="M484.237 478.25c133.102 0 242.005 108.903 242.005 242.005s-108.903 242.005-242.005 242.005c-133.102 0-242.005-108.903-242.005-242.005s108.903-242.005 242.005-242.005v0zM484.237 357.249c-163.352 0-484.006-78.652-484.006-242.005v-121.001h968.016v121.001c0 163.352-320.654 242.005-484.006 242.005v0z" />
<glyph unicode="&#xe960;" glyph-name="mood" d="M512 960c-281.598 0-512-230.399-512-512s230.399-512 512-512c281.598 0 512 230.399 512 512s-230.399 512-512 512v0zM691.199 652.8c40.96 0 76.801-35.841 76.801-76.801s-35.841-76.801-76.801-76.801c-40.96 0-76.801 35.841-76.801 76.801s35.841 76.801 76.801 76.801v0zM332.801 652.8c40.96 0 76.801-35.841 76.801-76.801s-35.841-76.801-76.801-76.801c-40.96 0-76.801 35.841-76.801 76.801s35.841 76.801 76.801 76.801v0zM512 140.801c-133.118 0-245.76 87.040-286.72 204.8h573.439c-40.96-117.76-153.601-204.8-286.72-204.8v0z" />
<glyph unicode="&#xe961;" glyph-name="call" d="M204.8 516.267c79.644-159.289 216.178-290.133 375.467-375.467l125.157 125.157c17.068 17.068 39.822 22.755 56.89 11.377 62.577-22.755 130.844-34.132 204.801-34.132 34.132 0 56.89-22.755 56.89-56.89v-193.421c0-34.132-22.755-56.89-56.89-56.89-534.756 0-967.11 432.354-967.11 967.11 0 34.132 22.755 56.89 56.89 56.89h199.111c34.132 0 56.89-22.755 56.89-56.89 0-68.267 11.377-136.534 34.132-204.801 5.69-17.068 0-39.822-11.377-56.89l-130.844-125.157z" />
<glyph unicode="&#xe969;" glyph-name="forward" d="M262.14 960c-113.728-206.032-132.89-520.304 313.86-509.824v253.824l384-384-384-384v248.372c-534.96-13.942-594.572 472.214-313.86 775.628z" />
<glyph unicode="&#xe96a;" glyph-name="reply" d="M448 184.372v-248.372l-384 384 384 384v-253.824c446.75-10.48 427.588 303.792 313.862 509.824 280.71-303.414 221.1-789.57-313.862-775.628z" />
<glyph unicode="&#xe96b;" glyph-name="bubble" d="M512 896c282.77 0 512-186.25 512-416 0-229.752-229.23-416-512-416-27.156 0-53.81 1.734-79.824 5.044-109.978-109.978-241.25-129.7-368.176-132.596v26.916c68.536 33.578 128 94.74 128 164.636 0 9.754-0.758 19.33-2.164 28.696-115.796 76.264-189.836 192.754-189.836 323.304 0 229.75 229.23 416 512 416z" />
<glyph unicode="&#xe97a;" glyph-name="spinner" d="M384 832c0 70.692 57.308 128 128 128s128-57.308 128-128c0-70.692-57.308-128-128-128s-128 57.308-128 128zM655.53 719.53c0 70.692 57.308 128 128 128s128-57.308 128-128c0-70.692-57.308-128-128-128s-128 57.308-128 128zM832 448c0 35.346 28.654 64 64 64s64-28.654 64-64c0-35.346-28.654-64-64-64s-64 28.654-64 64zM719.53 176.47c0 35.346 28.654 64 64 64s64-28.654 64-64c0-35.346-28.654-64-64-64s-64 28.654-64 64zM448.002 64c0 0 0 0 0 0 0 35.346 28.654 64 64 64s64-28.654 64-64c0 0 0 0 0 0 0-35.346-28.654-64-64-64s-64 28.654-64 64zM176.472 176.47c0 0 0 0 0 0 0 35.346 28.654 64 64 64s64-28.654 64-64c0 0 0 0 0 0 0-35.346-28.654-64-64-64s-64 28.654-64 64zM144.472 719.53c0 0 0 0 0 0 0 53.019 42.981 96 96 96s96-42.981 96-96c0 0 0 0 0 0 0-53.019-42.981-96-96-96s-96 42.981-96 96zM56 448c0 39.765 32.235 72 72 72s72-32.235 72-72c0-39.765-32.235-72-72-72s-72 32.235-72 72z" />
<glyph unicode="&#xe97b;" glyph-name="spinner2" d="M1024 448c-1.278 66.862-15.784 133.516-42.576 194.462-26.704 61-65.462 116.258-113.042 161.92-47.552 45.696-103.944 81.82-164.984 105.652-61.004 23.924-126.596 35.352-191.398 33.966-64.81-1.282-129.332-15.374-188.334-41.356-59.048-25.896-112.542-63.47-156.734-109.576-44.224-46.082-79.16-100.708-102.186-159.798-23.114-59.062-34.128-122.52-32.746-185.27 1.286-62.76 14.964-125.148 40.134-182.206 25.088-57.1 61.476-108.828 106.11-151.548 44.61-42.754 97.472-76.504 154.614-98.72 57.118-22.304 118.446-32.902 179.142-31.526 60.708 1.29 120.962 14.554 176.076 38.914 55.15 24.282 105.116 59.48 146.366 102.644 41.282 43.14 73.844 94.236 95.254 149.43 13.034 33.458 21.88 68.4 26.542 103.798 1.246-0.072 2.498-0.12 3.762-0.12 35.346 0 64 28.652 64 64 0 1.796-0.094 3.572-0.238 5.332h0.238zM922.306 278.052c-23.472-53.202-57.484-101.4-99.178-141.18-41.67-39.81-91-71.186-144.244-91.79-53.228-20.678-110.29-30.452-166.884-29.082-56.604 1.298-112.596 13.736-163.82 36.474-51.25 22.666-97.684 55.49-135.994 95.712-38.338 40.198-68.528 87.764-88.322 139.058-19.87 51.284-29.228 106.214-27.864 160.756 1.302 54.552 13.328 108.412 35.254 157.69 21.858 49.3 53.498 93.97 92.246 130.81 38.73 36.868 84.53 65.87 133.874 84.856 49.338 19.060 102.136 28.006 154.626 26.644 52.5-1.306 104.228-12.918 151.562-34.034 47.352-21.050 90.256-51.502 125.624-88.782 35.396-37.258 63.21-81.294 81.39-128.688 18.248-47.392 26.782-98.058 25.424-148.496h0.238c-0.144-1.76-0.238-3.536-0.238-5.332 0-33.012 24.992-60.174 57.086-63.624-6.224-34.822-16.53-68.818-30.78-100.992z" />
<glyph unicode="&#xe97c;" glyph-name="spinner3" d="M512 656.904c-32.964 0-59.686 26.724-59.686 59.686v179.060c0 32.964 26.722 59.686 59.686 59.686 32.962 0 59.688-26.722 59.688-59.686v-179.060c0-32.964-26.726-59.686-59.688-59.686zM512-36.956c-20.602 0-37.304 16.702-37.304 37.304v179.060c0 20.602 16.702 37.304 37.304 37.304 20.604 0 37.304-16.704 37.304-37.304v-179.060c0-20.602-16.7-37.304-37.304-37.304zM377.756 624.64c-19.34 0-38.146 10.034-48.512 27.988l-89.53 155.070c-15.452 26.764-6.282 60.986 20.482 76.438 26.762 15.45 60.986 6.284 76.438-20.482l89.53-155.072c15.452-26.764 6.282-60.986-20.482-76.438-8.81-5.084-18.432-7.504-27.926-7.504zM735.856 26.744c-11.602 0-22.886 6.022-29.108 16.792l-89.53 155.070c-9.27 16.056-3.77 36.592 12.29 45.864 16.056 9.264 36.59 3.77 45.864-12.292l89.532-155.068c9.27-16.058 3.768-36.592-12.292-45.864-5.286-3.048-11.060-4.502-16.756-4.502zM279.344 530.060c-8.86 0-17.838 2.256-26.064 7.006l-155.072 89.53c-24.978 14.422-33.538 46.362-19.116 71.342 14.42 24.978 46.364 33.538 71.342 19.116l155.070-89.53c24.98-14.422 33.538-46.362 19.116-71.34-9.668-16.756-27.226-26.124-45.276-26.124zM899.648 194.326c-5.064 0-10.196 1.29-14.894 4.004l-155.068 89.53c-14.274 8.24-19.164 26.494-10.924 40.768 8.242 14.276 26.496 19.166 40.766 10.924l155.070-89.532c14.274-8.24 19.164-26.492 10.924-40.766-5.53-9.574-15.562-14.928-25.874-14.928zM243.41 399.504h-179.060c-26.784 0-48.496 21.712-48.496 48.496s21.712 48.496 48.496 48.496h179.060c26.784 0 48.496-21.712 48.496-48.496s-21.712-48.496-48.496-48.496zM959.65 418.156c-0.002 0 0 0 0 0h-179.060c-16.482 0.002-29.844 13.364-29.844 29.844s13.364 29.844 29.844 29.844c0.002 0 0 0 0 0h179.060c16.482 0 29.844-13.362 29.844-29.844 0-16.48-13.364-29.844-29.844-29.844zM124.366 179.402c-15.472 0-30.518 8.028-38.81 22.39-12.362 21.41-5.026 48.79 16.384 61.148l155.072 89.532c21.41 12.368 48.79 5.028 61.15-16.384 12.362-21.412 5.026-48.79-16.384-61.15l-155.072-89.53c-7.050-4.070-14.748-6.006-22.34-6.006zM744.632 552.448c-10.314 0-20.346 5.352-25.874 14.926-8.24 14.274-3.35 32.526 10.924 40.768l155.070 89.528c14.272 8.236 32.526 3.352 40.768-10.922 8.24-14.274 3.35-32.526-10.924-40.768l-155.070-89.528c-4.7-2.714-9.83-4.004-14.894-4.004zM288.136 19.284c-6.962 0-14.016 1.774-20.48 5.504-19.626 11.332-26.35 36.428-15.020 56.054l89.53 155.070c11.33 19.628 36.426 26.352 56.054 15.022 19.626-11.332 26.35-36.43 15.020-56.054l-89.53-155.072c-7.598-13.166-21.392-20.524-35.574-20.524zM646.266 650.758c-5.062 0-10.196 1.29-14.894 4.002-14.274 8.242-19.164 26.494-10.924 40.766l89.534 155.070c8.24 14.274 26.492 19.166 40.766 10.922 14.274-8.242 19.164-26.494 10.924-40.766l-89.532-155.070c-5.53-9.57-15.56-14.924-25.874-14.924z" />
<glyph unicode="&#xe980;" glyph-name="spinner7" d="M416 32c0 53.019 42.981 96 96 96s96-42.981 96-96c0-53.019-42.981-96-96-96s-96 42.981-96 96zM0 448c0 53.019 42.981 96 96 96s96-42.981 96-96c0-53.019-42.981-96-96-96s-96 42.981-96 96zM832 448c0 53.019 42.981 96 96 96s96-42.981 96-96c0-53.019-42.981-96-96-96s-96 42.981-96 96zM121.844 742.156c0 53.019 42.981 96 96 96s96-42.981 96-96c0-53.019-42.981-96-96-96s-96 42.981-96 96zM710.156 153.844c0 53.019 42.981 96 96 96s96-42.981 96-96c0-53.019-42.981-96-96-96s-96 42.981-96 96zM121.844 153.844c0 53.019 42.981 96 96 96s96-42.981 96-96c0-53.019-42.981-96-96-96s-96 42.981-96 96zM710.156 742.156c0 53.019 42.981 96 96 96s96-42.981 96-96c0-53.019-42.981-96-96-96s-96 42.981-96 96z" />
<glyph unicode="&#xe982;" glyph-name="spinner9" d="M512 960c-278.748 0-505.458-222.762-511.848-499.974 5.92 241.864 189.832 435.974 415.848 435.974 229.75 0 416-200.576 416-448 0-53.020 42.98-96 96-96s96 42.98 96 96c0 282.77-229.23 512-512 512zM512-64c278.748 0 505.458 222.762 511.848 499.974-5.92-241.864-189.832-435.974-415.848-435.974-229.75 0-416 200.576-416 448 0 53.020-42.98 96-96 96s-96-42.98-96-96c0-282.77 229.23-512 512-512z" />
<glyph unicode="&#xe98d;" glyph-name="key" d="M704 960c-176.73 0-320-143.268-320-320 0-20.026 1.858-39.616 5.376-58.624l-389.376-389.376v-192c0-35.346 28.654-64 64-64h64v64h128v128h128v128h128l83.042 83.042c34.010-12.316 70.696-19.042 108.958-19.042 176.73 0 320 143.268 320 320s-143.27 320-320 320zM799.874 639.874c-53.020 0-96 42.98-96 96s42.98 96 96 96 96-42.98 96-96-42.98-96-96-96z" />
<glyph unicode="&#xe994;" glyph-name="cog" d="M933.79 349.75c-53.726 93.054-21.416 212.304 72.152 266.488l-100.626 174.292c-28.75-16.854-62.176-26.518-97.846-26.518-107.536 0-194.708 87.746-194.708 195.99h-201.258c0.266-33.41-8.074-67.282-25.958-98.252-53.724-93.056-173.156-124.702-266.862-70.758l-100.624-174.292c28.97-16.472 54.050-40.588 71.886-71.478 53.638-92.908 21.512-211.92-71.708-266.224l100.626-174.292c28.65 16.696 61.916 26.254 97.4 26.254 107.196 0 194.144-87.192 194.7-194.958h201.254c-0.086 33.074 8.272 66.57 25.966 97.218 53.636 92.906 172.776 124.594 266.414 71.012l100.626 174.29c-28.78 16.466-53.692 40.498-71.434 71.228zM512 240.668c-114.508 0-207.336 92.824-207.336 207.334 0 114.508 92.826 207.334 207.336 207.334 114.508 0 207.332-92.826 207.332-207.334-0.002-114.51-92.824-207.334-207.332-207.334z" />
<glyph unicode="&#xe99a;" glyph-name="pie-chart" d="M448 384v448c-247.424 0-448-200.576-448-448s200.576-448 448-448 448 200.576 448 448c0 72.034-17.028 140.084-47.236 200.382l-400.764-200.382zM912.764 712.382c-73.552 146.816-225.374 247.618-400.764 247.618v-448l400.764 200.382z" />
<glyph unicode="&#xe99b;" glyph-name="stats-dots" d="M128 64h896v-128h-1024v1024h128zM288 128c-53.020 0-96 42.98-96 96s42.98 96 96 96c2.828 0 5.622-0.148 8.388-0.386l103.192 171.986c-9.84 15.070-15.58 33.062-15.58 52.402 0 53.020 42.98 96 96 96s96-42.98 96-96c0-19.342-5.74-37.332-15.58-52.402l103.192-171.986c2.766 0.238 5.56 0.386 8.388 0.386 2.136 0 4.248-0.094 6.35-0.23l170.356 298.122c-10.536 15.408-16.706 34.036-16.706 54.11 0 53.020 42.98 96 96 96s96-42.98 96-96c0-53.020-42.98-96-96-96-2.14 0-4.248 0.094-6.35 0.232l-170.356-298.124c10.536-15.406 16.706-34.036 16.706-54.11 0-53.020-42.98-96-96-96s-96 42.98-96 96c0 19.34 5.74 37.332 15.578 52.402l-103.19 171.984c-2.766-0.238-5.56-0.386-8.388-0.386s-5.622 0.146-8.388 0.386l-103.192-171.986c9.84-15.068 15.58-33.060 15.58-52.4 0-53.020-42.98-96-96-96z" />
<glyph unicode="&#xe99e;" glyph-name="trophy" d="M832 768v128h-640v-128h-192v-128c0-106.038 85.958-192 192-192 20.076 0 39.43 3.086 57.62 8.802 46.174-66.008 116.608-113.796 198.38-130.396v-198.406h-64c-70.694 0-128-57.306-128-128h512c0 70.694-57.306 128-128 128h-64v198.406c81.772 16.6 152.206 64.386 198.38 130.396 18.19-5.716 37.544-8.802 57.62-8.802 106.042 0 192 85.962 192 192v128h-192zM192 524c-63.962 0-116 52.038-116 116v64h116v-64c0-40.186 7.43-78.632 20.954-114.068-6.802-1.246-13.798-1.932-20.954-1.932zM948 640c0-63.962-52.038-116-116-116-7.156 0-14.152 0.686-20.954 1.932 13.524 35.436 20.954 73.882 20.954 114.068v64h116v-64z" />
<glyph unicode="&#xe9a2;" glyph-name="mug" d="M960 640h-192v96c0 88.366-171.922 160-384 160s-384-71.634-384-160v-640c0-88.366 171.922-160 384-160s384 71.634 384 160v96h192c35.346 0 64 28.654 64 64v320c0 35.346-28.654 64-64 64zM176.056 701.602c-36.994 12.19-59.408 25.246-71.41 34.398 12.004 9.152 34.416 22.208 71.41 34.398 57.942 19.090 131.79 29.602 207.944 29.602s150.004-10.512 207.944-29.602c36.994-12.188 59.408-25.246 71.41-34.398-12.002-9.152-34.416-22.208-71.41-34.398-57.94-19.090-131.79-29.602-207.944-29.602s-150.002 10.512-207.944 29.602zM896 320h-128v192h128v-192z" />
<glyph unicode="&#xe9ac;" glyph-name="bin" d="M128 640v-640c0-35.2 28.8-64 64-64h576c35.2 0 64 28.8 64 64v640h-704zM320 64h-64v448h64v-448zM448 64h-64v448h64v-448zM576 64h-64v448h64v-448zM704 64h-64v448h64v-448zM848 832h-208v80c0 26.4-21.6 48-48 48h-224c-26.4 0-48-21.6-48-48v-80h-208c-26.4 0-48-21.6-48-48v-80h832v80c0 26.4-21.6 48-48 48zM576 832h-192v63.198h192v-63.198z" />
<glyph unicode="&#xe9ad;" glyph-name="bin2" d="M192-64h640l64 704h-768zM640 832v128h-256v-128h-320v-192l64 64h768l64-64v192h-320zM576 832h-128v64h128v-64z" />
<glyph unicode="&#xe9d2;" glyph-name="bookmark" d="M192 960v-1024l320 320 320-320v1024z" />
<glyph unicode="&#xea0a;" glyph-name="plus" d="M992 576h-352v352c0 17.672-14.328 32-32 32h-192c-17.672 0-32-14.328-32-32v-352h-352c-17.672 0-32-14.328-32-32v-192c0-17.672 14.328-32 32-32h352v-352c0-17.672 14.328-32 32-32h192c17.672 0 32 14.328 32 32v352h352c17.672 0 32 14.328 32 32v192c0 17.672-14.328 32-32 32z" />
<glyph unicode="&#xea0f;" glyph-name="cross" d="M1014.662 137.34c-0.004 0.004-0.008 0.008-0.012 0.010l-310.644 310.65 310.644 310.65c0.004 0.004 0.008 0.006 0.012 0.010 3.344 3.346 5.762 7.254 7.312 11.416 4.246 11.376 1.824 24.682-7.324 33.83l-146.746 146.746c-9.148 9.146-22.45 11.566-33.828 7.32-4.16-1.55-8.070-3.968-11.418-7.31 0-0.004-0.004-0.006-0.008-0.010l-310.648-310.652-310.648 310.65c-0.004 0.004-0.006 0.006-0.010 0.010-3.346 3.342-7.254 5.76-11.414 7.31-11.38 4.248-24.682 1.826-33.83-7.32l-146.748-146.748c-9.148-9.148-11.568-22.452-7.322-33.828 1.552-4.16 3.97-8.072 7.312-11.416 0.004-0.002 0.006-0.006 0.010-0.010l310.65-310.648-310.65-310.652c-0.002-0.004-0.006-0.006-0.008-0.010-3.342-3.346-5.76-7.254-7.314-11.414-4.248-11.376-1.826-24.682 7.322-33.83l146.748-146.746c9.15-9.148 22.452-11.568 33.83-7.322 4.16 1.552 8.070 3.97 11.416 7.312 0.002 0.004 0.006 0.006 0.010 0.010l310.648 310.65 310.648-310.65c0.004-0.002 0.008-0.006 0.012-0.008 3.348-3.344 7.254-5.762 11.414-7.314 11.378-4.246 24.684-1.826 33.828 7.322l146.746 146.748c9.148 9.148 11.57 22.454 7.324 33.83-1.552 4.16-3.97 8.068-7.314 11.414z" />
<glyph unicode="&#xea10;" glyph-name="checkmark" d="M864 832l-480-480-224 224-160-160 384-384 640 640z" />
<glyph unicode="&#xea11;" glyph-name="checkmark2" d="M397.434 42.304l-397.868 391.6 197.378 194.27 200.49-197.332 429.62 422.852 197.378-194.27-626.998-617.12zM107.912 433.904l289.524-284.962 518.656 510.482-89.036 87.632-429.62-422.852-200.49 197.334-89.034-87.634z" />
<glyph unicode="&#xea41;" glyph-name="circle-up" d="M0 448c0-282.77 229.23-512 512-512s512 229.23 512 512-229.23 512-512 512-512-229.23-512-512zM928 448c0-229.75-186.25-416-416-416s-416 186.25-416 416 186.25 416 416 416 416-186.25 416-416zM706.744 290.744l90.512 90.512-285.256 285.254-285.254-285.256 90.508-90.508 194.746 194.744z" />
<glyph unicode="&#xea42;" glyph-name="circle-right" d="M512 960c-282.77 0-512-229.23-512-512s229.23-512 512-512 512 229.23 512 512-229.23 512-512 512zM512 32c-229.75 0-416 186.25-416 416s186.25 416 416 416 416-186.25 416-416-186.25-416-416-416zM354.744 253.256l90.512-90.512 285.254 285.256-285.256 285.254-90.508-90.508 194.744-194.746z" />
<glyph unicode="&#xea7f;" glyph-name="embed" d="M576 224l96-96 320 320-320 320-96-96 224-224zM448 672l-96 96-320-320 320-320 96 96-224 224z" />
<glyph unicode="&#xea80;" glyph-name="embed2" horiz-adv-x="1280" d="M832 224l96-96 320 320-320 320-96-96 224-224zM448 672l-96 96-320-320 320-320 96 96-224 224zM701.298 809.481l69.468-18.944-191.987-704.026-69.468 18.944 191.987 704.026z" />
<glyph unicode="&#xea8f;" glyph-name="google-drive" d="M438 320l-184.6-320h580.6l184.6 320zM992.4 384l-295.6 512h-369.6l295.6-512zM290.2 832l-290.2-502.8 184.8-320 290.2 502.8z" />
<glyph unicode="&#xea90;" glyph-name="facebook" d="M608 768h160v192h-160c-123.514 0-224-100.486-224-224v-96h-128v-192h128v-512h192v512h160l32 192h-192v96c0 17.346 14.654 32 32 32z" />
<glyph unicode="&#xea91;" glyph-name="facebook2" d="M928 960h-832c-52.8 0-96-43.2-96-96v-832c0-52.8 43.2-96 96-96h416v448h-128v128h128v64c0 105.8 86.2 192 192 192h128v-128h-128c-35.2 0-64-28.8-64-64v-64h192l-32-128h-160v-448h288c52.8 0 96 43.2 96 96v832c0 52.8-43.2 96-96 96z" />
<glyph unicode="&#xea92;" glyph-name="instagram" d="M512 867.8c136.8 0 153-0.6 206.8-3 50-2.2 77-10.6 95-17.6 23.8-9.2 41-20.4 58.8-38.2 18-18 29-35 38.4-58.8 7-18 15.4-45.2 17.6-95 2.4-54 3-70.2 3-206.8s-0.6-153-3-206.8c-2.2-50-10.6-77-17.6-95-9.2-23.8-20.4-41-38.2-58.8-18-18-35-29-58.8-38.4-18-7-45.2-15.4-95-17.6-54-2.4-70.2-3-206.8-3s-153 0.6-206.8 3c-50 2.2-77 10.6-95 17.6-23.8 9.2-41 20.4-58.8 38.2-18 18-29 35-38.4 58.8-7 18-15.4 45.2-17.6 95-2.4 54-3 70.2-3 206.8s0.6 153 3 206.8c2.2 50 10.6 77 17.6 95 9.2 23.8 20.4 41 38.2 58.8 18 18 35 29 58.8 38.4 18 7 45.2 15.4 95 17.6 53.8 2.4 70 3 206.8 3zM512 960c-139 0-156.4-0.6-211-3-54.4-2.4-91.8-11.2-124.2-23.8-33.8-13.2-62.4-30.6-90.8-59.2-28.6-28.4-46-57-59.2-90.6-12.6-32.6-21.4-69.8-23.8-124.2-2.4-54.8-3-72.2-3-211.2s0.6-156.4 3-211c2.4-54.4 11.2-91.8 23.8-124.2 13.2-33.8 30.6-62.4 59.2-90.8 28.4-28.4 57-46 90.6-59 32.6-12.6 69.8-21.4 124.2-23.8 54.6-2.4 72-3 211-3s156.4 0.6 211 3c54.4 2.4 91.8 11.2 124.2 23.8 33.6 13 62.2 30.6 90.6 59s46 57 59 90.6c12.6 32.6 21.4 69.8 23.8 124.2 2.4 54.6 3 72 3 211s-0.6 156.4-3 211c-2.4 54.4-11.2 91.8-23.8 124.2-12.6 34-30 62.6-58.6 91-28.4 28.4-57 46-90.6 59-32.6 12.6-69.8 21.4-124.2 23.8-54.8 2.6-72.2 3.2-211.2 3.2v0zM512 711c-145.2 0-263-117.8-263-263s117.8-263 263-263 263 117.8 263 263c0 145.2-117.8 263-263 263zM512 277.4c-94.2 0-170.6 76.4-170.6 170.6s76.4 170.6 170.6 170.6c94.2 0 170.6-76.4 170.6-170.6s-76.4-170.6-170.6-170.6zM846.8 721.4c0-33.91-27.49-61.4-61.4-61.4s-61.4 27.49-61.4 61.4c0 33.91 27.49 61.4 61.4 61.4s61.4-27.49 61.4-61.4z" />
<glyph unicode="&#xea93;" glyph-name="whatsapp" d="M873 811.2c-95.8 96-223.2 148.8-359 148.8-279.6 0-507.2-227.6-507.2-507.4 0-89.4 23.4-176.8 67.8-253.6l-72-263 269 70.6c74.2-40.4 157.6-61.8 242.4-61.8h0.2c0 0 0 0 0 0 279.6 0 507.4 227.6 507.4 507.4 0 135.6-52.8 263-148.6 359zM514.2 30.4v0c-75.8 0-150 20.4-214.8 58.8l-15.4 9.2-159.6-41.8 42.6 155.6-10 16c-42.4 67-64.6 144.6-64.6 224.4 0 232.6 189.2 421.8 422 421.8 112.6 0 218.6-44 298.2-123.6 79.6-79.8 123.4-185.6 123.4-298.4-0.2-232.8-189.4-422-421.8-422zM745.4 346.4c-12.6 6.4-75 37-86.6 41.2s-20 6.4-28.6-6.4c-8.4-12.6-32.8-41.2-40.2-49.8-7.4-8.4-14.8-9.6-27.4-3.2s-53.6 19.8-102 63c-37.6 33.6-63.2 75.2-70.6 87.8s-0.8 19.6 5.6 25.8c5.8 5.6 12.6 14.8 19 22.2s8.4 12.6 12.6 21.2c4.2 8.4 2.2 15.8-1 22.2s-28.6 68.8-39 94.2c-10.2 24.8-20.8 21.4-28.6 21.8-7.4 0.4-15.8 0.4-24.2 0.4s-22.2-3.2-33.8-15.8c-11.6-12.6-44.4-43.4-44.4-105.8s45.4-122.6 51.8-131.2c6.4-8.4 89.4-136.6 216.6-191.4 30.2-13 53.8-20.8 72.2-26.8 30.4-9.6 58-8.2 79.8-5 24.4 3.6 75 30.6 85.6 60.2s10.6 55 7.4 60.2c-3 5.6-11.4 8.8-24.2 15.2z" />
<glyph unicode="&#xea94;" glyph-name="spotify" d="M512 960c-281.6 0-512-230.4-512-512s230.4-512 512-512 512 230.4 512 512-227.8 512-512 512zM747.6 220.2c-10.2-15.4-28.2-20.4-43.6-10.2-120.4 74.2-271.4 89.6-450.6 48.6-18-5.2-33.2 7.6-38.4 23-5.2 18 7.6 33.2 23 38.4 194.6 43.6 363.6 25.6 496.6-56.4 18-7.6 20.6-28 13-43.4zM809 361c-12.8-18-35.8-25.6-53.8-12.8-138.2 84.4-348.2 110-509.4 58.8-20.4-5.2-43.6 5.2-48.6 25.6-5.2 20.4 5.2 43.6 25.6 48.6 186.8 56.4 417.2 28.2 576-69.2 15.2-7.6 23-33.2 10.2-51zM814 504.4c-163.8 97.2-437.8 107.6-594 58.8-25.6-7.6-51.2 7.6-58.8 30.8-7.6 25.6 7.6 51.2 30.8 58.8 181.8 53.8 481.2 43.6 670.8-69.2 23-12.8 30.8-43.6 18-66.6-13-17.8-43.6-25.4-66.8-12.6z" />
<glyph unicode="&#xea95;" glyph-name="telegram" d="M512 960c-282.8 0-512-229.2-512-512s229.2-512 512-512 512 229.2 512 512-229.2 512-512 512zM763.6 609l-84-395.8c-5.8-28.2-22.8-34.8-46.4-21.8l-128 94.6-61.4-59.8c-7.2-7-12.8-12.8-25.6-12.8-16.6 0-13.8 6.2-19.4 22l-43.6 143.2-126.6 39.4c-27.4 8.4-27.6 27.2 6.2 40.6l493.2 190.4c22.4 10.2 44.2-5.4 35.6-40z" />
<glyph unicode="&#xea96;" glyph-name="twitter" d="M1024 733.6c-37.6-16.8-78.2-28-120.6-33 43.4 26 76.6 67.2 92.4 116.2-40.6-24-85.6-41.6-133.4-51-38.4 40.8-93 66.2-153.4 66.2-116 0-210-94-210-210 0-16.4 1.8-32.4 5.4-47.8-174.6 8.8-329.4 92.4-433 219.6-18-31-28.4-67.2-28.4-105.6 0-72.8 37-137.2 93.4-174.8-34.4 1-66.8 10.6-95.2 26.2 0-0.8 0-1.8 0-2.6 0-101.8 72.4-186.8 168.6-206-17.6-4.8-36.2-7.4-55.4-7.4-13.6 0-26.6 1.4-39.6 3.8 26.8-83.4 104.4-144.2 196.2-146-72-56.4-162.4-90-261-90-17 0-33.6 1-50.2 3 93.2-59.8 203.6-94.4 322.2-94.4 386.4 0 597.8 320.2 597.8 597.8 0 9.2-0.2 18.2-0.6 27.2 41 29.4 76.6 66.4 104.8 108.6z" />
<glyph unicode="&#xea9d;" glyph-name="youtube" d="M1013.8 652.8c0 0-10 70.6-40.8 101.6-39 40.8-82.6 41-102.6 43.4-143.2 10.4-358.2 10.4-358.2 10.4h-0.4c0 0-215 0-358.2-10.4-20-2.4-63.6-2.6-102.6-43.4-30.8-31-40.6-101.6-40.6-101.6s-10.2-82.8-10.2-165.8v-77.6c0-82.8 10.2-165.8 10.2-165.8s10-70.6 40.6-101.6c39-40.8 90.2-39.4 113-43.8 82-7.8 348.2-10.2 348.2-10.2s215.2 0.4 358.4 10.6c20 2.4 63.6 2.6 102.6 43.4 30.8 31 40.8 101.6 40.8 101.6s10.2 82.8 10.2 165.8v77.6c-0.2 82.8-10.4 165.8-10.4 165.8zM406.2 315.2v287.8l276.6-144.4-276.6-143.4z" />
<glyph unicode="&#xea9e;" glyph-name="youtube2" horiz-adv-x="2569" d="M344.012 790.601c0.209 0.865 0.344 1.479 0.388 1.8l1.042 7.559-47.349 0.267c-42.779 0.242-55.87-0.007-57.047-1.084-0.565-0.516-15.333-56.633-41.655-158.273-12.556-48.484-23.124-87.206-23.487-86.051s-15.391 56.498-33.397 122.98c-18.006 66.482-33.104 121.243-33.55 121.692-0.623 0.623-57.98 0.9-104.417 0.502-6.735-0.056-10.477 13.11 60.021-211.133 9.759-31.041 24.371-74.997 32.469-97.679 9.333-26.141 15.989-46.323 20.534-63.173 8.038-32.067 8.319-52.163 6.565-75.625-2.026-27.101-2.321-218.438-0.342-221.638 1.512-2.449 91.223-3.589 99.712-1.268 1.358 0.372 2.265 1.691 2.87 8.928 2.119 6.219 2.286 30.969 2.286 133.744v131.281l5.742 18.112c3.756 11.849 13.201 42.995 20.989 69.22 7.789 26.222 17.21 57.619 20.938 69.771 33.834 110.319 66.14 218.831 66.994 225.011l0.693 5.056zM846.122 631.349l-0.021-6.838-1.065-0.014-0.595-188.993-0.577-183.227-14.666-14.929c-16.424-16.719-29.585-23.101-41.488-20.113-12.963 3.254-12.64-1.8-13.722 214.768l-0.998 199.347h-94.316v-6.851h-1.086v-216.289c0-231.737-0.007-231.599 11.752-254.875 9.366-18.536 23.010-27.559 46.391-30.671h0.002c30.79-4.1 64.001 9.849 94.77 39.809l13.373 13.022v-22.445c0-19.396 0.554-22.601 4.070-23.58 5.756-1.605 77.173-1.707 84.89-0.126l6.396 1.314v6.628l1.086 0.223v495.098l-94.195-1.258zM606.892 533.67c-8.935 38.341-25.68 64.115-53.233 81.939-43.281 27.999-92.718 30.957-138.586 8.291-33.425-16.515-54.951-43.914-66.071-84.083-1.326-4.786-2.298-8.812-3.033-14.815-2.83-14.184-3.163-35.351-3.889-133.951-1.121-151.928 0.616-170.003 19.643-204.51 18.664-33.848 57.403-58.661 99.572-63.782 12.696-1.54 38.43 0.858 53.23 4.961 33.632 9.326 65.864 35.906 80.118 66.078 6.158 13.033 9.875 22.096 12.115 38.651 4.175 22.617 4.47 59.175 4.47 152.375-0.002 118.875-0.379 131.862-4.337 148.847zM499.34 223.997c-7.907-6.028-21.734-8.649-32.983-6.249-8.656 1.847-20.338 15.419-23.934 27.801-4.479 15.436-4.823 229.985-0.954 272.059 6.379 21.054 24.19 32.050 43.635 26.813 15.157-4.082 22.915-13.575 27.336-33.457 3.282-14.754 3.67-33.129 2.972-141.26-0.46-71.701-0.716-106.742-3.058-125.553-2.382-11.87-6.319-15.047-13.015-20.154zM2300.389 425.863h45.57l-0.726 41.281c-0.705 37.869-1.263 42.2-6.324 52.472-7.982 16.21-19.759 23.401-38.446 23.401-22.448 0-36.678-10.849-43.388-33.141-2.858-9.486-5.863-74.685-3.707-80.308 1.205-3.144 7.724-3.705 47.021-3.705zM1995.795 519.763c-6.077 12.247-17.385 18.278-30.525 17.806-10.221-0.365-21.561-4.677-32.488-13.010l-8.14-6.177v-296.598l8.14-6.177c18.429-14.052 38.674-17.031 52.619-7.703 5.519 3.691 9.117 8.779 11.919 16.861 3.647 10.524 3.965 24.003 3.489 148.772-0.495 130.043-0.781 137.702-5.014 146.226zM2560.878 653.367c-9.080 108.842-16.303 144.165-38.751 189.544-29.729 60.101-72.692 91.788-133.876 98.747-47.309 5.379-225.315 12.97-390.044 16.631-285.188 6.338-754.057-5.858-813.939-21.173-27.673-7.077-48.426-19.11-70.022-40.604-37.844-37.662-60.391-91.679-69.452-166.396-20.692-170.606-21.134-376.727-1.188-553.515 8.577-76.041 26.243-125.443 59.41-166.159 20.694-25.406 56.352-46.998 88.26-53.442 22.385-4.523 134.42-10.798 297.605-16.668 24.306-0.874 88.667-2.379 143.030-3.344 113.301-2.012 321.627-0.821 440.719 2.519 80.127 2.249 226.201 8.172 253.5 10.282 7.677 0.593 25.469 1.728 39.537 2.523 47.277 2.67 77.353 12.568 105.596 34.76 36.553 28.718 64.857 81.795 76.815 144.037 11.314 58.894 18.887 163.773 20.422 282.851 1.284 99.491-0.426 153.175-7.621 239.409zM1425.273 692.808l-52.982-0.654-2.326-565.143-45.932-0.581c-35.525-0.488-46.307 0.044-47.167 2.326-0.616 1.626-1.356 129.020-1.672 283.153l-0.581 280.246-103.493 1.307v88.304l305.829-1.235 1.307-87.069-52.982-0.654zM1750.216 368.883v-243.035h-83.725v25.583c0 19.247-0.735 25.583-2.979 25.583-1.64 0-9.226-6.344-16.861-14.098-16.557-16.817-36.171-30.367-52.91-36.63-34.662-12.968-67.589-5.4-81.618 18.75-12.838 22.11-13.082 27.052-13.082 256.335v210.547h83.653l0.654-198.265c0.623-194.821 0.714-198.393 5.377-206.333 6.182-10.521 15.608-13.347 30.597-9.231 8.817 2.423 14.836 6.707 29.143 20.931l18.024 17.952v374.946h83.725v-243.035zM2076.757 160.59c-7.372-16.424-23.806-32.509-37.283-36.485-35.167-10.382-63.375-1.923-95.935 28.708-10.103 9.505-19.51 17.224-20.931 17.224-1.712 0-2.616-7.449-2.616-22.094v-22.094h-83.725v655.845h83.725v-106.982c0-58.84 0.786-106.982 1.744-106.982s9.789 7.807 19.624 17.298c22.629 21.841 41.548 31.399 65.557 33.213 42.811 3.24 68.327-18.794 80.018-69.117 3.647-15.696 3.998-33.625 3.998-179.078-0.002-177.178-0.021-177.918-14.175-209.457zM2430.99 257.832c-0.744-18.226-2.954-39.137-4.942-46.514-11.642-43.167-42.635-73.731-87.432-86.269-60.315-16.878-126.704 10.777-153.205 63.812-14.875 29.769-15.408 35.706-15.408 181.185 0 118.617 0.419 133.171 4.214 149.354 10.747 45.788 37.392 75.422 82.49 91.865 13.068 4.765 26.708 7.207 40.337 7.486 48.672 0.998 96.984-25.18 117.229-67.808 13.659-28.76 15.35-41.060 16.717-122.099l1.235-72.678-178.497-1.235-0.654-48.84c-0.93-68.901 3.716-90.088 22.313-102.621 15.645-10.54 39.679-9.745 52.765 1.744 12.263 10.768 15.726 22.336 16.933 56.107l1.091 29.653h86.195l-1.381-33.143z" />
<glyph unicode="&#xeaa9;" glyph-name="behance2" d="M404.2 511.4c13 9.4 19.2 25 19.2 46.6 0 12-2 21.8-6.2 29.4-4.4 7.6-10 13.6-17.4 17.8-7.2 4.4-15.4 7.4-24.8 9-9.2 1.8-19 2.6-29 2.6h-105.4v-119.6h114c20-0.2 36.6 4.6 49.6 14.2zM422 403.4c-14.8 11.2-34.4 16.8-58.8 16.8h-122.6v-141h120.2c11.2 0 21.6 1 31.6 3.2s19 5.6 26.6 10.8c7.6 5 13.8 11.8 18.4 20.4s6.8 19.8 6.8 33.2c0 26.4-7.4 45.2-22.2 56.6zM928 960h-832c-52.8 0-96-43.2-96-96v-832c0-52.8 43.2-96 96-96h832c52.8 0 96 43.2 96 96v832c0 52.8-43.2 96-96 96zM671.2 690.6h207.4v-50.6h-207.4v50.6zM541.6 273.6c-10-19-23.6-34.4-40.4-46.4-17-12-36.4-20.8-58.2-26.6-21.6-5.8-44-8.6-66.8-8.6h-248.2v511.8h241.2c24.4 0 46.6-2.2 66.8-6.4 20-4.2 37.2-11.4 51.6-21.2 14.2-9.8 25.4-22.8 33.4-39 7.8-16 11.8-36.2 11.8-60 0-25.8-5.8-47.2-17.6-64.4s-29-31.2-52.2-42.2c31.6-9 54.8-25 70.2-47.6 15.6-22.8 23.2-50.2 23.2-82.2 0.2-26.2-4.8-48.6-14.8-67.2zM959.4 352.8h-267.4c0-29.2 10-57 25.2-72 15.2-14.8 37.2-22.4 65.8-22.4 20.6 0 38.2 5.2 53.2 15.6 14.8 10.4 23.8 21.4 27.2 32.8h89.6c-14.4-44.6-36.2-76.4-66-95.6-29.4-19.2-65.4-28.8-107.2-28.8-29.2 0-55.4 4.8-79 14-23.6 9.4-43.2 22.6-59.8 39.8-16.2 17.2-28.6 37.8-37.6 61.8-8.8 23.8-13.4 50.4-13.4 79 0 27.8 4.6 53.6 13.6 77.6 9.2 24 22 44.8 38.8 62 16.8 17.4 36.8 31.2 60 41.4 23.2 10 48.8 15 77.2 15 31.4 0 58.8-6 82.4-18.4 23.4-12.2 42.6-28.6 57.8-49.2s25.8-44 32.6-70.4c6.6-26 8.8-53.4 7-82.2zM776.6 496.2c-16.2 0-29.8-2.8-40.4-8.4s-19.2-12.4-25.8-20.4c-6.6-8.2-11-16.8-13.6-26.2-2.6-9-4.2-17.2-4.6-24.4h165.6c-2.4 26-11.4 45.2-23.4 58.6-12.4 13.6-32.8 20.8-57.8 20.8z" />
<glyph unicode="&#xeabe;" glyph-name="appleinc" d="M791.498 415.908c-1.294 129.682 105.758 191.876 110.542 194.966-60.152 88.020-153.85 100.078-187.242 101.472-79.742 8.074-155.596-46.948-196.066-46.948-40.368 0-102.818 45.754-168.952 44.552-86.916-1.292-167.058-50.538-211.812-128.38-90.304-156.698-23.126-388.84 64.89-515.926 43.008-62.204 94.292-132.076 161.626-129.58 64.842 2.588 89.362 41.958 167.756 41.958s100.428-41.958 169.050-40.67c69.774 1.296 113.982 63.398 156.692 125.796 49.39 72.168 69.726 142.038 70.924 145.626-1.548 0.706-136.060 52.236-137.408 207.134zM662.562 796.478c35.738 43.358 59.86 103.512 53.28 163.522-51.478-2.096-113.878-34.29-150.81-77.55-33.142-38.376-62.148-99.626-54.374-158.436 57.466-4.484 116.128 29.204 151.904 72.464z" />
<glyph unicode="&#xeac0;" glyph-name="android" d="M896 576c-35.2 0-64-28.8-64-64v-256c0-35.2 28.8-64 64-64s64 28.8 64 64v256c0 35.2-28.8 64-64 64zM128 576c-35.2 0-64-28.8-64-64v-256c0-35.2 28.8-64 64-64s64 28.8 64 64v256c0 35.2-28.802 64-64 64zM224 224c0-53.020 42.98-96 96-96v0-128c0-35.2 28.8-64 64-64s64 28.8 64 64v128h128v-128c0-35.2 28.8-64 64-64s64 28.8 64 64v128c53.020 0 96 42.98 96 96v352h-576v-352zM798.216 639.998c-9.716 87.884-59.004 163.792-129.62 209.646l32.024 64.046c7.904 15.806 1.496 35.028-14.31 42.932s-35.030 1.496-42.932-14.312l-32.142-64.286-8.35 3.316c-28.568 9.502-59.122 14.66-90.886 14.66-31.762 0-62.316-5.158-90.888-14.656l-8.348-3.316-32.142 64.282c-7.904 15.808-27.128 22.212-42.932 14.312-15.808-7.904-22.214-27.126-14.312-42.932l32.022-64.046c-70.616-45.852-119.904-121.762-129.622-209.644v-32h574.222v31.998h-1.784zM416 704c-17.674 0-32 14.328-32 32 0 17.648 14.288 31.958 31.93 31.996 0.032 0 0.062-0.002 0.094-0.002 0.018 0 0.036 0.002 0.052 0.002 17.638-0.042 31.924-14.35 31.924-31.996 0-17.672-14.326-32-32-32zM608 704c-17.674 0-32 14.328-32 32 0 17.646 14.286 31.954 31.924 31.996 0.016 0 0.034-0.002 0.050-0.002 0.032 0 0.064 0.002 0.096 0.002 17.64-0.038 31.93-14.348 31.93-31.996 0-17.672-14.326-32-32-32z" />
<glyph unicode="&#xeac2;" glyph-name="windows8" d="M0.35 448l-0.35 312.074 384 52.144v-364.218zM448 821.518l511.872 74.482v-448h-511.872zM959.998 384l-0.126-448-511.872 72.016v375.984zM384 16.164l-383.688 52.594-0.020 315.242h383.708z" />
<glyph unicode="&#xead9;" glyph-name="chrome" d="M258.278 513.458l-146.532 253.802c93.818 117.464 238.234 192.74 400.254 192.74 187.432 0 351.31-100.736 440.532-251h-417.77c-7.504 0.65-15.092 1-22.762 1-121.874 0-224.578-83.644-253.722-196.542zM695.306 635h293.46c22.74-57.93 35.234-121.004 35.234-187 0-280.826-226.1-508.804-506.186-511.926l209.394 362.678c29.48 42.378 46.792 93.826 46.792 149.248 0 73.17-30.164 139.42-78.694 187zM326 448c0 102.56 83.44 186 186 186s186-83.44 186-186c0-102.56-83.44-186-186-186s-186 83.44-186 186zM582.182 195.558l-146.578-253.878c-246.532 36.884-435.604 249.516-435.604 506.32 0 91.218 23.884 176.846 65.696 251.024l209.030-362.054c41.868-89.112 132.476-150.97 237.274-150.97 24.3 0 47.836 3.34 70.182 9.558z" />
<glyph unicode="&#xeada;" glyph-name="firefox" d="M1022.526 625.86l-11.86-76.080c0 0-16.954 140.856-37.732 193.514-31.846 80.688-46.014 80.040-46.108 79.922 21.33-54.204 17.462-83.324 17.462-83.324s-37.792 102.998-137.712 135.768c-110.686 36.282-170.57 26.364-177.488 24.486-1.050 0.008-2.064 0.010-3.030 0.010 0.818-0.062 1.612-0.146 2.426-0.212-0.034-0.020-0.090-0.042-0.082-0.052 0.45-0.548 122.306-21.302 143.916-50.996 0 0-51.76 0-103.272-14.842-2.328-0.666 189.524-23.964 228.746-215.674 0 0-21.030 43.876-47.040 51.328 17.106-52.036 12.714-150.776-3.576-199.85-2.096-6.312-4.24 27.282-36.328 41.75 10.28-73.646-0.616-190.456-51.708-222.632-3.982-2.504 32.030 115.31 7.242 69.762-142.708-218.802-311.404-100.972-387.248-49.11 38.866-8.462 112.654 1.318 145.314 25.612 0.042 0.030 0.078 0.056 0.118 0.086 35.468 24.252 56.472 41.964 75.334 37.772 18.874-4.214 31.438 14.726 16.78 31.53-14.676 16.838-50.314 39.978-98.524 27.366-34-8.904-76.134-46.522-140.448-8.432-49.364 29.25-54.012 53.546-54.45 70.376 1.218 5.966 2.754 11.536 4.576 16.624 5.682 15.87 22.912 20.658 32.494 24.438 16.256-2.792 30.262-7.862 44.968-15.406 0.19 4.894 0.252 11.39-0.018 18.76 1.41 2.802 0.538 11.252-1.722 21.58-1.302 10.308-3.42 20.974-6.752 30.692 0.012 0.002 0.020 0.010 0.030 0.014 0.056 0.018 0.108 0.040 0.156 0.070 0.078 0.044 0.146 0.112 0.208 0.19 0.012 0.020 0.030 0.034 0.044 0.052 0.082 0.124 0.154 0.272 0.198 0.466 1.020 4.618 12.022 13.524 25.718 23.1 12.272 8.58 26.702 17.696 38.068 24.752 10.060 6.248 17.72 10.882 19.346 12.098 0.618 0.466 1.358 1.012 2.164 1.636 0.15 0.116 0.3 0.232 0.454 0.354 0.094 0.074 0.19 0.148 0.286 0.226 5.41 4.308 13.484 12.448 15.178 29.578 0.004 0.042 0.010 0.080 0.012 0.122 0.050 0.504 0.092 1.014 0.13 1.534 0.028 0.362 0.050 0.726 0.072 1.096 0.014 0.284 0.032 0.566 0.044 0.856 0.030 0.674 0.050 1.364 0.060 2.064 0 0.040 0.002 0.076 0.004 0.116 0.022 1.658-0.006 3.386-0.104 5.202-0.054 1.014-0.126 1.93-0.298 2.762-0.008 0.044-0.018 0.092-0.028 0.136-0.018 0.082-0.036 0.164-0.058 0.244-0.036 0.146-0.076 0.292-0.122 0.43-0.006 0.018-0.010 0.032-0.016 0.046-0.052 0.16-0.112 0.314-0.174 0.464-0.004 0.006-0.004 0.010-0.006 0.016-1.754 4.108-8.32 5.658-35.442 6.118-0.026 0.002-0.050 0.002-0.076 0.002v0c-11.066 0.188-25.538 0.194-44.502 0.118-33.25-0.134-51.628 32.504-57.494 45.132 8.040 44.46 31.276 76.142 69.45 97.626 0.722 0.406 0.58 0.742-0.274 0.978 7.464 4.514-90.246 0.124-135.186-57.036-39.888 9.914-74.654 9.246-104.616 2.214-5.754 0.162-12.924 0.88-21.434 2.652-19.924 18.056-48.448 51.402-49.976 91.208 0 0-0.092-0.072-0.252-0.204-0.020 0.382-0.056 0.76-0.072 1.142 0 0-60.716-46.664-51.628-173.882-0.022-2.036-0.064-3.986-0.12-5.874-16.432-22.288-24.586-41.020-25.192-45.156-14.56-29.644-29.334-74.254-41.356-141.98 0 0 8.408 26.666 25.284 56.866-12.412-38.022-22.164-97.156-16.436-185.856 0 0 1.514 19.666 6.874 47.994 4.186-55.010 22.518-122.924 68.858-202.788 88.948-153.32 225.67-230.74 376.792-242.616 26.836-2.212 54.050-2.264 81.424-0.186 2.516 0.178 5.032 0.364 7.55 0.574 30.964 2.174 62.134 6.852 93.238 14.366 425.172 102.798 378.942 616.198 378.942 616.198z" />
<glyph unicode="&#xeadb;" glyph-name="IE" d="M734.202 331.17h236.050c1.82 16.37 2.548 33.098 2.548 50.196 0 80.224-21.534 155.468-59.124 220.266 38.88 103.308 37.492 190.988-14.556 243.39-49.496 49.28-182.29 41.28-332.412-25.198-11.104 0.84-22.318 1.272-33.638 1.272-206.048 0-378.926-141.794-426.708-332.85 64.638 82.754 132.638 142.754 223.478 186.448-8.26-7.74-56.454-55.652-64.56-63.764-239.548-239.478-315.090-552.306-233.806-633.604 61.786-61.774 173.758-51.342 302.376 11.648 59.806-30.458 127.5-47.63 199.218-47.63 193.134 0 356.804 124.316 416.090 297.448h-237.868c-32.734-60.382-96.748-101.48-170.218-101.48-73.468 0-137.484 41.098-170.216 101.48-14.55 27.274-22.914 58.554-22.914 91.656v0.722h386.26zM348.302 447.196c5.456 97.11 86.2 174.584 184.766 174.584s179.312-77.472 184.766-174.584h-369.532zM896.966 796.192c33.526-33.88 32.688-96.214 4.012-174.022-49.136 74.908-120.518 133.936-204.792 167.64 90.106 38.638 163.406 43.756 200.78 6.382zM93.482-7.256c-42.782 42.796-29.884 132.618 25.23 240.832 34.308-96.27 101.156-177.090 187.336-229.154-95.43-43.318-173.536-50.674-212.566-11.678z" />
</font>
</defs>
</svg>
