<?xml version="1.0" encoding="UTF-8"?>
<svg width="288px" height="288px" viewBox="0 0 288 288" version="1.1" xmlns="http://www.w3.org/2000/svg" xmlns:xlink="http://www.w3.org/1999/xlink">
    <!-- Generator: Sketch 48.2 (47327) - http://www.bohemiancoding.com/sketch -->
    <title>checked</title>
    <desc>Created with Sketch.</desc>
    <defs></defs>
    <g id="Page-1" stroke="none" stroke-width="1" fill="none" fill-rule="evenodd">
        <g id="checked" transform="translate(1.000000, 1.000000)" fill="#F03354" fill-rule="nonzero" stroke="#F03354">
            <path d="M143.031,0 C64.027,0 0.004,64.04 0.004,143.027 C0.004,222.023 64.035,286.054 143.031,286.054 C222.018,286.054 286.049,222.023 286.049,143.027 C286.049,64.049 222.018,0 143.031,0 Z M143.031,259.236 C78.848,259.236 26.822,207.21 26.822,143.027 C26.822,78.844 78.857,26.818 143.031,26.818 C207.205,26.818 259.231,78.844 259.231,143.027 C259.231,207.21 207.206,259.236 143.031,259.236 Z M199.241,82.187 C193.162,78.558 185.394,80.712 181.899,87.014 L133.94,173.161 L107.23,140.649 C102.394,135.08 95.967,132.193 89.897,135.822 C83.818,139.46 81.306,148.212 85.24,153.826 L122.409,199.067 C125.189,202.678 128.362,204.842 131.679,205.459 L131.706,205.513 L132.046,205.531 C132.797,205.647 144.025,207.721 148.861,199.068 L203.909,100.192 C207.402,93.879 205.32,85.825 199.241,82.187 Z" id="Shape"></path>
        </g>
    </g>
</svg>