<?xml version="1.0" encoding="UTF-8"?>
<svg width="20px" height="20px" viewBox="0 0 20 20" version="1.1" xmlns="http://www.w3.org/2000/svg" xmlns:xlink="http://www.w3.org/1999/xlink">
    <!-- Generator: Sketch 48.2 (47327) - http://www.bohemiancoding.com/sketch -->
    <title>profile</title>
    <desc>Created with Sketch.</desc>
    <defs></defs>
    <g id="Page-1" stroke="none" stroke-width="1" fill="none" fill-rule="evenodd">
        <g id="profile" fill-rule="nonzero">
            <rect id="Rectangle-path" fill="#F03354" x="2.58064516" y="6.12903226" width="13.8709677" height="12.5806452"></rect>
            <g id="Group" fill="#333333">
                <path d="M18.3870968,4.83870968 L1.61290323,4.83870968 C0.723548387,4.83870968 0,5.56225806 0,6.4516129 L0,18.3870968 C0,19.2764516 0.723548387,20 1.61290323,20 L18.3870968,20 C19.2764516,20 20,19.2764516 20,18.3870968 L20,6.4516129 C20,5.56225806 19.2764516,4.83870968 18.3870968,4.83870968 Z M19.3548387,18.3870968 C19.3548387,18.9206452 18.9206452,19.3548387 18.3870968,19.3548387 L1.61290323,19.3548387 C1.07935484,19.3548387 0.64516129,18.9206452 0.64516129,18.3870968 L0.64516129,6.4516129 C0.64516129,5.91806452 1.07935484,5.48387097 1.61290323,5.48387097 L18.3870968,5.48387097 C18.9206452,5.48387097 19.3548387,5.91806452 19.3548387,6.4516129 L19.3548387,18.3870968 Z" id="Shape"></path>
                <rect id="Rectangle-path" x="1.29032258" y="10.3225806" width="1" height="2.58064516"></rect>
                <rect id="Rectangle-path" x="1.29032258" y="14.1935484" width="1" height="1"></rect>
                <path d="M17.9032258,11.4516129 C17.2806452,11.4516129 16.7741935,11.9580645 16.7741935,12.5806452 C16.7741935,13.2032258 17.2806452,13.7096774 17.9032258,13.7096774 C18.5258065,13.7096774 19.0322581,13.2032258 19.0322581,12.5806452 C19.0322581,11.9580645 18.5258065,11.4516129 17.9032258,11.4516129 Z M17.9032258,13.0645161 C17.6364516,13.0645161 17.4193548,12.8474194 17.4193548,12.5806452 C17.4193548,12.313871 17.6364516,12.0967742 17.9032258,12.0967742 C18.17,12.0967742 18.3870968,12.313871 18.3870968,12.5806452 C18.3870968,12.8474194 18.17,13.0645161 17.9032258,13.0645161 Z" id="Shape"></path>
                <path d="M8.06451613,10 C8.06451613,9.2883871 7.48580645,8.70967742 6.77419355,8.70967742 C6.06258065,8.70967742 5.48387097,9.2883871 5.48387097,10 C5.48387097,10.7116129 6.06258065,11.2903226 6.77419355,11.2903226 C7.48580645,11.2903226 8.06451613,10.7116129 8.06451613,10 Z M6.77419355,10.6451613 C6.4183871,10.6451613 6.12903226,10.3558065 6.12903226,10 C6.12903226,9.64419355 6.4183871,9.35483871 6.77419355,9.35483871 C7.13,9.35483871 7.41935484,9.64419355 7.41935484,10 C7.41935484,10.3558065 7.13,10.6451613 6.77419355,10.6451613 Z" id="Shape"></path>
                <path d="M6.77419355,13.2258065 C8.37516129,13.2258065 9.67741935,11.9235484 9.67741935,10.3225806 C9.67741935,8.7216129 8.37516129,7.41935484 6.77419355,7.41935484 C5.17322581,7.41935484 3.87096774,8.7216129 3.87096774,10.3225806 C3.87096774,11.9235484 5.17322581,13.2258065 6.77419355,13.2258065 Z M6.1383871,12.4880645 C6.18387097,12.1764516 6.45032258,11.9354839 6.77419355,11.9354839 C7.09806452,11.9354839 7.36451613,12.1764516 7.41,12.4880645 C7.20806452,12.5474194 6.99516129,12.5806452 6.77419355,12.5806452 C6.55322581,12.5806452 6.34032258,12.5474194 6.1383871,12.4880645 Z M6.77419355,8.06451613 C8.01903226,8.06451613 9.03225806,9.07774194 9.03225806,10.3225806 C9.03225806,11.1135484 8.62225806,11.81 8.00483871,12.2132258 C7.84548387,11.6812903 7.35741935,11.2903226 6.77419355,11.2903226 C6.19096774,11.2903226 5.70290323,11.6812903 5.54354839,12.2132258 C4.92612903,11.81 4.51612903,11.1135484 4.51612903,10.3225806 C4.51612903,9.07774194 5.52935484,8.06451613 6.77419355,8.06451613 Z" id="Shape"></path>
                <rect id="Rectangle-path" x="10.3225806" y="7.41935484" width="4.83870968" height="1"></rect>
                <rect id="Rectangle-path" x="10.3225806" y="8.70967742" width="4.83870968" height="1"></rect>
                <rect id="Rectangle-path" x="10.3225806" y="10" width="4.83870968" height="1"></rect>
                <rect id="Rectangle-path" x="10.3225806" y="11.2903226" width="4.83870968" height="1"></rect>
                <rect id="Rectangle-path" x="10.3225806" y="12.5806452" width="4.83870968" height="1"></rect>
                <path d="M9.67741935,17.4193548 L15.1612903,17.4193548 L15.1612903,13.8709677 L9.67741935,13.8709677 L9.67741935,17.4193548 Z M10.3225806,14.516129 L14.516129,14.516129 L14.516129,16.7741935 L10.3225806,16.7741935 L10.3225806,14.516129 Z" id="Shape"></path>
                <rect id="Rectangle-path" x="3.87096774" y="14.1935484" width="5.16129032" height="1"></rect>
                <rect id="Rectangle-path" x="3.87096774" y="15.483871" width="5.16129032" height="1"></rect>
                <rect id="Rectangle-path" x="3.87096774" y="16.7741935" width="5.16129032" height="1"></rect>
                <path d="M18.7096774,4.19354839 C19.4212903,4.19354839 20,3.61483871 20,2.90322581 C20,2.1916129 19.4212903,1.61290323 18.7096774,1.61290323 C18.11,1.61290323 17.6093548,2.02548387 17.4651613,2.58064516 L17.2580645,2.58064516 L17.2580645,3.22580645 L17.4651613,3.22580645 C17.6093548,3.78096774 18.11,4.19354839 18.7096774,4.19354839 Z M18.7096774,2.25806452 C19.0654839,2.25806452 19.3548387,2.54741935 19.3548387,2.90322581 C19.3548387,3.25903226 19.0654839,3.5483871 18.7096774,3.5483871 C18.353871,3.5483871 18.0645161,3.25903226 18.0645161,2.90322581 C18.0645161,2.54741935 18.353871,2.25806452 18.7096774,2.25806452 Z" id="Shape"></path>
                <path d="M1.29032258,2.58064516 C1.89,2.58064516 2.39064516,2.16806452 2.53483871,1.61290323 L2.74193548,1.61290323 L2.74193548,0.967741935 L2.53483871,0.967741935 C2.39064516,0.412580645 1.89,0 1.29032258,0 C0.578709677,0 0,0.578709677 0,1.29032258 C0,2.00193548 0.578709677,2.58064516 1.29032258,2.58064516 Z M1.29032258,0.64516129 C1.64612903,0.64516129 1.93548387,0.934516129 1.93548387,1.29032258 C1.93548387,1.64612903 1.64612903,1.93548387 1.29032258,1.93548387 C0.934516129,1.93548387 0.64516129,1.64612903 0.64516129,1.29032258 C0.64516129,0.934516129 0.934516129,0.64516129 1.29032258,0.64516129 Z" id="Shape"></path>
                <rect id="Rectangle-path" x="3.38709677" y="0.967741935" width="1" height="1"></rect>
                <polygon id="Shape" points="4.83870968 1.77419355 5.48387097 1.77419355 5.48387097 0.967741935 4.67741935 0.967741935 4.67741935 1.61290323 4.83870968 1.61290323"></polygon>
                <rect id="Rectangle-path" x="4.83870968" y="2.41935484" width="1" height="1"></rect>
                <polygon id="Shape" points="9.03225806 3.22580645 9.19354839 3.22580645 9.19354839 2.58064516 8.38709677 2.58064516 8.38709677 3.38709677 9.03225806 3.38709677"></polygon>
                <rect id="Rectangle-path" x="15.4658065" y="2.58064516" width="1" height="1"></rect>
                <rect id="Rectangle-path" x="10.0903226" y="2.58064516" width="1" height="1"></rect>
                <rect id="Rectangle-path" x="13.6741935" y="2.58064516" width="1" height="1"></rect>
                <rect id="Rectangle-path" x="11.8816129" y="2.58064516" width="1" height="1"></rect>
            </g>
        </g>
    </g>
</svg>