<?xml version="1.0" encoding="UTF-8"?>
<svg width="20px" height="18px" viewBox="0 0 20 18" version="1.1" xmlns="http://www.w3.org/2000/svg" xmlns:xlink="http://www.w3.org/1999/xlink">
    <!-- Generator: Sketch 48.2 (47327) - http://www.bohemiancoding.com/sketch -->
    <title>search</title>
    <desc>Created with Sketch.</desc>
    <defs></defs>
    <g id="Page-1" stroke="none" stroke-width="1" fill="none" fill-rule="evenodd">
        <g id="search" fill-rule="nonzero">
            <g id="Group" transform="translate(0.000000, 2.540369)" fill="#333333">
                <path d="M4.51621223,1.65212721 C4.51621223,0.762755988 3.79265052,0.0391942705 2.90327929,0.0391942705 C2.01390807,0.0391942705 1.29034635,0.762755988 1.29034635,1.65212721 C1.29034635,2.54149843 2.01390807,3.26506015 2.90327929,3.26506015 C3.79265052,3.26506015 4.51621223,2.54149843 4.51621223,1.65212721 Z M2.90327929,2.61988698 C2.36972108,2.61988698 1.93551953,2.18568543 1.93551953,1.65212721 C1.93551953,1.11856899 2.36972108,0.684367447 2.90327929,0.684367447 C3.43683751,0.684367447 3.87103906,1.11856899 3.87103906,1.65212721 C3.87103906,2.18568543 3.43683751,2.61988698 2.90327929,2.61988698 Z" id="Shape"></path>
                <path d="M5.16138541,8.10385897 C5.16138541,8.28192677 5.01686662,8.42644556 4.83879882,8.42644556 C4.66073103,8.42644556 4.51621223,8.28192677 4.51621223,8.10385897 L4.51621223,7.78127239 L4.51621223,4.87799309 L3.87103906,4.87799309 L3.87103906,7.78127239 L3.87103906,8.10385897 L3.87103906,13.9104176 C3.87103906,14.0884854 3.72652027,14.2330041 3.54845247,14.2330041 C3.37038467,14.2330041 3.22586588,14.0884854 3.22586588,13.9104176 L3.22586588,9.39420533 L2.58069271,9.39420533 L2.58069271,13.9104176 C2.58069271,14.0884854 2.43617391,14.2330041 2.25810612,14.2330041 C2.08003832,14.2330041 1.93551953,14.0884854 1.93551953,13.9104176 L1.93551953,8.10385897 L1.93551953,7.78127239 L1.93551953,4.87799309 L1.29034635,4.87799309 L1.29034635,7.78127239 L1.29034635,8.10385897 C1.29034635,8.28192677 1.14582756,8.42644556 0.967759764,8.42644556 C0.789691968,8.42644556 0.645173176,8.28192677 0.645173176,8.10385897 L0.645173176,5.05477054 C0.645173176,4.42379118 1.15873102,3.91023333 1.78971039,3.91023333 L4.0168482,3.91023333 L4.0168482,3.26506015 L2.90327929,3.26506015 L1.78971039,3.26506015 C0.802595431,3.26506015 0,4.06765558 0,5.05477054 L0,8.10385897 C0,8.63741719 0.434201548,9.07161874 0.967759764,9.07161874 C1.08131024,9.07161874 1.18905416,9.0483925 1.29034635,9.01226281 L1.29034635,13.9104176 C1.29034635,14.4439758 1.7245479,14.8781773 2.25810612,14.8781773 C2.50682038,14.8781773 2.73166323,14.7810788 2.90327929,14.6265598 C3.07489536,14.7814013 3.29973821,14.8781773 3.54845247,14.8781773 C4.08201069,14.8781773 4.51621223,14.4439758 4.51621223,13.9104176 L4.51621223,9.01226281 C4.61750442,9.0483925 4.72524834,9.07161874 4.83879882,9.07161874 C5.37235704,9.07161874 5.80655859,8.63741719 5.80655859,8.10385897 L5.80655859,6.27930923 L5.16138541,6.27930923 L5.16138541,8.10385897 Z" id="Shape"></path>
                <path d="M18.7100221,1.65212721 C18.7100221,0.762755988 17.9864604,0.0391942705 17.0970892,0.0391942705 C16.2077179,0.0391942705 15.4841562,0.762755988 15.4841562,1.65212721 C15.4841562,2.54149843 16.2077179,3.26506015 17.0970892,3.26506015 C17.9864604,3.26506015 18.7100221,2.54149843 18.7100221,1.65212721 Z M17.0970892,2.61988698 C16.563531,2.61988698 16.1293294,2.18568543 16.1293294,1.65212721 C16.1293294,1.11856899 16.563531,0.684367447 17.0970892,0.684367447 C17.6306474,0.684367447 18.0648489,1.11856899 18.0648489,1.65212721 C18.0648489,2.18568543 17.6306474,2.61988698 17.0970892,2.61988698 Z" id="Shape"></path>
                <path d="M19.0326087,9.07161874 C19.5661669,9.07161874 20.0003685,8.63741719 20.0003685,8.10385897 L20.0003685,5.05477054 C20.0003685,4.06765558 19.197773,3.26506015 18.2106581,3.26506015 L17.0970892,3.26506015 L15.9835203,3.26506015 C14.9964053,3.26506015 14.1938099,4.06765558 14.1938099,5.05477054 L14.1938099,5.96446472 L13.8612231,5.63187795 L13.4050857,6.08801539 L14.5376872,7.2206169 L13.6331544,8.12514969 L12.5005529,6.99254818 L12.0444154,7.44868561 L12.2582904,7.66256052 L12.2582904,8.10385897 C12.2582904,8.28192677 12.1137716,8.42644556 11.9357038,8.42644556 C11.757636,8.42644556 11.6131172,8.28192677 11.6131172,8.10385897 L11.6131172,7.78127239 L10.967944,7.78127239 L10.967944,8.10385897 L10.967944,13.9104176 C10.967944,14.0884854 10.8234252,14.2330041 10.6453574,14.2330041 C10.4672896,14.2330041 10.3227708,14.0884854 10.3227708,13.9104176 L10.3227708,9.39420533 L9.67759764,9.39420533 L9.67759764,13.9104176 C9.67759764,14.0884854 9.53307885,14.2330041 9.35501106,14.2330041 C9.17694326,14.2330041 9.03242447,14.0884854 9.03242447,13.9104176 L9.03242447,7.78127239 L8.38725129,7.78127239 L8.38725129,8.10385897 C8.38725129,8.28192677 8.2427325,8.42644556 8.0646647,8.42644556 C7.88659691,8.42644556 7.74207812,8.28192677 7.74207812,8.10385897 L7.74207812,7.78127239 L7.09690494,7.78127239 L7.09690494,8.10385897 C7.09690494,8.63741719 7.53110649,9.07161874 8.0646647,9.07161874 C8.17821518,9.07161874 8.2859591,9.0483925 8.38725129,9.01226281 L8.38725129,13.9104176 C8.38725129,14.4439758 8.82145284,14.8781773 9.35501106,14.8781773 C9.60372532,14.8781773 9.82856817,14.7810788 10.0001842,14.6265598 C10.1718003,14.7814013 10.3966431,14.8781773 10.6453574,14.8781773 C11.1789156,14.8781773 11.6131172,14.4439758 11.6131172,13.9104176 L11.6131172,9.01226281 C11.7144094,9.0483925 11.8221533,9.07161874 11.9357038,9.07161874 C12.406035,9.07161874 12.7979777,8.73419317 12.8847535,8.28902368 L13.177017,8.58128713 L12.4982948,9.26000931 L12.9544322,9.71614674 L13.406376,9.26420293 L15.4841562,11.3419831 L15.4841562,13.9104176 C15.4841562,14.4439758 15.9183578,14.8781773 16.451916,14.8781773 C16.7006303,14.8781773 16.9254731,14.7810788 17.0970892,14.6265598 C17.2687052,14.7814013 17.4935481,14.8781773 17.7422623,14.8781773 C18.2758206,14.8781773 18.7100221,14.4439758 18.7100221,13.9104176 L18.7100221,13.5549271 C19.0106728,13.4952486 19.2974523,13.3497621 19.5300372,13.1171771 C19.8332686,12.8145909 20.0003685,12.4113577 20.0003685,11.9823175 C20.0003685,11.5532774 19.8332686,11.1503667 19.5300372,10.8471353 L18.7100221,10.0274428 L18.7100221,9.01226281 C18.8113143,9.0483925 18.9190582,9.07161874 19.0326087,9.07161874 Z M16.451916,14.2330041 C16.2738482,14.2330041 16.1293294,14.0884854 16.1293294,13.9104176 L16.1293294,11.9868337 L16.7745026,12.6320069 L16.7745026,13.9104176 C16.7745026,14.0884854 16.6299838,14.2330041 16.451916,14.2330041 Z M17.7422623,14.2330041 C17.5641946,14.2330041 17.4196758,14.0884854 17.4196758,13.9104176 L17.4196758,13.2478247 C17.6148406,13.3984726 17.8338769,13.5023455 18.0648489,13.5504109 L18.0648489,13.9104176 C18.0648489,14.0884854 17.9203301,14.2330041 17.7422623,14.2330041 Z M19.3551953,11.9823175 C19.3551953,12.2387739 19.2551934,12.479746 19.0738998,12.6610397 C18.6996993,13.0352401 18.0903333,13.0352401 17.7161328,12.6610397 L13.8625135,8.8080655 L15.220603,7.44997596 L19.0738998,11.3035953 C19.2551934,11.484889 19.3551953,11.7261838 19.3551953,11.9823175 Z M16.1293294,7.44642751 L16.1293294,4.87799309 L15.4841562,4.87799309 L15.4841562,6.27382526 L14.993502,6.76447946 L14.8389831,6.6096379 L14.8389831,5.05477054 C14.8389831,4.42379118 15.3525409,3.91023333 15.9835203,3.91023333 L18.2106581,3.91023333 C18.8416374,3.91023333 19.3551953,4.42379118 19.3551953,5.05477054 L19.3551953,8.10385897 C19.3551953,8.28192677 19.2106765,8.42644556 19.0326087,8.42644556 C18.8545409,8.42644556 18.7100221,8.28192677 18.7100221,8.10385897 L18.7100221,4.87799309 L18.0648489,4.87799309 L18.0648489,8.10385897 L18.0648489,9.38226962 L16.1293294,7.44642751 Z" id="Shape"></path>
            </g>
            <path d="M13.180888,1.59599714 C11.0543972,-0.530493644 7.59497863,-0.530493644 5.46848784,1.59599714 C3.34199705,3.72248793 3.34199705,7.18222909 5.46848784,9.30871988 C6.53173324,10.3719653 7.92788799,10.9032654 9.32468792,10.9032654 C10.7211653,10.9032654 12.1176426,10.3719653 13.180888,9.30871988 C15.3070562,7.18255168 15.3070562,3.72248793 13.180888,1.59599714 Z M11.8189274,7.94675931 C10.4411601,9.32420404 8.20789315,9.32420404 6.83012583,7.94675931 C5.45235851,6.56931457 5.45235851,4.33572504 6.83012583,2.95795772 C8.20757056,1.5801904 10.4411601,1.5801904 11.8189274,2.95795772 C13.1966947,4.33572504 13.1966947,6.56931457 11.8189274,7.94675931 Z" id="Shape" fill="#F03354"></path>
            <g id="Group" transform="translate(5.443649, 1.572610)" fill="#333333">
                <path d="M6.60367005,6.60221841 C8.10466544,5.10122301 8.10466544,2.65859737 6.60367005,1.15760197 C5.10235207,-0.34371601 2.66004901,-0.34371601 1.15873102,1.15760197 C-0.34226437,2.65859737 -0.34226437,5.10122301 1.15873102,6.60221841 C1.90939002,7.3528774 2.89521463,7.7280456 3.88103924,7.7280456 C4.86686386,7.7280456 5.85301106,7.3528774 6.60367005,6.60221841 Z M1.61486846,1.61373941 C2.23971868,0.988889186 3.06037896,0.676625369 3.88103924,0.676625369 C4.70169952,0.676625369 5.52268239,0.989211773 6.14721002,1.61373941 C7.39658788,2.86343985 7.39658788,4.89638053 6.14721002,6.14608097 C4.89783217,7.39545883 2.86392373,7.39545883 1.61454587,6.14608097 C0.365490604,4.89638053 0.365490604,2.86343985 1.61486846,1.61373941 Z" id="Shape"></path>
                <path d="M4.23394897,6.49092603 L4.23394897,6.16833945 C4.94557498,6.16833945 5.52429532,5.58961911 5.52429532,4.87799309 C5.52429532,4.16636708 4.94557498,3.58764674 4.23394897,3.58764674 L3.58877579,3.58764674 C3.23296279,3.58764674 2.94360262,3.29828657 2.94360262,2.94247356 C2.94360262,2.58666056 3.23296279,2.29730039 3.58877579,2.29730039 L4.23394897,2.29730039 C4.58976198,2.29730039 4.87912215,2.58666056 4.87912215,2.94247356 L4.87912215,3.26506015 L5.52429532,3.26506015 L5.52429532,2.94247356 C5.52429532,2.23084755 4.94557498,1.65212721 4.23394897,1.65212721 L4.23394897,1.32954062 L3.58877579,1.32954062 L3.58877579,1.65212721 C2.87714978,1.65212721 2.29842944,2.23084755 2.29842944,2.94247356 C2.29842944,3.65409958 2.87714978,4.23281992 3.58877579,4.23281992 L4.23394897,4.23281992 C4.58976198,4.23281992 4.87912215,4.52218009 4.87912215,4.87799309 C4.87912215,5.2338061 4.58976198,5.52316627 4.23394897,5.52316627 L3.58877579,5.52316627 C3.23296279,5.52316627 2.94360262,5.2338061 2.94360262,4.87799309 L2.94360262,4.5554065 L2.29842944,4.5554065 L2.29842944,4.87799309 C2.29842944,5.58961911 2.87714978,6.16833945 3.58877579,6.16833945 L3.58877579,6.49092603 L4.23394897,6.49092603 Z" id="Shape"></path>
            </g>
        </g>
    </g>
</svg>