<?xml version="1.0" encoding="UTF-8"?>
<svg width="20px" height="20px" viewBox="0 0 20 20" version="1.1" xmlns="http://www.w3.org/2000/svg" xmlns:xlink="http://www.w3.org/1999/xlink">
    <!-- Generator: Sketch 48.2 (47327) - http://www.bohemiancoding.com/sketch -->
    <title>teamwork</title>
    <desc>Created with Sketch.</desc>
    <defs></defs>
    <g id="Page-1" stroke="none" stroke-width="1" fill="none" fill-rule="evenodd">
        <g id="teamwork" fill-rule="nonzero">
            <g id="Group" fill="#333333">
                <rect id="Rectangle-path" x="11.2903226" y="7.74193548" width="1" height="1"></rect>
                <path d="M6.77419355,2.25806452 C5.81709677,2.25806452 5.02225806,2.95709677 4.86774194,3.87096774 L3.5483871,3.87096774 L2.01935484,3.87096774 C0.906129032,3.87096774 0,4.77709677 0,5.89032258 L0,8.5483871 C0,9.17096774 0.506451613,9.67741935 1.12903226,9.67741935 C1.30290323,9.67741935 1.46580645,9.63451613 1.61290323,9.56419355 L1.61290323,14.3548387 C1.61290323,14.9774194 2.11935484,15.483871 2.74193548,15.483871 C3.05806452,15.483871 3.34322581,15.3525806 3.5483871,15.1425806 C3.75354839,15.3525806 4.03870968,15.483871 4.35483871,15.483871 C4.52870968,15.483871 4.6916129,15.4409677 4.83870968,15.3706452 L4.83870968,16.6129032 C4.83870968,17.2354839 5.34516129,17.7419355 5.96774194,17.7419355 C6.28387097,17.7419355 6.56903226,17.6106452 6.77419355,17.4006452 C6.97935484,17.6106452 7.26451613,17.7419355 7.58064516,17.7419355 C8.20322581,17.7419355 8.70967742,17.2354839 8.70967742,16.6129032 L8.06451613,16.6129032 C8.06451613,16.8796774 7.84741935,17.0967742 7.58064516,17.0967742 C7.31387097,17.0967742 7.09677419,16.8796774 7.09677419,16.6129032 L7.09677419,12.2580645 L6.4516129,12.2580645 L6.4516129,16.6129032 C6.4516129,16.8796774 6.23451613,17.0967742 5.96774194,17.0967742 C5.70096774,17.0967742 5.48387097,16.8796774 5.48387097,16.6129032 L5.48387097,10.8064516 L5.48387097,10.6451613 L5.48387097,7.74193548 L4.83870968,7.74193548 L4.83870968,10.6451613 L4.83870968,10.8064516 C4.83870968,11.0732258 4.6216129,11.2903226 4.35483871,11.2903226 C4.08806452,11.2903226 3.87096774,11.0732258 3.87096774,10.8064516 L3.87096774,10 L3.87096774,8.1483871 C3.87096774,7.39064516 4.48741935,6.77419355 5.24516129,6.77419355 L8.30322581,6.77419355 L8.30322581,6.12903226 L6.77419355,6.12903226 L5.48387097,6.12903226 L5.48387097,5.63225806 C5.82677419,5.94 6.27806452,6.12903226 6.77419355,6.12903226 C7.8416129,6.12903226 8.70967742,5.26096774 8.70967742,4.19354839 C8.70967742,3.12612903 7.8416129,2.25806452 6.77419355,2.25806452 Z M4.35483871,11.9354839 C4.52870968,11.9354839 4.6916129,11.8925806 4.83870968,11.8222581 L4.83870968,14.3548387 C4.83870968,14.6216129 4.6216129,14.8387097 4.35483871,14.8387097 C4.08806452,14.8387097 3.87096774,14.6216129 3.87096774,14.3548387 L3.87096774,11.8222581 C4.01806452,11.8925806 4.18096774,11.9354839 4.35483871,11.9354839 Z M3.22580645,8.1483871 L3.22580645,10 L3.22580645,10.8064516 L3.22580645,14.3548387 C3.22580645,14.6216129 3.00870968,14.8387097 2.74193548,14.8387097 C2.47516129,14.8387097 2.25806452,14.6216129 2.25806452,14.3548387 L2.25806452,8.5483871 L2.25806452,8.38709677 L2.25806452,5.48387097 L1.61290323,5.48387097 L1.61290323,8.38709677 L1.61290323,8.5483871 C1.61290323,8.81516129 1.39580645,9.03225806 1.12903226,9.03225806 C0.862258065,9.03225806 0.64516129,8.81516129 0.64516129,8.5483871 L0.64516129,5.89032258 C0.64516129,5.13258065 1.2616129,4.51612903 2.01935484,4.51612903 L4.86806452,4.51612903 C4.93032258,4.88451613 5.09645161,5.21709677 5.33580645,5.48387097 L4.83870968,5.48387097 L4.83870968,6.17 C3.91935484,6.35870968 3.22580645,7.17419355 3.22580645,8.1483871 Z M6.77419355,5.48387097 C6.06258065,5.48387097 5.48387097,4.90516129 5.48387097,4.19354839 C5.48387097,3.48193548 6.06258065,2.90322581 6.77419355,2.90322581 C7.48580645,2.90322581 8.06451613,3.48193548 8.06451613,4.19354839 C8.06451613,4.90516129 7.48580645,5.48387097 6.77419355,5.48387097 Z" id="Shape"></path>
                <rect id="Rectangle-path" x="8.06451613" y="7.74193548" width="1" height="1"></rect>
                <path d="M5.48387097,1.93548387 C5.48387097,0.868064516 4.61580645,0 3.5483871,0 C2.48096774,0 1.61290323,0.868064516 1.61290323,1.93548387 C1.61290323,3.00290323 2.48096774,3.87096774 3.5483871,3.87096774 C4.61580645,3.87096774 5.48387097,3.00290323 5.48387097,1.93548387 Z M3.5483871,3.22580645 C2.83677419,3.22580645 2.25806452,2.64709677 2.25806452,1.93548387 C2.25806452,1.22387097 2.83677419,0.64516129 3.5483871,0.64516129 C4.26,0.64516129 4.83870968,1.22387097 4.83870968,1.93548387 C4.83870968,2.64709677 4.26,3.22580645 3.5483871,3.22580645 Z" id="Shape"></path>
                <path d="M18.3870968,1.93548387 C18.3870968,0.868064516 17.5190323,0 16.4516129,0 C15.3841935,0 14.516129,0.868064516 14.516129,1.93548387 C14.516129,3.00290323 15.3841935,3.87096774 16.4516129,3.87096774 C17.5190323,3.87096774 18.3870968,3.00290323 18.3870968,1.93548387 Z M16.4516129,3.22580645 C15.74,3.22580645 15.1612903,2.64709677 15.1612903,1.93548387 C15.1612903,1.22387097 15.74,0.64516129 16.4516129,0.64516129 C17.1632258,0.64516129 17.7419355,1.22387097 17.7419355,1.93548387 C17.7419355,2.64709677 17.1632258,3.22580645 16.4516129,3.22580645 Z" id="Shape"></path>
                <path d="M17.9806452,3.87096774 L16.4516129,3.87096774 L15.1322581,3.87096774 C14.9780645,2.95709677 14.1832258,2.25806452 13.2258065,2.25806452 C12.1583871,2.25806452 11.2903226,3.12612903 11.2903226,4.19354839 C11.2903226,5.26096774 12.1583871,6.12903226 13.2258065,6.12903226 C13.7219355,6.12903226 14.1732258,5.94 14.516129,5.63225806 L14.516129,6.12903226 L13.2258065,6.12903226 L11.6967742,6.12903226 L11.6967742,6.77419355 L14.7548387,6.77419355 C15.5125806,6.77419355 16.1290323,7.39064516 16.1290323,8.1483871 L16.1290323,10 L16.1290323,10.8064516 C16.1290323,11.0732258 15.9119355,11.2903226 15.6451613,11.2903226 C15.3783871,11.2903226 15.1612903,11.0732258 15.1612903,10.8064516 L15.1612903,10.6451613 L15.1612903,7.74193548 L14.516129,7.74193548 L14.516129,10.6451613 L14.516129,10.8064516 L14.516129,16.6129032 C14.516129,16.8796774 14.2990323,17.0967742 14.0322581,17.0967742 C13.7654839,17.0967742 13.5483871,16.8796774 13.5483871,16.6129032 L13.5483871,12.2580645 L12.9032258,12.2580645 L12.9032258,16.6129032 C12.9032258,16.8796774 12.686129,17.0967742 12.4193548,17.0967742 C12.1525806,17.0967742 11.9354839,16.8796774 11.9354839,16.6129032 L11.2903226,16.6129032 C11.2903226,17.2354839 11.7967742,17.7419355 12.4193548,17.7419355 C12.7354839,17.7419355 13.0206452,17.6106452 13.2258065,17.4006452 C13.4309677,17.6106452 13.716129,17.7419355 14.0322581,17.7419355 C14.6548387,17.7419355 15.1612903,17.2354839 15.1612903,16.6129032 L15.1612903,15.3706452 C15.3083871,15.4409677 15.4712903,15.483871 15.6451613,15.483871 C15.9612903,15.483871 16.2464516,15.3525806 16.4516129,15.1425806 C16.6567742,15.3525806 16.9419355,15.483871 17.2580645,15.483871 C17.8806452,15.483871 18.3870968,14.9774194 18.3870968,14.3548387 L18.3870968,9.56419355 C18.5341935,9.63451613 18.6970968,9.67741935 18.8709677,9.67741935 C19.4935484,9.67741935 20,9.17096774 20,8.5483871 L20,5.89032258 C20,4.77709677 19.093871,3.87096774 17.9806452,3.87096774 Z M13.2258065,5.48387097 C12.5141935,5.48387097 11.9354839,4.90516129 11.9354839,4.19354839 C11.9354839,3.48193548 12.5141935,2.90322581 13.2258065,2.90322581 C13.9374194,2.90322581 14.516129,3.48193548 14.516129,4.19354839 C14.516129,4.90516129 13.9374194,5.48387097 13.2258065,5.48387097 Z M15.6451613,14.8387097 C15.3783871,14.8387097 15.1612903,14.6216129 15.1612903,14.3548387 L15.1612903,11.8222581 C15.3083871,11.8925806 15.4712903,11.9354839 15.6451613,11.9354839 C15.8190323,11.9354839 15.9819355,11.8925806 16.1290323,11.8222581 L16.1290323,14.3548387 C16.1290323,14.6216129 15.9119355,14.8387097 15.6451613,14.8387097 Z M19.3548387,8.5483871 C19.3548387,8.81516129 19.1377419,9.03225806 18.8709677,9.03225806 C18.6041935,9.03225806 18.3870968,8.81516129 18.3870968,8.5483871 L18.3870968,8.38709677 L18.3870968,5.48387097 L17.7419355,5.48387097 L17.7419355,8.38709677 L17.7419355,8.5483871 L17.7419355,14.3548387 C17.7419355,14.6216129 17.5248387,14.8387097 17.2580645,14.8387097 C16.9912903,14.8387097 16.7741935,14.6216129 16.7741935,14.3548387 L16.7741935,10.8064516 L16.7741935,10 L16.7741935,8.1483871 C16.7741935,7.17419355 16.0806452,6.35870968 15.1612903,6.17032258 L15.1612903,5.48387097 L14.6645161,5.48387097 C14.903871,5.21709677 15.07,4.88451613 15.1322581,4.51612903 L17.9809677,4.51612903 C18.7387097,4.51612903 19.3551613,5.13258065 19.3551613,5.89032258 L19.3551613,8.5483871 L19.3548387,8.5483871 Z" id="Shape"></path>
            </g>
            <g id="Group" transform="translate(6.451613, 4.516129)" fill="#F03354">
                <path d="M5.48387097,1.93548387 C5.48387097,0.868064516 4.61580645,0 3.5483871,0 C2.48096774,0 1.61290323,0.868064516 1.61290323,1.93548387 C1.61290323,3.00290323 2.48096774,3.87096774 3.5483871,3.87096774 C4.61580645,3.87096774 5.48387097,3.00290323 5.48387097,1.93548387 Z" id="Shape"></path>
                <path d="M5.07741935,3.87096774 L3.5483871,3.87096774 L2.01935484,3.87096774 C0.906129032,3.87096774 0,4.77709677 0,5.89032258 L0,8.5483871 C0,9.17096774 0.506451613,9.67741935 1.12903226,9.67741935 C1.30290323,9.67741935 1.46580645,9.63451613 1.61290323,9.56419355 L1.61290323,14.3548387 C1.61290323,14.9774194 2.11935484,15.483871 2.74193548,15.483871 C3.05806452,15.483871 3.34322581,15.3525806 3.5483871,15.1425806 C3.75354839,15.3525806 4.03870968,15.483871 4.35483871,15.483871 C4.97741935,15.483871 5.48387097,14.9774194 5.48387097,14.3548387 L5.48387097,9.56419355 C5.63096774,9.63451613 5.79387097,9.67741935 5.96774194,9.67741935 C6.59032258,9.67741935 7.09677419,9.17096774 7.09677419,8.5483871 L7.09677419,5.89032258 C7.09677419,4.77709677 6.19064516,3.87096774 5.07741935,3.87096774 Z" id="Shape"></path>
            </g>
        </g>
    </g>
</svg>